SplineFontDB: 3.2
FontName: Dragonspire-Regular
FullName: Dragonspire
FamilyName: Dragonspire
Weight: Book
Copyright: Copyright (c) 2025, birev
Version: 001.000
ItalicAngle: 0
UnderlinePosition: -100
UnderlineWidth: 50
Ascent: 800
Descent: 200
InvalidEm: 0
sfntRevision: 0x00010000
LayerCount: 2
Layer: 0 1 "Back" 1
Layer: 1 1 "Fore" 0
XUID: [1021 678 -945075964 8136]
StyleMap: 0x0000
FSType: 0
OS2Version: 4
OS2_WeightWidthSlopeOnly: 0
OS2_UseTypoMetrics: 1
CreationTime: 1763839108
ModificationTime: 1763842712
PfmFamily: 17
TTFWeight: 400
TTFWidth: 5
LineGap: 90
VLineGap: 0
Panose: 2 0 5 9 0 0 0 0 0 0
OS2TypoAscent: 800
OS2TypoAOffset: 0
OS2TypoDescent: -200
OS2TypoDOffset: 0
OS2TypoLinegap: 90
OS2WinAscent: 790
OS2WinAOffset: 0
OS2WinDescent: 164
OS2WinDOffset: 0
HheadAscent: 790
HheadAOffset: 0
HheadDescent: -164
HheadDOffset: 0
OS2SubXSize: 650
OS2SubYSize: 700
OS2SubXOff: 0
OS2SubYOff: 140
OS2SupXSize: 650
OS2SupYSize: 700
OS2SupXOff: 0
OS2SupYOff: 480
OS2StrikeYSize: 49
OS2StrikeYPos: 258
OS2CapHeight: 735
OS2XHeight: 739
OS2Vendor: 'PfEd'
OS2CodePages: 00000001.00000000
OS2UnicodeRanges: 00000001.00000000.00000000.00000000
MarkAttachClasses: 1
DEI: 91125
ShortTable: cvt  2
  33
  633
EndShort
ShortTable: maxp 16
  1
  0
  65
  326
  4
  0
  0
  2
  0
  1
  1
  0
  64
  46
  0
  0
EndShort
LangName: 1033 "" "" "" "FontForge 2.0 : Dragonspire : 22-11-2025" "" "Version 001.000"
GaspTable: 1 65535 2 0
Encoding: UnicodeBmp
UnicodeInterp: none
NameList: AGL For New Fonts
DisplaySize: -48
AntiAlias: 1
FitToEm: 0
WinInfo: 54 18 5
BeginChars: 65539 65

StartChar: .notdef
Encoding: 65536 -1 0
Width: 1000
GlyphClass: 1
Flags: W
LayerCount: 2
Fore
SplineSet
33 0 m 1,0,-1
 33 666 l 1,1,-1
 298 666 l 1,2,-1
 298 0 l 1,3,-1
 33 0 l 1,0,-1
66 33 m 1,4,-1
 265 33 l 1,5,-1
 265 633 l 1,6,-1
 66 633 l 1,7,-1
 66 33 l 1,4,-1
EndSplineSet
EndChar

StartChar: zero
Encoding: 48 48 3
Width: 1000
GlyphClass: 1
Flags: W
LayerCount: 2
Fore
SplineSet
488 761 m 0,0,1
 509 764 509 764 538 759 c 0,2,3
 611 747 611 747 661.5 680 c 128,-1,4
 712 613 712 613 734 515 c 0,5,6
 751 444 751 444 751 367 c 0,7,8
 752 309 752 309 745 267 c 0,9,10
 730 170 730 170 682 90 c 0,11,12
 661 55 661 55 636.5 27 c 128,-1,13
 612 -1 612 -1 569 -39 c 0,14,15
 557 -49 557 -49 546 -60 c 0,16,17
 522 -86 522 -86 518 -102 c 0,18,19
 516 -109 516 -109 518 -115 c 0,20,21
 525 -149 525 -149 568 -149 c 0,22,23
 577 -149 577 -149 577 -150 c 0,24,25
 573 -155 573 -155 554.5 -159.5 c 128,-1,26
 536 -164 536 -164 517 -158 c 0,27,28
 496 -152 496 -152 467 -122 c 0,29,30
 450 -104 450 -104 427 -85 c 0,31,32
 421 -80 421 -80 403 -66 c 0,33,34
 345 -23 345 -23 316 15 c 0,35,36
 283 57 283 57 263 114 c 0,37,38
 247 155 247 155 240 196 c 0,39,40
 238 205 238 205 237 210 c 0,41,42
 222 288 222 288 231 398 c 0,43,44
 234 446 234 446 246 491 c 0,45,46
 260 549 260 549 281 587 c 0,47,48
 301 624 301 624 328 654 c 0,49,50
 376 711 376 711 422 738 c 0,51,52
 454 756 454 756 488 761 c 0,0,1
469 692 m 0,53,54
 446 696 446 696 426 686 c 0,55,56
 384 665 384 665 360 578 c 0,57,58
 352 548 352 548 347 509 c 0,59,60
 342 468 342 468 341 409 c 0,61,62
 341 366 341 366 343 341 c 0,63,64
 350 253 350 253 373 183 c 0,65,66
 393 125 393 125 422 85 c 0,67,68
 463 29 463 29 511 20 c 0,69,70
 538 14 538 14 562 27 c 0,71,72
 584 38 584 38 600 70 c 0,73,74
 619 105 619 105 627 151 c 0,75,76
 628 154 628 154 629 160 c 256,77,78
 630 166 630 166 633 195 c 0,79,80
 635 208 635 208 635.5 254 c 128,-1,81
 636 300 636 300 635 319 c 0,82,83
 633 350 633 350 630 376 c 0,84,85
 628 392 628 392 627 401 c 128,-1,86
 626 410 626 410 624.5 419.5 c 128,-1,87
 623 429 623 429 623 435 c 0,88,89
 620 454 620 454 610 496 c 0,90,91
 581 612 581 612 528 661 c 0,92,93
 501 686 501 686 469 692 c 0,53,54
EndSplineSet
EndChar

StartChar: one
Encoding: 49 49 4
Width: 1000
GlyphClass: 1
Flags: W
LayerCount: 2
Fore
SplineSet
569 731 m 0,0,1
 575 736 575 736 575 736 c 257,2,3
 575 736 575 736 575.5 699 c 128,-1,4
 576 662 576 662 576 598.5 c 128,-1,5
 576 535 576 535 576 460 c 0,6,7
 576 183 576 183 577 173 c 0,8,9
 580 151 580 151 588 134 c 0,10,11
 597 116 597 116 622 99 c 0,12,13
 666 70 666 70 673 29 c 0,14,15
 678 6 678 6 672 -15 c 0,16,17
 661 -56 661 -56 623 -87.5 c 128,-1,18
 585 -119 585 -119 533 -129 c 0,19,20
 519 -132 519 -132 494 -132 c 128,-1,21
 469 -132 469 -132 457 -129 c 0,22,23
 416 -121 416 -121 395 -99 c 0,24,25
 377 -79 377 -79 378 -55 c 128,-1,26
 379 -31 379 -31 398 -12 c 128,-1,27
 417 7 417 7 446 7 c 1,28,-1
 453 6 l 1,29,-1
 451 6 l 1,30,31
 441 1 441 1 431 -10 c 0,32,33
 410 -32 410 -32 419 -60.5 c 128,-1,34
 428 -89 428 -89 458 -95 c 0,35,36
 489 -101 489 -101 524 -89.5 c 128,-1,37
 559 -78 559 -78 583 -54 c 0,38,39
 622 -16 622 -16 608 20 c 0,40,41
 595 54 595 54 550 67 c 0,42,43
 530 73 530 73 494 72 c 0,44,45
 465 72 465 72 453 71 c 0,46,47
 420 68 420 68 404 67 c 0,48,49
 393 66 393 66 393 68 c 0,50,51
 393 69 393 69 397 71 c 0,52,53
 425 85 425 85 440 103 c 0,54,55
 456 121 456 121 462 146 c 0,56,57
 469 171 469 171 470.5 215 c 128,-1,58
 472 259 472 259 471 411 c 0,59,60
 471 560 471 560 470 565 c 0,61,62
 466 580 466 580 456 580 c 128,-1,63
 446 580 446 580 421 563 c 0,64,65
 408 555 408 555 402 552 c 2,66,-1
 397 550 l 1,67,-1
 393 552 l 2,68,69
 370 563 370 563 349 599 c 0,70,71
 339 615 339 615 337 626 c 2,72,-1
 337 630 l 1,73,-1
 343 627 l 2,74,75
 367 615 367 615 398 618 c 0,76,77
 435 622 435 622 477 650 c 0,78,79
 494 662 494 662 516 680 c 0,80,81
 542 704 542 704 569 731 c 0,0,1
EndSplineSet
EndChar

StartChar: two
Encoding: 50 50 5
Width: 1000
GlyphClass: 1
Flags: W
LayerCount: 2
Fore
SplineSet
450 740 m 0,0,1
 456 741 456 741 474 741 c 0,2,3
 507 740 507 740 543 726 c 0,4,5
 586 709 586 709 611 688 c 0,6,7
 642 662 642 662 663 623 c 0,8,9
 679 594 679 594 684 558 c 0,10,11
 689 528 689 528 683 498 c 0,12,13
 670 425 670 425 598 346 c 0,14,15
 577 324 577 324 507 261 c 0,16,17
 454 213 454 213 433.5 192.5 c 128,-1,18
 413 172 413 172 398 153 c 2,19,-1
 391 144 l 1,20,-1
 396 145 l 2,21,22
 429 149 429 149 494 144 c 0,23,24
 522 142 522 142 551 142 c 0,25,26
 590 142 590 142 611 149 c 0,27,28
 628 155 628 155 640 163.5 c 128,-1,29
 652 172 652 172 675 195 c 0,30,31
 691 210 691 210 702 220 c 0,32,33
 731 244 731 244 733 244 c 0,34,35
 734 244 734 244 731 241 c 0,36,37
 718 225 718 225 704 188 c 0,38,39
 692 159 692 159 676 101 c 0,40,41
 672 84 672 84 668 72 c 0,42,43
 657 39 657 39 633 6 c 0,44,45
 626 -3 626 -3 627 -24 c 0,46,47
 629 -59 629 -59 647 -78 c 0,48,49
 665 -96 665 -96 687 -94 c 0,50,51
 708 -93 708 -93 718 -75 c 0,52,53
 720 -71 720 -71 720 -62 c 128,-1,54
 720 -53 720 -53 717 -46 c 0,55,56
 708 -29 708 -29 685 -29 c 0,57,58
 675 -29 675 -29 670 -31 c 128,-1,59
 665 -33 665 -33 664.5 -33 c 128,-1,60
 664 -33 664 -33 666 -30 c 0,61,62
 680 -10 680 -10 702 -7 c 0,63,64
 721 -4 721 -4 738.5 -17.5 c 128,-1,65
 756 -31 756 -31 760 -53 c 0,66,67
 763 -65 763 -65 760 -77 c 0,68,69
 756 -99 756 -99 740 -115 c 0,70,71
 722 -133 722 -133 696 -139 c 0,72,73
 673 -144 673 -144 651 -139 c 0,74,75
 595 -124 595 -124 581 -74 c 0,76,77
 578 -66 578 -66 576 -50 c 0,78,79
 572 -23 572 -23 561 -13 c 0,80,81
 556 -8 556 -8 525 9 c 128,-1,82
 494 26 494 26 476 33 c 0,83,84
 428 54 428 54 384 56 c 0,85,86
 360 56 360 56 337 51 c 0,87,88
 276 38 276 38 235 -9 c 0,89,90
 218 -28 218 -28 209 -47 c 0,91,92
 206 -53 206 -53 206 -53 c 129,-1,93
 206 -53 206 -53 206 -49 c 128,-1,94
 206 -45 206 -45 206 -39 c 0,95,96
 211 48 211 48 290 152 c 0,97,98
 332 209 332 209 416 293 c 0,99,100
 473 351 473 351 500 385 c 0,101,102
 535 429 535 429 548 468 c 0,103,104
 558 498 558 498 555 526 c 0,105,106
 550 574 550 574 520.5 608 c 128,-1,107
 491 642 491 642 448 649 c 0,108,109
 426 653 426 653 406 649 c 0,110,111
 369 641 369 641 348 605.5 c 128,-1,112
 327 570 327 570 338 533 c 0,113,114
 353 486 353 486 405 474 c 2,115,-1
 415 472 l 1,116,-1
 408 470 l 1,117,118
 349 447 349 447 308 486 c 0,119,120
 291 502 291 502 283 526 c 0,121,122
 273 556 273 556 282 591 c 0,123,124
 292 631 292 631 325 669 c 0,125,126
 353 702 353 702 393 722 c 0,127,128
 421 736 421 736 450 740 c 0,0,1
EndSplineSet
EndChar

StartChar: three
Encoding: 51 51 6
Width: 1000
GlyphClass: 1
Flags: W
LayerCount: 2
Fore
SplineSet
625 -14 m 0,0,1
 633 -13 633 -13 653 -13 c 128,-1,2
 673 -13 673 -13 682 -16 c 0,3,4
 732 -31 732 -31 730 -80 c 0,5,6
 728 -123 728 -123 683 -146 c 0,7,8
 666 -154 666 -154 651 -156 c 2,9,-1
 646 -156 l 1,10,-1
 650 -153 l 2,11,12
 666 -140 666 -140 667.5 -124 c 128,-1,13
 669 -108 669 -108 655 -95 c 0,14,15
 638 -79 638 -79 608 -77 c 0,16,17
 574 -75 574 -75 510 -101 c 0,18,19
 469 -117 469 -117 442 -118 c 0,20,21
 426 -118 426 -118 417 -117 c 0,22,23
 405 -114 405 -114 391.5 -109 c 128,-1,24
 378 -104 378 -104 377 -101 c 0,25,26
 377 -100 377 -100 379 -101 c 0,27,28
 384 -102 384 -102 401 -102 c 128,-1,29
 418 -102 418 -102 424 -101 c 0,30,31
 459 -96 459 -96 517 -63 c 0,32,33
 562 -37 562 -37 583.5 -27.5 c 128,-1,34
 605 -18 605 -18 625 -14 c 0,0,1
366 757 m 0,35,36
 372 759 372 759 372 759 c 1,37,-1
 369 751 l 2,38,39
 361 737 361 737 361 723 c 0,40,41
 361 715 361 715 363 709 c 0,42,43
 373 689 373 689 410 682 c 0,44,45
 434 678 434 678 459 679 c 0,46,47
 496 681 496 681 658 682 c 0,48,49
 707 682 707 682 707.5 681 c 128,-1,50
 708 680 708 680 659.5 630.5 c 128,-1,51
 611 581 611 581 582 551 c 128,-1,52
 553 521 553 521 541 509.5 c 128,-1,53
 529 498 529 498 529 497 c 128,-1,54
 529 496 529 496 530.5 494 c 128,-1,55
 532 492 532 492 546 491 c 0,56,57
 632 482 632 482 687 429 c 0,58,59
 739 379 739 379 751 303 c 0,60,61
 755 273 755 273 752 240 c 0,62,63
 740 144 740 144 670 73 c 0,64,65
 649 52 649 52 624 36 c 0,66,67
 546 -15 546 -15 456 -28 c 0,68,69
 443 -30 443 -30 418 -30 c 128,-1,70
 393 -30 393 -30 381 -28 c 0,71,72
 325 -19 325 -19 283.5 13 c 128,-1,73
 242 45 242 45 227 91 c 0,74,75
 220 112 220 112 219 138 c 0,76,77
 218 167 218 167 226 190 c 0,78,79
 238 225 238 225 264.5 248 c 128,-1,80
 291 271 291 271 325 276 c 0,81,82
 339 278 339 278 358 275 c 0,83,84
 396 268 396 268 412 236 c 0,85,86
 421 217 421 217 419 215 c 0,87,88
 418 214 418 214 413 217.5 c 128,-1,89
 408 221 408 221 401.5 223.5 c 128,-1,90
 395 226 395 226 384 226 c 128,-1,91
 373 226 373 226 367 224 c 0,92,93
 340 215 340 215 327 189 c 0,94,95
 318 171 318 171 318 148 c 0,96,97
 318 131 318 131 321 121 c 0,98,99
 332 79 332 79 365 54.5 c 128,-1,100
 398 30 398 30 442 25 c 0,101,102
 473 21 473 21 501 27 c 0,103,104
 559 38 559 38 599.5 74.5 c 128,-1,105
 640 111 640 111 654 164 c 0,106,107
 660 187 660 187 660 218 c 0,108,109
 660 244 660 244 657 254 c 0,110,111
 644 317 644 317 600 360 c 0,112,113
 574 386 574 386 541 402 c 0,114,115
 497 423 497 423 447 423 c 0,116,117
 426 423 426 423 403 418 c 0,118,119
 387 414 387 414 386 419 c 0,120,121
 386 421 386 421 449 485 c 0,122,123
 557 593 557 593 558 598 c 1,124,125
 558 598 558 598 554.5 598.5 c 128,-1,126
 551 599 551 599 541.5 599 c 128,-1,127
 532 599 532 599 516.5 599 c 128,-1,128
 501 599 501 599 475 599 c 2,129,-1
 392 600 l 1,130,-1
 381 597 l 2,131,132
 362 593 362 593 346 582 c 0,133,134
 331 571 331 571 320 554 c 0,135,136
 315 546 315 546 314 546 c 128,-1,137
 313 546 313 546 312 561 c 0,138,139
 310 569 310 569 307 591 c 0,140,141
 295 658 295 658 298 678 c 0,142,143
 304 718 304 718 340 743 c 0,144,145
 354 752 354 752 366 757 c 0,35,36
EndSplineSet
EndChar

StartChar: four
Encoding: 52 52 7
Width: 1000
GlyphClass: 1
Flags: W
LayerCount: 2
Fore
SplineSet
582 731 m 0,0,1
 597 738 597 738 598 734 c 0,2,3
 599 733 599 733 595 720.5 c 128,-1,4
 591 708 591 708 586 683 c 0,5,6
 574 624 574 624 546 575 c 0,7,8
 494 485 494 485 413 395 c 0,9,10
 360 337 360 337 321 299 c 0,11,12
 307 285 307 285 307.5 284 c 128,-1,13
 308 283 308 283 399 283 c 2,14,-1
 490 283 l 1,15,-1
 490 372 l 1,16,-1
 490 461 l 1,17,-1
 497 471 l 2,18,19
 547 538 547 538 578 598 c 0,20,21
 581 606 581 606 582 606 c 128,-1,22
 583 606 583 606 583 444 c 2,23,-1
 583 283 l 1,24,-1
 606 284 l 2,25,26
 628 284 628 284 636 286 c 0,27,28
 672 296 672 296 704 327 c 0,29,30
 714 336 714 336 715 336 c 0,31,32
 716 334 716 334 707 311 c 0,33,34
 687 257 687 257 679 216 c 0,35,36
 673 182 673 182 673 173 c 0,37,38
 673 172 673 172 671.5 172 c 128,-1,39
 670 172 670 172 666 180 c 0,40,41
 657 197 657 197 643 203 c 0,42,43
 631 209 631 209 603 210 c 2,44,-1
 582 210 l 1,45,-1
 582 172 l 2,46,47
 582 124 582 124 586 110 c 0,48,49
 594 81 594 81 628 67 c 0,50,51
 637 63 637 63 637.5 62 c 128,-1,52
 638 61 638 61 629 56 c 0,53,54
 607 44 607 44 584 21 c 0,55,56
 569 7 569 7 568 6.5 c 128,-1,57
 567 6 567 6 558 11 c 0,58,59
 524 34 524 34 487 29 c 0,60,61
 466 26 466 26 451 15 c 0,62,63
 431 1 431 1 425.5 -22.5 c 128,-1,64
 420 -46 420 -46 432 -63 c 0,65,66
 448 -85 448 -85 481 -81 c 0,67,68
 509 -77 509 -77 567 -37 c 0,69,70
 599 -15 599 -15 619.5 -6.5 c 128,-1,71
 640 2 640 2 661 2 c 0,72,73
 698 3 698 3 719 -17 c 0,74,75
 737 -32 737 -32 737 -56 c 0,76,77
 737 -79 737 -79 722 -99 c 0,78,79
 712 -111 712 -111 696.5 -120 c 128,-1,80
 681 -129 681 -129 667 -129 c 0,81,82
 662 -129 662 -129 659 -128 c 0,83,84
 657 -128 657 -128 661 -126 c 0,85,86
 662 -126 662 -126 664 -125 c 0,87,88
 689 -117 689 -117 698 -99 c 0,89,90
 702 -91 702 -91 702 -84 c 0,91,92
 702 -72 702 -72 695 -63 c 0,93,94
 683 -48 683 -48 659 -46 c 0,95,96
 626 -44 626 -44 563 -81 c 0,97,98
 530 -101 530 -101 511.5 -107.5 c 128,-1,99
 493 -114 493 -114 469 -114 c 0,100,101
 439 -114 439 -114 419 -102 c 0,102,103
 403 -92 403 -92 396 -79 c 0,104,105
 376 -44 376 -44 395 -4 c 0,106,107
 405 18 405 18 435 43 c 0,108,109
 469 71 469 71 481 97 c 0,110,111
 491 118 491 118 490 178 c 2,112,-1
 490 210 l 1,113,-1
 368 210 l 2,114,115
 247 210 247 210 230 209 c 128,-1,116
 213 208 213 208 212 208.5 c 128,-1,117
 211 209 211 209 206.5 218 c 128,-1,118
 202 227 202 227 201 231 c 2,119,-1
 200 235 l 1,120,-1
 210 246 l 2,121,122
 219 256 219 256 248.5 286 c 128,-1,123
 278 316 278 316 289 328 c 0,124,125
 328 371 328 371 372 435 c 128,-1,126
 416 499 416 499 442 551 c 0,127,128
 475 617 475 617 466 638 c 0,129,130
 463 647 463 647 453 652 c 2,131,-1
 448 655 l 1,132,133
 449 656 449 656 457 660 c 0,134,135
 476 668 476 668 536 704 c 0,136,137
 572 726 572 726 582 731 c 0,0,1
EndSplineSet
EndChar

StartChar: five
Encoding: 53 53 8
Width: 1000
GlyphClass: 1
Flags: W
LayerCount: 2
Fore
SplineSet
360 735 m 0,0,1
 373 745 373 745 373 743 c 0,2,3
 373 742 373 742 369 736 c 0,4,5
 352 712 352 712 358 691 c 0,6,7
 366 670 366 670 400 658 c 0,8,9
 455 641 455 641 539 646 c 0,10,11
 621 651 621 651 688 685 c 0,12,13
 703 693 703 693 704 692 c 256,14,15
 705 691 705 691 684 656 c 0,16,17
 680 650 680 650 657 613 c 0,18,19
 625 561 625 561 619 549 c 0,20,21
 617 544 617 544 617 544 c 129,-1,22
 617 544 617 544 609 548 c 0,23,24
 595 553 595 553 579 554.5 c 128,-1,25
 563 556 563 556 504 557 c 0,26,27
 466 558 466 558 458 558.5 c 128,-1,28
 450 559 450 559 418 559 c 2,29,-1
 387 560 l 1,30,-1
 385 546 l 2,31,32
 376 489 376 489 362 427 c 0,33,34
 355 399 355 399 355 398 c 128,-1,35
 355 397 355 397 362 401 c 0,36,37
 419 438 419 438 475 450 c 0,38,39
 567 470 567 470 635 438 c 0,40,41
 693 411 693 411 724 345 c 0,42,43
 735 324 735 324 740 302 c 0,44,45
 755 245 755 245 745 187 c 128,-1,46
 735 129 735 129 703 81 c 0,47,48
 663 20 663 20 592 -27 c 0,49,50
 541 -61 541 -61 486.5 -79.5 c 128,-1,51
 432 -98 432 -98 389 -96 c 0,52,53
 302 -92 302 -92 244 -31 c 0,54,55
 227 -13 227 -13 215 10 c 0,56,57
 199 42 199 42 196 75 c 0,58,59
 189 159 189 159 244 214 c 0,60,61
 283 253 283 253 334 253 c 0,62,63
 370 253 370 253 397 234 c 0,64,65
 412 224 412 224 421 211 c 0,66,67
 427 203 427 203 427 201.5 c 128,-1,68
 427 200 427 200 421 196 c 0,69,70
 399 181 399 181 380 150 c 0,71,72
 375 141 375 141 374 141 c 128,-1,73
 373 141 373 141 371 147 c 0,74,75
 366 162 366 162 353.5 173.5 c 128,-1,76
 341 185 341 185 326 189 c 0,77,78
 303 193 303 193 284.5 179 c 128,-1,79
 266 165 266 165 260 137 c 0,80,81
 257 119 257 119 260 97 c 0,82,83
 268 56 268 56 300 24 c 0,84,85
 353 -30 353 -30 439 -27 c 0,86,87
 503 -25 503 -25 552 12 c 0,88,89
 576 29 576 29 593 52 c 0,90,91
 627 97 627 97 634 154 c 0,92,93
 636 167 636 167 635 187 c 0,94,95
 635 213 635 213 629 235 c 0,96,97
 613 298 613 298 563 342 c 0,98,99
 538 364 538 364 504 376 c 128,-1,100
 470 388 470 388 438 387 c 0,101,102
 389 384 389 384 334 349 c 0,103,104
 302 329 302 329 281 313 c 0,105,106
 273 307 273 307 273 311 c 2,107,108
 273 311 273 311 278 321 c 0,109,110
 291 343 291 343 300 371 c 0,111,112
 323 443 323 443 323 545 c 0,113,114
 323 585 323 585 317 633 c 0,115,116
 316 644 316 644 316 659 c 128,-1,117
 316 674 316 674 317 679 c 0,118,119
 321 693 321 693 330 706 c 0,120,121
 340 719 340 719 360 735 c 0,0,1
EndSplineSet
EndChar

StartChar: six
Encoding: 54 54 9
Width: 1000
GlyphClass: 1
Flags: W
LayerCount: 2
Fore
SplineSet
660 36 m 0,0,1
 669 38 669 38 686 38 c 128,-1,2
 703 38 703 38 712 35 c 0,3,4
 743 26 743 26 762 3 c 128,-1,5
 781 -20 781 -20 781 -49 c 0,6,7
 782 -89 782 -89 750 -121 c 0,8,9
 727 -144 727 -144 698 -149 c 0,10,11
 692 -150 692 -150 678.5 -149.5 c 128,-1,12
 665 -149 665 -149 660 -148 c 0,13,14
 640 -142 640 -142 627 -128 c 128,-1,15
 614 -114 614 -114 614 -98 c 2,16,-1
 614 -91 l 1,17,-1
 618 -98 l 2,18,19
 626 -115 626 -115 644 -122 c 0,20,21
 650 -124 650 -124 662 -124 c 128,-1,22
 674 -124 674 -124 681 -122 c 0,23,24
 717 -112 717 -112 724 -81 c 0,25,26
 728 -60 728 -60 715 -42 c 0,27,28
 704 -28 704 -28 679.5 -24.5 c 128,-1,29
 655 -21 655 -21 630 -29 c 0,30,31
 607 -37 607 -37 561 -67 c 0,32,33
 527 -90 527 -90 508 -100 c 0,34,35
 454 -127 454 -127 415 -116 c 0,36,37
 397 -111 397 -111 386 -101 c 2,38,-1
 384 -98 l 1,39,40
 393 -101 393 -101 411.5 -101 c 128,-1,41
 430 -101 430 -101 441 -99 c 0,42,43
 456 -95 456 -95 469 -88 c 0,44,45
 484 -80 484 -80 496 -71 c 0,46,47
 505 -64 505 -64 543 -34 c 0,48,49
 570 -12 570 -12 591 3 c 0,50,51
 625 28 625 28 660 36 c 0,0,1
405 765 m 2,52,53
 405 765 405 765 413 767 c 1,54,-1
 412 766 l 2,55,56
 401 758 401 758 391 743 c 0,57,58
 377 723 377 723 376 698 c 0,59,60
 375 670 375 670 390 655 c 0,61,62
 400 645 400 645 416 640 c 0,63,64
 423 638 423 638 436 636 c 0,65,66
 443 635 443 635 465.5 635 c 128,-1,67
 488 635 488 635 492 636 c 0,68,69
 495 637 495 637 502 638 c 0,70,71
 519 640 519 640 545 647 c 0,72,73
 588 657 588 657 623 662 c 0,74,75
 634 663 634 663 649.5 663.5 c 128,-1,76
 665 664 665 664 677 663.5 c 128,-1,77
 689 663 689 663 688 662 c 0,78,79
 688 661 688 661 683 657 c 0,80,81
 674 652 674 652 659.5 637 c 128,-1,82
 645 622 645 622 637 609 c 0,83,84
 623 587 623 587 611 545 c 0,85,86
 603 514 603 514 595 506 c 0,87,88
 583 493 583 493 573 490 c 0,89,90
 572 489 572 489 572 489.5 c 128,-1,91
 572 490 572 490 573 492 c 0,92,93
 577 501 577 501 576 518 c 128,-1,94
 575 535 575 535 569 546 c 0,95,96
 558 568 558 568 536.5 578 c 128,-1,97
 515 588 515 588 492 582 c 0,98,99
 458 573 458 573 426 534 c 0,100,101
 397 497 397 497 378 433 c 0,102,103
 368 401 368 401 366 387 c 0,104,105
 365 383 365 383 363 370 c 0,106,107
 362 363 362 363 361 356 c 128,-1,108
 360 349 360 349 359.5 344.5 c 128,-1,109
 359 340 359 340 359 340 c 1,110,111
 360 340 360 340 363 344 c 0,112,113
 371 356 371 356 390 372 c 0,114,115
 422 399 422 399 466.5 414 c 128,-1,116
 511 429 511 429 553 428 c 0,117,118
 579 427 579 427 599 420 c 0,119,120
 646 404 646 404 675 365 c 0,121,122
 695 338 695 338 707 300 c 0,123,124
 716 268 716 268 715 231 c 0,125,126
 714 169 714 169 681 113 c 0,127,128
 668 91 668 91 645 67.5 c 128,-1,129
 622 44 622 44 600 30 c 0,130,131
 593 26 593 26 588 23 c 0,132,133
 560 5 560 5 513 -3 c 0,134,135
 485 -8 485 -8 457 -5 c 0,136,137
 389 3 389 3 346 41 c 0,138,139
 297 83 297 83 276 147 c 0,140,141
 265 180 265 180 262 197 c 0,142,143
 262 201 262 201 261 203 c 0,144,145
 248 279 248 279 259 349 c 0,146,147
 277 465 277 465 341 553 c 2,148,-1
 349 564 l 1,149,-1
 340 572 l 2,150,151
 309 602 309 602 308 643.5 c 128,-1,152
 307 685 307 685 336 717 c 0,153,154
 352 735 352 735 368 746 c 0,155,156
 387 759 387 759 405 765 c 2,52,53
499 351 m 0,157,158
 479 357 479 357 460 354 c 0,159,160
 421 348 421 348 398 313 c 0,161,162
 384 290 384 290 378.5 259 c 128,-1,163
 373 228 373 228 378 198 c 0,164,165
 384 159 384 159 401 125 c 0,166,167
 413 101 413 101 429 85 c 0,168,169
 445 68 445 68 463 59 c 128,-1,170
 481 50 481 50 501 50 c 0,171,172
 519 50 519 50 535 57 c 0,173,174
 559 68 559 68 577 93 c 128,-1,175
 595 118 595 118 603 150 c 0,176,177
 605 160 605 160 606 164 c 0,178,179
 606 166 606 166 606.5 169.5 c 128,-1,180
 607 173 607 173 607 175 c 0,181,182
 611 198 611 198 607 220 c 0,183,184
 605 231 605 231 604 233 c 0,185,186
 604 235 604 235 603 239 c 0,187,188
 596 266 596 266 580 290 c 0,189,190
 546 339 546 339 499 351 c 0,157,158
EndSplineSet
EndChar

StartChar: seven
Encoding: 55 55 10
Width: 1000
GlyphClass: 1
Flags: W
LayerCount: 2
Fore
SplineSet
593 65 m 0,0,1
 626 69 626 69 653.5 53 c 128,-1,2
 681 37 681 37 689 8 c 0,3,4
 698 -21 698 -21 685 -47 c 0,5,6
 667 -82 667 -82 627 -94 c 0,7,8
 589 -105 589 -105 559 -89 c 2,9,-1
 552 -86 l 1,10,-1
 563 -85 l 2,11,12
 597 -83 597 -83 622 -65 c 0,13,14
 656 -39 656 -39 649 -5 c 0,15,16
 647 9 647 9 636 19.5 c 128,-1,17
 625 30 625 30 610 33 c 0,18,19
 589 37 589 37 566 30 c 0,20,21
 526 16 526 16 465 -33 c 0,22,23
 426 -64 426 -64 426 -64 c 2,24,25
 424 -62 424 -62 448 -34 c 0,26,27
 470 -8 470 -8 495 13 c 0,28,29
 548 59 548 59 593 65 c 0,0,1
358 748 m 0,30,31
 364 751 364 751 364.5 751 c 128,-1,32
 365 751 365 751 361 746 c 0,33,34
 348 730 348 730 348 709 c 0,35,36
 348 693 348 693 358 682 c 0,37,38
 374 665 374 665 422 659 c 0,39,40
 450 656 450 656 517.5 656.5 c 128,-1,41
 585 657 585 657 628 661 c 0,42,43
 639 662 639 662 651 663 c 0,44,45
 711 669 711 669 732 672 c 2,46,-1
 736 672 l 1,47,-1
 732 669 l 2,48,49
 715 655 715 655 701 637 c 0,50,51
 662 589 662 589 622 490 c 0,52,53
 600 437 600 437 587 391 c 0,54,55
 578 360 578 360 570 326 c 0,56,57
 558 276 558 276 554 255 c 0,58,59
 552 239 552 239 549 224 c 0,60,61
 538 153 538 153 554 131 c 0,62,63
 560 123 560 123 570 121 c 2,64,-1
 574 120 l 1,65,-1
 568 118 l 2,66,67
 540 107 540 107 504 78 c 0,68,69
 464 47 464 47 441.5 23 c 128,-1,70
 419 -1 419 -1 402 -32 c 0,71,72
 396 -42 396 -42 389 -59 c 2,73,-1
 385 -67 l 1,74,-1
 384 -63 l 2,75,76
 381 -38 381 -38 381 0 c 0,77,78
 381 76 381 76 392.5 136.5 c 128,-1,79
 404 197 404 197 433 271 c 0,80,81
 445 302 445 302 470 356 c 0,82,83
 512 442 512 442 535 483 c 0,84,85
 537 486 537 486 543 497 c 0,86,87
 549 509 549 509 576 554 c 0,88,89
 581 564 581 564 582.5 566 c 128,-1,90
 584 568 584 568 584 569 c 128,-1,91
 584 570 584 570 478 570 c 0,92,93
 392 570 392 570 377.5 569 c 128,-1,94
 363 568 363 568 352 565 c 0,95,96
 340 561 340 561 315 541 c 0,97,98
 291 521 291 521 283 517 c 2,99,-1
 279 515 l 1,100,-1
 282 518 l 2,101,102
 293 533 293 533 298 561 c 0,103,104
 303 584 303 584 294 611 c 0,105,106
 282 650 282 650 299 687 c 0,107,108
 317 726 317 726 358 748 c 0,30,31
EndSplineSet
EndChar

StartChar: eight
Encoding: 56 56 11
Width: 1000
GlyphClass: 1
Flags: W
LayerCount: 2
Fore
SplineSet
627 67 m 0,0,1
 633 67 633 67 646 67 c 128,-1,2
 659 67 659 67 665 67 c 0,3,4
 710 61 710 61 734 29 c 0,5,6
 745 15 745 15 749 -4 c 0,7,8
 751 -13 751 -13 751 -25 c 0,9,10
 750 -42 750 -42 746 -53 c 0,11,12
 739 -78 739 -78 721 -99 c 128,-1,13
 703 -120 703 -120 679 -131 c 0,14,15
 648 -146 648 -146 620 -145 c 0,16,17
 588 -144 588 -144 570 -126 c 0,18,19
 556 -112 556 -112 553 -90 c 0,20,21
 551 -83 551 -83 553 -79 c 0,22,23
 559 -66 559 -66 565 -59 c 2,24,-1
 567 -56 l 1,25,-1
 567 -65 l 2,26,27
 568 -89 568 -89 589 -103 c 0,28,29
 619 -123 619 -123 652 -107 c 0,30,31
 672 -97 672 -97 682 -76 c 0,32,33
 700 -42 700 -42 680 -11 c 0,34,35
 657 23 657 23 613 19 c 0,36,37
 589 17 589 17 560 3 c 0,38,39
 541 -6 541 -6 487 -42 c 0,40,41
 425 -83 425 -83 375 -89 c 0,42,43
 365 -90 365 -90 351 -89 c 0,44,45
 283 -87 283 -87 252 -35 c 0,46,47
 242 -19 242 -19 242 -13 c 1,48,49
 242 -13 242 -13 243.5 -14 c 128,-1,50
 245 -15 245 -15 247 -17 c 128,-1,51
 249 -19 249 -19 252 -22 c 0,52,53
 282 -52 282 -52 320 -59 c 0,54,55
 328 -60 328 -60 343 -60 c 128,-1,56
 358 -60 358 -60 365 -59 c 0,57,58
 416 -49 416 -49 491 5 c 0,59,60
 537 38 537 38 570 51 c 0,61,62
 600 64 600 64 627 67 c 0,0,1
380 758 m 0,63,64
 388 762 388 762 389 762 c 128,-1,65
 390 762 390 762 390 761 c 128,-1,66
 390 760 390 760 389 759.5 c 128,-1,67
 388 759 388 759 384 753 c 0,68,69
 362 721 362 721 369 696 c 0,70,71
 375 671 375 671 402 658 c 2,72,-1
 411 654 l 1,73,-1
 419 657 l 2,74,75
 426 660 426 660 439 665 c 0,76,77
 467 677 467 677 489 682 c 0,78,79
 513 687 513 687 540 686 c 0,80,81
 562 686 562 686 582 680 c 0,82,83
 611 672 611 672 633 654.5 c 128,-1,84
 655 637 655 637 664 613 c 0,85,86
 675 586 675 586 670 557 c 0,87,88
 664 520 664 520 627 482 c 0,89,90
 607 461 607 461 580 442 c 2,91,-1
 566 433 l 1,92,93
 568 433 568 433 584 425 c 0,94,95
 629 403 629 403 657 378.5 c 128,-1,96
 685 354 685 354 702 320 c 0,97,98
 712 299 712 299 713 292 c 0,99,100
 713 291 713 291 714 286 c 0,101,102
 723 239 723 239 697 195 c 0,103,104
 679 165 679 165 642.5 136.5 c 128,-1,105
 606 108 606 108 567 92 c 0,106,107
 511 70 511 70 459 70 c 0,108,109
 400 70 400 70 355 91 c 0,110,111
 297 119 297 119 279 172 c 0,112,113
 272 194 272 194 272.5 221.5 c 128,-1,114
 273 249 273 249 281 270 c 0,115,116
 288 288 288 288 299 303 c 0,117,118
 332 353 332 353 402 395 c 2,119,-1
 413 402 l 1,120,-1
 408 404 l 2,121,122
 393 412 393 412 376 425 c 0,123,124
 368 431 368 431 355.5 443.5 c 128,-1,125
 343 456 343 456 339 462 c 0,126,127
 323 484 323 484 320 504 c 0,128,129
 319 508 319 508 318 512 c 0,130,131
 315 531 315 531 320 553 c 0,132,133
 326 576 326 576 338 594 c 2,134,-1
 343 601 l 1,135,-1
 335 609 l 2,136,137
 324 621 324 621 319 636 c 0,138,139
 317 642 317 642 317 657 c 128,-1,140
 317 672 317 672 319 680 c 0,141,142
 325 703 325 703 342.5 725.5 c 128,-1,143
 360 748 360 748 380 758 c 0,63,64
500 638 m 0,144,145
 494 639 494 639 481 639.5 c 128,-1,146
 468 640 468 640 468 639 c 1,147,148
 467 639 467 639 463 638 c 0,149,150
 452 637 452 637 441 630 c 0,151,152
 435 627 435 627 428 620 c 0,153,154
 413 605 413 605 409.5 583 c 128,-1,155
 406 561 406 561 414 540 c 0,156,157
 427 509 427 509 470 481 c 0,158,159
 496 463 496 463 527 450 c 2,160,-1
 535 447 l 1,161,-1
 539 448 l 2,162,163
 550 454 550 454 563.5 467 c 128,-1,164
 577 480 577 480 583 492 c 0,165,166
 593 511 593 511 593 537 c 0,167,168
 593 576 593 576 563 605 c 0,169,170
 536 633 536 633 500 638 c 0,144,145
453.5 378.5 m 128,-1,172
 440 385 440 385 439 385 c 0,173,174
 438 386 438 386 417 369 c 0,175,176
 379 339 379 339 365 295 c 0,177,178
 355 265 355 265 360 237 c 0,179,180
 368 198 368 198 396 169 c 0,181,182
 426 139 426 139 464 127 c 0,183,184
 498 116 498 116 527 118 c 0,185,186
 543 120 543 120 554 123 c 0,187,188
 577 131 577 131 594 149 c 0,189,190
 614 171 614 171 621 205 c 0,191,192
 626 234 626 234 609 268 c 0,193,194
 593 300 593 300 559 323 c 0,195,196
 531 342 531 342 490 361 c 0,197,171
 467 372 467 372 453.5 378.5 c 128,-1,172
EndSplineSet
EndChar

StartChar: nine
Encoding: 57 57 12
Width: 1000
GlyphClass: 1
Flags: W
LayerCount: 2
Fore
SplineSet
665 92 m 0,0,1
 740 99 740 99 766 42 c 0,2,3
 773 28 773 28 773 8 c 0,4,5
 773 -6 773 -6 771 -14 c 0,6,7
 764 -46 764 -46 735 -74 c 0,8,9
 710 -99 710 -99 679 -109 c 0,10,11
 667 -113 667 -113 655.5 -113.5 c 128,-1,12
 644 -114 644 -114 634 -112 c 0,13,14
 595 -104 595 -104 585 -73 c 0,15,16
 581 -59 581 -59 587 -45 c 0,17,18
 592 -33 592 -33 597 -31 c 0,19,20
 598 -30 598 -30 598.5 -30.5 c 128,-1,21
 599 -31 599 -31 598 -32 c 0,22,23
 597 -34 597 -34 596 -40 c 0,24,25
 593 -60 593 -60 611 -73 c 0,26,27
 617 -77 617 -77 619 -78 c 0,28,29
 630 -84 630 -84 646 -86 c 0,30,31
 665 -88 665 -88 684 -79 c 128,-1,32
 703 -70 703 -70 714 -52 c 0,33,34
 727 -31 727 -31 722 -7 c 0,35,36
 719 7 719 7 710 17 c 0,37,38
 693 36 693 36 662 43 c 0,39,40
 638 48 638 48 616 44 c 0,41,42
 583 37 583 37 546 11 c 0,43,44
 532 1 532 1 526 -4 c 0,45,46
 506 -21 506 -21 500 -25 c 0,47,48
 497 -29 497 -29 491 -33 c 0,49,50
 482 -41 482 -41 469 -52 c 0,51,52
 463 -57 463 -57 450.5 -68 c 128,-1,53
 438 -79 438 -79 428 -89 c 0,54,55
 414 -102 414 -102 414 -100 c 1,56,57
 413 -100 413 -100 420 -91 c 0,58,59
 474 -31 474 -31 513 4 c 0,60,61
 521 11 521 11 526 16 c 0,62,63
 540 29 540 29 562 45 c 0,64,65
 620 88 620 88 665 92 c 0,0,1
476 721 m 0,66,67
 481 722 481 722 498 722 c 0,68,69
 519 722 519 722 541 716 c 0,70,71
 604 699 604 699 648 646 c 0,72,73
 670 619 670 619 687 583 c 0,74,75
 698 561 698 561 708 529 c 0,76,77
 712 516 712 516 715 502 c 0,78,79
 723 465 723 465 723 432 c 0,80,81
 724 396 724 396 720 368 c 0,82,83
 719 362 719 362 718.5 357.5 c 128,-1,84
 718 353 718 353 717.5 350.5 c 128,-1,85
 717 348 717 348 716 345 c 0,86,87
 714 327 714 327 705 297 c 0,88,89
 687 231 687 231 652 182 c 0,90,91
 650 178 650 178 649.5 177.5 c 128,-1,92
 649 177 649 177 645 173 c 0,93,94
 629 152 629 152 611 136 c 0,95,96
 597 124 597 124 548 88 c 0,97,98
 512 62 512 62 498 51 c 0,99,100
 490 45 490 45 485 41 c 0,101,102
 469 28 469 28 454 16 c 0,103,104
 445 9 445 9 441 5.5 c 128,-1,105
 437 2 437 2 430 -5 c 0,106,107
 417 -16 417 -16 415 -16 c 128,-1,108
 413 -16 413 -16 412 -3 c 0,109,110
 411 6 411 6 410 8 c 128,-1,111
 409 10 409 10 409.5 10 c 128,-1,112
 410 10 410 10 407 17 c 0,113,114
 392 47 392 47 347 72 c 0,115,116
 316 89 316 89 284.5 93 c 128,-1,117
 253 97 253 97 235 87 c 0,118,119
 213 72 213 72 213 37 c 0,120,121
 212 27 212 27 212 27 c 2,122,123
 209 27 209 27 205 43 c 0,124,125
 203 48 203 48 203.5 62 c 128,-1,126
 204 76 204 76 206 83 c 0,127,128
 215 115 215 115 246.5 141.5 c 128,-1,129
 278 168 278 168 317 177 c 0,130,131
 327 180 327 180 346 179.5 c 128,-1,132
 365 179 365 179 375 177 c 0,133,134
 379 176 379 176 381 175.5 c 128,-1,135
 383 175 383 175 392 172 c 0,136,137
 416 164 416 164 461 135 c 0,138,139
 504 107 504 107 519 109 c 0,140,141
 533 111 533 111 549 131 c 0,142,143
 569 156 569 156 585 188 c 0,144,145
 602 222 602 222 608 250 c 0,146,147
 615 277 615 277 616 287 c 0,148,149
 617 294 617 294 617.5 296 c 128,-1,150
 618 298 618 298 620 311 c 0,151,152
 621 319 621 319 621.5 338.5 c 128,-1,153
 622 358 622 358 622 372.5 c 128,-1,154
 622 387 622 387 621 390 c 0,155,156
 618 390 618 390 613 384 c 0,157,158
 608 377 608 377 558 340 c 0,159,160
 548 333 548 333 543 329 c 0,161,162
 540 326 540 326 505.5 303 c 128,-1,163
 471 280 471 280 463 275 c 0,164,165
 459 273 459 273 451 273 c 0,166,167
 428 273 428 273 397.5 282.5 c 128,-1,168
 367 292 367 292 343 307 c 0,169,170
 285 343 285 343 259 395 c 0,171,172
 242 430 242 430 237 472 c 0,173,174
 233 514 233 514 252 553 c 0,175,176
 277 601 277 601 317 636 c 0,177,178
 376 687 376 687 425 707 c 0,179,180
 452 718 452 718 476 721 c 0,66,67
438 656 m 0,181,182
 415 661 415 661 397 658 c 0,183,184
 383 656 383 656 374 647 c 0,185,186
 363 635 363 635 356 620 c 0,187,188
 346 601 346 601 341 578 c 0,189,190
 339 568 339 568 339 549.5 c 128,-1,191
 339 531 339 531 341 522 c 0,192,193
 342 517 342 517 342 515 c 0,194,195
 349 479 349 479 373 445 c 0,196,197
 396 410 396 410 427 390 c 0,198,199
 470 362 470 362 515 362 c 0,200,201
 527 362 527 362 536 364 c 0,202,203
 558 371 558 371 585 395 c 0,204,205
 610 417 610 417 615 427 c 0,206,207
 617 431 617 431 616 440 c 0,208,209
 609 481 609 481 587 526 c 0,210,211
 568 565 568 565 549 586 c 0,212,213
 545 590 545 590 540 596 c 0,214,215
 528 610 528 610 510 623 c 0,216,217
 477 648 477 648 438 656 c 0,181,182
EndSplineSet
EndChar

StartChar: A
Encoding: 65 65 13
Width: 1000
GlyphClass: 1
Flags: W
LayerCount: 2
Fore
SplineSet
363 741 m 0,0,1
 375 748 375 748 375 746 c 0,2,3
 375 745 375 745 372 742 c 0,4,5
 362 728 362 728 357 713 c 0,6,7
 354 705 354 705 354 695.5 c 128,-1,8
 354 686 354 686 358 679 c 0,9,10
 363 667 363 667 378 660 c 0,11,12
 394 652 394 652 410 650 c 0,13,14
 458 643 458 643 583 664 c 0,15,16
 646 675 646 675 654 674 c 0,17,18
 657 673 657 673 653 672 c 0,19,20
 634 663 634 663 617 642 c 0,21,22
 600 618 600 618 599 593 c 0,23,24
 598 583 598 583 600 575.5 c 128,-1,25
 602 568 602 568 616 519 c 0,26,27
 645 420 645 420 684 289 c 0,28,29
 699 236 699 236 711 214 c 0,30,31
 730 175 730 175 762 143 c 0,32,33
 795 111 795 111 831 102 c 0,34,35
 839 99 839 99 857 99 c 0,36,37
 880 99 880 99 894 106 c 0,38,39
 901 109 901 109 901 108 c 0,40,41
 902 107 902 107 887.5 87.5 c 128,-1,42
 873 68 873 68 860 52 c 0,43,44
 823 8 823 8 781 -25 c 0,45,46
 772 -32 772 -32 762 -39 c 2,47,-1
 751 -47 l 1,48,-1
 751 -54 l 2,49,50
 750 -67 750 -67 743 -80 c 0,51,52
 728 -110 728 -110 691 -127 c 0,53,54
 668 -138 668 -138 640 -138.5 c 128,-1,55
 612 -139 612 -139 591 -129 c 0,56,57
 551 -111 551 -111 553 -78 c 0,58,59
 554 -64 554 -64 563 -53 c 0,60,61
 570 -46 570 -46 571 -49 c 0,62,63
 562 -71 562 -71 578 -88 c 0,64,65
 598 -107 598 -107 628 -107 c 0,66,67
 663 -107 663 -107 687 -83 c 0,68,69
 705 -66 705 -66 705 -45.5 c 128,-1,70
 705 -25 705 -25 688 -8 c 0,71,72
 675 4 675 4 656 12 c 0,73,74
 606 31 606 31 551 14 c 0,75,76
 527 6 527 6 456 -25 c 0,77,78
 398 -50 398 -50 365 -59 c 0,79,80
 321 -70 321 -70 280 -69 c 0,81,82
 250 -68 250 -68 224 -61 c 0,83,84
 190 -53 190 -53 163 -33.5 c 128,-1,85
 136 -14 136 -14 125 9 c 0,86,87
 116 27 116 27 116 48 c 0,88,89
 116 88 116 88 147 117 c 0,90,91
 167 136 167 136 204 151 c 0,92,93
 232 163 232 163 243 170 c 0,94,95
 248 173 248 173 256 180 c 0,96,97
 272 194 272 194 284.5 215.5 c 128,-1,98
 297 237 297 237 314 281 c 0,99,100
 324 307 324 307 327.5 316 c 128,-1,101
 331 325 331 325 330 325 c 0,102,103
 324 325 324 325 302 315 c 0,104,105
 267 298 267 298 253 274 c 2,106,-1
 250 267 l 1,107,-1
 249 272 l 2,108,109
 249 283 249 283 258 301 c 0,110,111
 281 341 281 341 347 375 c 0,112,113
 353 379 353 379 354.5 382.5 c 128,-1,114
 356 386 356 386 374 434 c 0,115,116
 435 593 435 593 433 594 c 0,117,118
 428 597 428 597 412 597 c 0,119,120
 397 597 397 597 383 589 c 128,-1,121
 369 581 369 581 363 570 c 0,122,123
 361 566 361 566 360.5 566 c 128,-1,124
 360 566 360 566 359 571 c 0,125,126
 357 583 357 583 337 604 c 0,127,128
 324 618 324 618 320 623 c 0,129,130
 300 652 300 652 316 691 c 0,131,132
 329 724 329 724 363 741 c 0,0,1
522 484.5 m 128,-1,134
 494 578 494 578 494 578 c 1,135,-1
 493 577 l 2,136,137
 492 576 492 576 484 553 c 0,138,139
 479 539 479 539 464.5 500.5 c 128,-1,140
 450 462 450 462 443 443 c 0,141,142
 431 411 431 411 425 395.5 c 128,-1,143
 419 380 419 380 419.5 379.5 c 128,-1,144
 420 379 420 379 444 378 c 0,145,146
 495 377 495 377 517 381 c 0,147,148
 541 385 541 385 548 390 c 0,149,133
 550 391 550 391 522 484.5 c 128,-1,134
582 285 m 128,-1,151
 559 360 559 360 559 361 c 0,152,153
 556 363 556 363 526 342 c 0,154,155
 508 329 508 329 499 319 c 2,156,-1
 495 315 l 1,157,-1
 486 319 l 2,158,159
 472 326 472 326 461.5 327.5 c 128,-1,160
 451 329 451 329 426 330 c 2,161,-1
 400 330 l 1,162,-1
 393 311 l 2,163,164
 360 223 360 223 358 213 c 0,165,166
 351 189 351 189 360 171 c 0,167,168
 365 159 365 159 379 153 c 0,169,170
 392 147 392 147 410 144 c 2,171,-1
 415 144 l 1,172,-1
 410 141 l 1,173,174
 364 120 364 120 350 106 c 0,175,176
 342 99 342 99 341.5 99 c 128,-1,177
 341 99 341 99 335 103 c 0,178,179
 315 116 315 116 280 121 c 0,180,181
 218 129 218 129 189 93 c 0,182,183
 174 75 174 75 174 50 c 0,184,185
 174 38 174 38 178 29 c 0,186,187
 191 -6 191 -6 235 -21 c 0,188,189
 255 -29 255 -29 285 -29 c 0,190,191
 313 -29 313 -29 337 -24 c 0,192,193
 366 -18 366 -18 431 11 c 0,194,195
 525 53 525 53 573 61 c 0,196,197
 582 63 582 63 601.5 63.5 c 128,-1,198
 621 64 621 64 630 63 c 0,199,200
 649 60 649 60 669 54 c 0,201,202
 728 34 728 34 748 -17 c 0,203,204
 749 -20 749 -20 753 -14 c 0,205,206
 762 -3 762 -3 765 11 c 0,207,208
 771 31 771 31 765 52 c 0,209,210
 753 94 753 94 690 119 c 0,211,212
 645 137 645 137 578 133 c 1,213,-1
 567 133 l 1,214,215
 569 134 569 134 578 140 c 0,216,217
 601 154 601 154 606 171 c 0,218,219
 607 176 607 176 607 186.5 c 128,-1,220
 607 197 607 197 606 203 c 0,221,150
 605 210 605 210 582 285 c 128,-1,151
EndSplineSet
EndChar

StartChar: B
Encoding: 66 66 14
Width: 1000
GlyphClass: 1
Flags: W
LayerCount: 2
Fore
SplineSet
322 758 m 1,0,1
 322 758 322 758 326 758 c 1,2,3
 326 757 326 757 322 753 c 0,4,5
 310 741 310 741 305 728 c 0,6,7
 303 721 303 721 303 711 c 128,-1,8
 303 701 303 701 307 693 c 0,9,10
 318 671 318 671 350 663 c 0,11,12
 360 660 360 660 382 660 c 0,13,14
 407 660 407 660 425 663 c 128,-1,15
 443 666 443 666 503 680 c 0,16,17
 536 688 536 688 564 688 c 128,-1,18
 592 688 592 688 608 683 c 0,19,20
 632 676 632 676 654 655 c 0,21,22
 690 619 690 619 688 569 c 0,23,24
 687 546 687 546 676 524 c 0,25,26
 666 502 666 502 651 488 c 0,27,28
 637 474 637 474 614 461 c 0,29,30
 608 457 608 457 602.5 453 c 128,-1,31
 597 449 597 449 594 446 c 128,-1,32
 591 443 591 443 591.5 442.5 c 128,-1,33
 592 442 592 442 602 439 c 0,34,35
 638 430 638 430 665 413 c 0,36,37
 729 371 729 371 743 302 c 0,38,39
 752 258 752 258 738 214 c 0,40,41
 730 191 730 191 710 164 c 0,42,43
 682 127 682 127 634 101 c 0,44,45
 593 79 593 79 523 49 c 0,46,47
 504 41 504 41 501.5 42 c 128,-1,48
 499 43 499 43 477 58 c 0,49,50
 402 106 402 106 346 127 c 0,51,52
 294 146 294 146 251 146 c 0,53,54
 223 146 223 146 204 137 c 0,55,56
 195 133 195 133 187 125 c 128,-1,57
 179 117 179 117 174.5 107.5 c 128,-1,58
 170 98 170 98 169 93 c 256,59,60
 168 88 168 88 168 78 c 128,-1,61
 168 68 168 68 169 63 c 0,62,63
 176 34 176 34 209 10 c 128,-1,64
 242 -14 242 -14 285 -21 c 0,65,66
 295 -22 295 -22 318.5 -22.5 c 128,-1,67
 342 -23 342 -23 353 -22 c 0,68,69
 393 -19 393 -19 437 -4 c 0,70,71
 478 10 478 10 567 50 c 0,72,73
 606 68 606 68 628 75 c 0,74,75
 732 110 732 110 794 66 c 0,76,77
 820 48 820 48 829 18 c 0,78,79
 831 9 831 9 831 -5 c 128,-1,80
 831 -19 831 -19 829 -30 c 0,81,82
 821 -64 821 -64 794 -90 c 0,83,84
 766 -118 766 -118 726 -125 c 0,85,86
 718 -126 718 -126 704 -126 c 128,-1,87
 690 -126 690 -126 684 -125 c 0,88,89
 666 -121 666 -121 653.5 -109 c 128,-1,90
 641 -97 641 -97 641 -92 c 1,91,92
 641 -92 641 -92 645 -95 c 0,93,94
 666 -111 666 -111 699 -111 c 0,95,96
 720 -110 720 -110 737 -103 c 0,97,98
 757 -94 757 -94 768.5 -76.5 c 128,-1,99
 780 -59 780 -59 780 -38 c 0,100,101
 780 -15 780 -15 763 2 c 0,102,103
 754 11 754 11 743 16 c 0,104,105
 714 31 714 31 672 31 c 0,106,107
 642 31 642 31 609 23 c 0,108,109
 573 14 573 14 515 -11 c 0,110,111
 437 -45 437 -45 407 -54 c 0,112,113
 306 -83 306 -83 224 -54 c 0,114,115
 172 -35 172 -35 143 4 c 0,116,117
 120 34 120 34 121 68 c 0,118,119
 123 110 123 110 156 144 c 0,120,121
 179 168 179 168 212 184 c 0,122,123
 249 203 249 203 300 209 c 0,124,125
 316 211 316 211 321 213 c 0,126,127
 331 217 331 217 340.5 227.5 c 128,-1,128
 350 238 350 238 354 250 c 0,129,130
 359 266 359 266 360 329 c 2,131,-1
 361 371 l 1,132,-1
 358 371 l 2,133,134
 352 371 352 371 325 355 c 0,135,136
 279 326 279 326 263 292 c 0,137,138
 259 285 259 285 258 282 c 2,139,-1
 257 280 l 1,140,-1
 256 283 l 2,141,142
 252 292 252 292 255 308 c 0,143,144
 260 339 260 339 294 372 c 0,145,146
 316 393 316 393 350 410 c 2,147,-1
 360 416 l 1,148,-1
 361 437 l 2,149,150
 363 490 363 490 359 514 c 0,151,152
 357 534 357 534 341 552 c 0,153,154
 337 557 337 557 337 557.5 c 128,-1,155
 337 558 337 558 343 563 c 128,-1,156
 349 568 349 568 354 573 c 0,157,158
 364 584 364 584 364 589 c 0,159,160
 364 591 364 591 346 588 c 0,161,162
 334 585 334 585 326 586 c 0,163,164
 274 592 274 592 259 642 c 0,165,166
 256 649 256 649 256 665.5 c 128,-1,167
 256 682 256 682 259 690 c 0,168,169
 266 714 266 714 284 733 c 0,170,171
 302 750 302 750 322 758 c 1,0,1
530 632 m 0,172,173
 515 636 515 636 497 634 c 0,174,175
 481 632 481 632 455 624 c 2,176,-1
 446 621 l 1,177,-1
 446 586 l 2,178,179
 445 550 445 550 445 494 c 2,180,-1
 444 438 l 1,181,-1
 474 438 l 2,182,183
 513 439 513 439 526 443 c 0,184,185
 556 454 556 454 574 481 c 0,186,187
 591 507 591 507 594 537.5 c 128,-1,188
 597 568 597 568 584 590 c 0,189,190
 576 604 576 604 565 614 c 0,191,192
 551 626 551 626 530 632 c 0,172,173
500 398 m 0,193,194
 487 400 487 400 467 399.5 c 128,-1,195
 447 399 447 399 445 397 c 0,196,197
 444 396 444 396 444 377 c 0,198,199
 443 358 443 358 442 312 c 0,200,201
 442 271 442 271 440.5 264 c 128,-1,202
 439 257 439 257 429 248 c 0,203,204
 415 234 415 234 384 208 c 0,205,206
 381 205 381 205 381 204.5 c 128,-1,207
 381 204 381 204 390 203 c 0,208,209
 408 199 408 199 436 187 c 0,210,211
 464 176 464 176 513 147 c 0,212,213
 543 129 543 129 553 127 c 0,214,215
 584 120 584 120 610 144 c 0,216,217
 645 177 645 177 649 231 c 0,218,219
 653 273 653 273 633 311 c 128,-1,220
 613 349 613 349 575 372 c 0,221,222
 543 391 543 391 500 398 c 0,193,194
EndSplineSet
EndChar

StartChar: C
Encoding: 67 67 15
Width: 1000
GlyphClass: 1
Flags: W
LayerCount: 2
Fore
SplineSet
0 300 m 1,0,1
 0 300 0 300 1 600 c 1,2,3
 1 553 1 553 1 399 c 2,4,-1
 1 -3 l 1,5,-1
 234 -3 l 1,6,-1
 457 -1 l 1,7,8
 456 -1 456 -1 454 -1 c 0,9,10
 442 1 442 1 435.5 2.5 c 128,-1,11
 429 4 429 4 425 4.5 c 128,-1,12
 421 5 421 5 414 7 c 0,13,14
 361 23 361 23 319 55 c 0,15,16
 293 76 293 76 274 100 c 0,17,18
 268 107 268 107 266.5 109 c 128,-1,19
 265 111 265 111 265 111.5 c 128,-1,20
 265 112 265 112 260 118 c 0,21,22
 251 131 251 131 238.5 156 c 128,-1,23
 226 181 226 181 223 193 c 0,24,25
 222 196 222 196 221.5 197 c 128,-1,26
 221 198 221 198 221 199.5 c 128,-1,27
 221 201 221 201 219 206 c 0,28,29
 212 233 212 233 210 253 c 0,30,31
 210 259 210 259 209 267 c 0,32,33
 208 276 208 276 208 292 c 128,-1,34
 208 308 208 308 209 318 c 0,35,36
 210 327 210 327 210 334 c 0,37,38
 212 352 212 352 217 369 c 0,39,40
 218 372 218 372 218.5 375.5 c 128,-1,41
 219 379 219 379 221 384 c 128,-1,42
 223 389 223 389 222 389 c 256,43,44
 221 389 221 389 230 413 c 0,45,46
 250 466 250 466 295 517 c 0,47,48
 304 528 304 528 321 544 c 128,-1,49
 338 560 338 560 343 563 c 0,50,51
 345 564 345 564 345 564.5 c 128,-1,52
 345 565 345 565 338.5 569 c 128,-1,53
 332 573 332 573 331.5 573.5 c 128,-1,54
 331 574 331 574 326 578 c 0,55,56
 307 591 307 591 300 613 c 0,57,58
 295 627 295 627 297.5 649.5 c 128,-1,59
 300 672 300 672 323.5 697 c 128,-1,60
 347 722 347 722 377 734 c 0,61,62
 381 735 381 735 385 736.5 c 128,-1,63
 389 738 389 738 389 737.5 c 128,-1,64
 389 737 389 737 384 731 c 0,65,66
 368 713 368 713 363 694 c 0,67,68
 361 688 361 688 361.5 678 c 128,-1,69
 362 668 362 668 363 666 c 0,70,71
 364 665 364 665 365 662 c 0,72,73
 366 653 366 653 377 640 c 0,74,75
 383 632 383 632 397.5 623 c 128,-1,76
 412 614 412 614 418 614 c 0,77,78
 425 614 425 614 457 630 c 0,79,80
 477 640 477 640 485 643 c 0,81,82
 517 657 517 657 520 657 c 0,83,84
 521 657 521 657 524 658 c 0,85,86
 526 659 526 659 533.5 661.5 c 128,-1,87
 541 664 541 664 548 666.5 c 128,-1,88
 555 669 555 669 555 669 c 129,-1,89
 555 669 555 669 560 670.5 c 128,-1,90
 565 672 565 672 567.5 672.5 c 128,-1,91
 570 673 570 673 570 673 c 129,-1,92
 570 673 570 673 572 673.5 c 128,-1,93
 574 674 574 674 579.5 676 c 128,-1,94
 585 678 585 678 588.5 678.5 c 128,-1,95
 592 679 592 679 597 680.5 c 128,-1,96
 602 682 602 682 613 683 c 0,97,98
 643 688 643 688 692 675 c 0,99,100
 717 669 717 669 742.5 669 c 128,-1,101
 768 669 768 669 784 676 c 0,102,103
 789 679 789 679 790 679 c 128,-1,104
 791 679 791 679 793 681 c 128,-1,105
 795 683 795 683 796 683 c 0,106,107
 799 683 799 683 784 667 c 0,108,109
 741 622 741 622 715 577 c 0,110,111
 701 552 701 552 683 515 c 0,112,113
 667 483 667 483 654 468 c 0,114,115
 650 463 650 463 650 463.5 c 128,-1,116
 650 464 650 464 654 475 c 0,117,118
 659 491 659 491 659 511 c 0,119,120
 659 528 659 528 656 535 c 0,121,122
 656 537 656 537 654 541 c 0,123,124
 646 560 646 560 624 575 c 128,-1,125
 602 590 602 590 573 596 c 0,126,127
 542 603 542 603 508 597 c 0,128,129
 501 596 501 596 489 592 c 0,130,131
 474 587 474 587 458 576 c 0,132,133
 452 572 452 572 438 561 c 0,134,135
 406 534 406 534 388 500 c 0,136,137
 369 462 369 462 365 438 c 0,138,139
 364 436 364 436 363 430 c 0,140,141
 361 424 361 424 356 394 c 0,142,143
 354 382 354 382 354 344 c 0,144,145
 354 301 354 301 360 272 c 0,146,147
 366 240 366 240 379 213 c 256,148,149
 392 186 392 186 395 185 c 0,150,151
 396 185 396 185 396 184 c 0,152,153
 396 178 396 178 423 150 c 0,154,155
 439 134 439 134 456 124 c 0,156,157
 475 113 475 113 492 107 c 0,158,159
 549 88 549 88 603 93 c 0,160,161
 625 96 625 96 633 97 c 0,162,163
 639 99 639 99 643 99 c 0,164,165
 650 100 650 100 659 103 c 0,166,167
 663 105 663 105 665 105 c 0,168,169
 679 108 679 108 706 121 c 0,170,171
 734 135 734 135 737 140 c 0,172,173
 738 140 738 140 744 145 c 0,174,175
 761 158 761 158 779 184 c 0,176,177
 783 192 783 192 784 191 c 0,178,179
 788 189 788 189 783 173 c 0,180,181
 777 153 777 153 767 136 c 0,182,183
 754 113 754 113 716 75 c 2,184,-1
 698 57 l 1,185,-1
 709 54 l 2,186,187
 750 42 750 42 766 19 c 0,188,189
 770 14 770 14 774 6 c 2,190,-1
 778 -2 l 1,191,-1
 889 -3 l 1,192,-1
 1000 -3 l 1,193,-1
 889 -3 l 1,194,-1
 778 -3 l 1,195,-1
 779 -8 l 2,196,197
 781 -12 781 -12 781 -27 c 128,-1,198
 781 -42 781 -42 780 -49 c 0,199,200
 775 -72 775 -72 761 -92 c 0,201,202
 751 -106 751 -106 735 -119 c 0,203,204
 724 -129 724 -129 700 -138 c 0,205,206
 686 -143 686 -143 671 -145 c 0,207,208
 640 -149 640 -149 613.5 -140 c 128,-1,209
 587 -131 587 -131 579 -112 c 0,210,211
 575 -103 575 -103 575.5 -90 c 128,-1,212
 576 -77 576 -77 581 -68 c 0,213,214
 584 -62 584 -62 585 -71 c 0,215,216
 587 -86 587 -86 601 -99 c 0,217,218
 618 -117 618 -117 647 -117 c 0,219,220
 679 -117 679 -117 700 -99 c 0,221,222
 715 -86 715 -86 717 -72 c 0,223,224
 718 -69 718 -69 718.5 -66.5 c 128,-1,225
 719 -64 719 -64 719 -58 c 0,226,227
 719 -43 719 -43 706 -28 c 128,-1,228
 693 -13 693 -13 673 -5 c 0,229,230
 668 -4 668 -4 234 -4 c 2,231,-1
 1 -4 l 1,232,-1
 1 -102 l 1,233,-1
 0 300 l 1,0,1
654 0 m 0,234,235
 632 4 632 4 611 3 c 0,236,237
 587 0 587 0 565 -2 c 1,238,-1
 611 -3 l 2,239,240
 626 -3 626 -3 638 -3 c 128,-1,241
 650 -3 650 -3 657.5 -2.5 c 128,-1,242
 665 -2 665 -2 665 -2 c 257,243,244
 665 -2 665 -2 654 0 c 0,234,235
EndSplineSet
EndChar

StartChar: D
Encoding: 68 68 16
Width: 1000
GlyphClass: 1
Flags: W
LayerCount: 2
Fore
SplineSet
294 711 m 0,0,1
 306 717 306 717 307 717 c 1,2,3
 307 717 307 717 306 716 c 128,-1,4
 305 715 305 715 303.5 713.5 c 128,-1,5
 302 712 302 712 301 710 c 0,6,7
 289 699 289 699 284 684 c 0,8,9
 280 671 280 671 283 659 c 0,10,11
 291 628 291 628 332 623 c 0,12,13
 354 621 354 621 425 638 c 0,14,15
 509 658 509 658 554 659 c 0,16,17
 585 660 585 660 612 653 c 0,18,19
 646 644 646 644 675 624 c 0,20,21
 767 563 767 563 785 434 c 0,22,23
 786 422 786 422 786.5 385.5 c 128,-1,24
 787 349 787 349 785 339 c 0,25,26
 770 234 770 234 703 169 c 0,27,28
 684 152 684 152 662 136 c 0,29,30
 629 115 629 115 565 87 c 0,31,32
 523 68 523 68 506 58 c 0,33,34
 490 48 490 48 476 36 c 2,35,-1
 471 32 l 1,36,-1
 465 37 l 2,37,38
 452 50 452 50 422 64 c 128,-1,39
 392 78 392 78 362 85 c 0,40,41
 311 97 311 97 271 88 c 0,42,43
 232 79 232 79 213 60 c 0,44,45
 187 34 187 34 203 0 c 0,46,47
 211 -17 211 -17 232 -29 c 0,48,49
 265 -48 265 -48 315 -48 c 0,50,51
 350 -48 350 -48 383.5 -39.5 c 128,-1,52
 417 -31 417 -31 477 -7 c 0,53,54
 559 26 559 26 603 34 c 0,55,56
 612 36 612 36 632.5 36 c 128,-1,57
 653 36 653 36 662 35 c 0,58,59
 682 31 682 31 699 23 c 0,60,61
 731 7 731 7 741 -21 c 0,62,63
 744 -28 744 -28 744 -42.5 c 128,-1,64
 744 -57 744 -57 741 -64 c 0,65,66
 732 -94 732 -94 707 -106.5 c 128,-1,67
 682 -119 682 -119 658 -107 c 0,68,69
 655 -106 655 -106 652 -104 c 128,-1,70
 649 -102 649 -102 647 -100 c 128,-1,71
 645 -98 645 -98 645.5 -97.5 c 128,-1,72
 646 -97 646 -97 652 -99 c 0,73,74
 666 -104 666 -104 680 -98 c 0,75,76
 700 -89 700 -89 702 -66 c 0,77,78
 705 -44 705 -44 688 -29 c 0,79,80
 667 -9 667 -9 626 -8 c 0,81,82
 597 -7 597 -7 566 -15 c 128,-1,83
 535 -23 535 -23 475 -47 c 0,84,85
 408 -74 408 -74 365 -82 c 0,86,87
 335 -87 335 -87 302 -83 c 0,88,89
 255 -78 255 -78 224 -58.5 c 128,-1,90
 193 -39 193 -39 182 -8 c 0,91,92
 176 10 176 10 180 34 c 0,93,94
 187 69 187 69 214 97 c 0,95,96
 227 111 227 111 253 129 c 0,97,98
 278 146 278 146 289 157 c 128,-1,99
 300 168 300 168 307 182 c 0,100,101
 313 196 313 196 314 220 c 0,102,103
 316 247 316 247 316.5 363 c 128,-1,104
 317 479 317 479 316 500 c 0,105,106
 315 513 315 513 317 520 c 0,107,108
 320 533 320 533 335 548 c 0,109,110
 343 557 343 557 342 556.5 c 128,-1,111
 341 556 341 556 330.5 553 c 128,-1,112
 320 550 320 550 303 550 c 128,-1,113
 286 550 286 550 278 553 c 0,114,115
 254 560 254 560 240 578 c 128,-1,116
 226 596 226 596 226 618 c 0,117,118
 226 652 226 652 257 684 c 0,119,120
 273 699 273 699 294 711 c 0,0,1
527 598 m 0,121,122
 518 600 518 600 497.5 600.5 c 128,-1,123
 477 601 477 601 473 600 c 0,124,125
 455 598 455 598 436 594 c 2,126,-1
 427 592 l 1,127,-1
 423 581 l 2,128,129
 418 564 418 564 417.5 548 c 128,-1,130
 417 532 417 532 416 393 c 0,131,132
 415 227 415 227 413 218 c 0,133,134
 407 190 407 190 395 176 c 2,135,-1
 392 172 l 1,136,-1
 395 171 l 2,137,138
 409 167 409 167 444 152 c 0,139,140
 497 131 497 131 519 125 c 0,141,142
 542 118 542 118 570 133 c 0,143,144
 588 142 588 142 606 159 c 0,145,146
 634 188 634 188 652 239 c 0,147,148
 680 318 680 318 668 410 c 0,149,150
 663 455 663 455 650 486 c 0,151,152
 623 556 623 556 566 584 c 0,153,154
 547 594 547 594 527 598 c 0,121,122
EndSplineSet
EndChar

StartChar: E
Encoding: 69 69 17
Width: 1000
GlyphClass: 1
Flags: W
LayerCount: 2
Fore
SplineSet
337 743 m 0,0,1
 346 744 346 744 346.5 743.5 c 128,-1,2
 347 743 347 743 340 737 c 0,3,4
 327 725 327 725 320 709.5 c 128,-1,5
 313 694 313 694 317 683 c 0,6,7
 321 670 321 670 339 661 c 128,-1,8
 357 652 357 652 396 649.5 c 128,-1,9
 435 647 435 647 535 647 c 0,10,11
 647 647 647 647 717 652 c 0,12,13
 735 653 735 653 735 653 c 129,-1,14
 735 653 735 653 723 640 c 0,15,16
 687 603 687 603 670 545 c 0,17,18
 667 536 667 536 662 517 c 0,19,20
 659 503 659 503 656.5 494.5 c 128,-1,21
 654 486 654 486 652.5 480.5 c 128,-1,22
 651 475 651 475 650.5 473 c 128,-1,23
 650 471 650 471 649 471 c 1,24,25
 649 472 649 472 648 477 c 0,26,27
 645 497 645 497 639 519 c 0,28,29
 631 543 631 543 613 559 c 0,30,31
 591 580 591 580 553 586 c 0,32,33
 545 587 545 587 498 588 c 2,34,-1
 451 588 l 1,35,-1
 451 501 l 1,36,-1
 451 413 l 2,37,38
 451 412 451 412 505 412 c 0,39,40
 550 412 550 412 561 413 c 128,-1,41
 572 414 572 414 583 419 c 0,42,43
 590 423 590 423 592 423 c 0,44,45
 596 423 596 423 596 419 c 0,46,47
 596 417 596 417 566 372 c 128,-1,48
 536 327 536 327 532.5 326.5 c 128,-1,49
 529 326 529 326 525.5 329.5 c 128,-1,50
 522 333 522 333 518 335 c 0,51,52
 494 350 494 350 457 352 c 2,53,-1
 451 352 l 1,54,-1
 450 347 l 2,55,56
 450 342 450 342 450 292 c 0,57,58
 449 229 449 229 446 205 c 0,59,60
 442 181 442 181 438 170 c 1,61,62
 438 170 438 170 438.5 169.5 c 128,-1,63
 439 169 439 169 440.5 168.5 c 128,-1,64
 442 168 442 168 444.5 167.5 c 128,-1,65
 447 167 447 167 451 167 c 0,66,67
 472 164 472 164 523 154 c 0,68,69
 573 144 573 144 600.5 144 c 128,-1,70
 628 144 628 144 651 153 c 0,71,72
 666 159 666 159 679 168 c 0,73,74
 697 181 697 181 706 194 c 0,75,76
 709 199 709 199 709 197 c 0,77,78
 710 196 710 196 709 194 c 0,79,80
 705 165 705 165 679 130 c 0,81,82
 657 100 657 100 610 66.5 c 128,-1,83
 563 33 563 33 543 33 c 0,84,85
 535 33 535 33 481 54 c 0,86,87
 441 70 441 70 407.5 78.5 c 128,-1,88
 374 87 374 87 337 87 c 0,89,90
 313 87 313 87 298 84 c 0,91,92
 265 78 265 78 241 62 c 0,93,94
 224 51 224 51 218 34 c 0,95,96
 212 15 212 15 216 1 c 256,97,98
 220 -13 220 -13 231 -24 c 0,99,100
 259 -51 259 -51 317 -55 c 0,101,102
 387 -60 387 -60 495 -15 c 0,103,104
 540 4 540 4 566 16 c 0,105,106
 611 37 611 37 656 46 c 0,107,108
 709 57 709 57 748 46 c 0,109,110
 798 32 798 32 811 -10 c 0,111,112
 819 -35 819 -35 810 -61 c 0,113,114
 799 -91 799 -91 773 -111.5 c 128,-1,115
 747 -132 747 -132 715 -135 c 0,116,117
 687 -139 687 -139 674 -129 c 0,118,119
 673 -128 673 -128 676 -128 c 0,120,121
 678 -128 678 -128 683 -128 c 0,122,123
 701 -128 701 -128 717 -120 c 0,124,125
 739 -108 739 -108 748 -90 c 0,126,127
 755 -78 755 -78 753.5 -62 c 128,-1,128
 752 -46 752 -46 744 -34 c 0,129,130
 732 -16 732 -16 704 -8 c 0,131,132
 695 -6 695 -6 673 -6 c 0,133,134
 647 -6 647 -6 622 -11 c 0,135,136
 564 -22 564 -22 498 -52 c 0,137,138
 418 -87 418 -87 361 -94 c 0,139,140
 352 -95 352 -95 334 -95 c 128,-1,141
 316 -95 316 -95 309 -93 c 0,142,143
 267 -87 267 -87 236 -66 c 0,144,145
 206 -47 206 -47 197 -17 c 0,146,147
 195 -11 195 -11 195 5 c 128,-1,148
 195 21 195 21 198 29 c 0,149,150
 209 63 209 63 241 90 c 0,151,152
 249 97 249 97 271 112.5 c 128,-1,153
 293 128 293 128 300 134 c 0,154,155
 322 151 322 151 335 176 c 0,156,157
 342 191 342 191 344 210 c 128,-1,158
 346 229 346 229 346 283 c 2,159,-1
 347 335 l 1,160,-1
 344 335 l 2,161,162
 323 332 323 332 294 318 c 0,163,164
 270 306 270 306 249 285 c 2,165,-1
 234 269 l 1,166,-1
 235 275 l 2,167,168
 236 288 236 288 246 312 c 0,169,170
 255 331 255 331 273 350 c 0,171,172
 296 373 296 373 333 387 c 0,173,174
 345 392 345 392 346 392.5 c 128,-1,175
 347 393 347 393 347.5 468.5 c 128,-1,176
 348 544 348 544 348 559 c 2,177,-1
 348 574 l 1,178,-1
 338 574 l 2,179,180
 274 575 274 575 254 615 c 0,181,182
 248 628 248 628 248 642 c 0,183,184
 248 672 248 672 266 695 c 0,185,186
 279 713 279 713 293 724 c 0,187,188
 312 738 312 738 337 743 c 0,0,1
EndSplineSet
EndChar

StartChar: F
Encoding: 70 70 18
Width: 1000
GlyphClass: 1
Flags: W
LayerCount: 2
Fore
SplineSet
325 746 m 0,0,1
 333 749 333 749 333.5 749 c 128,-1,2
 334 749 334 749 329 744 c 0,3,4
 313 726 313 726 311.5 706 c 128,-1,5
 310 686 310 686 324 673 c 0,6,7
 340 658 340 658 379 650 c 0,8,9
 417 642 417 642 504 643 c 0,10,11
 613 644 613 644 675 653.5 c 128,-1,12
 737 663 737 663 782 685 c 0,13,14
 784 686 784 686 786.5 687 c 128,-1,15
 789 688 789 688 790.5 689 c 128,-1,16
 792 690 792 690 793.5 690.5 c 128,-1,17
 795 691 795 691 796 691.5 c 128,-1,18
 797 692 797 692 797 692 c 257,19,20
 797 692 797 692 790 680 c 0,21,22
 774 650 774 650 762 623 c 0,23,24
 739 572 739 572 721 500 c 0,25,26
 716 478 716 478 713 470 c 2,27,-1
 711 462 l 1,28,-1
 710 465 l 2,29,30
 701 496 701 496 686 518 c 0,31,32
 674 537 674 537 658 549 c 0,33,34
 636 565 636 565 592 571 c 0,35,36
 580 573 580 573 523 573 c 2,37,-1
 466 574 l 1,38,-1
 466 483 l 1,39,-1
 466 392 l 1,40,-1
 481 392 l 2,41,42
 532 392 532 392 558 395 c 0,43,44
 615 403 615 403 645 447 c 2,45,-1
 652 456 l 1,46,-1
 652 455 l 1,47,48
 644 410 644 410 638 331 c 0,49,50
 636 309 636 309 634 264 c 2,51,-1
 633 249 l 1,52,-1
 627 258 l 2,53,54
 592 313 592 313 552 324 c 0,55,56
 527 331 527 331 485 331 c 2,57,-1
 465 331 l 1,58,-1
 465 259 l 2,59,60
 466 186 466 186 467 180 c 0,61,62
 471 156 471 156 482 143 c 0,63,64
 491 131 491 131 507 123 c 0,65,66
 519 117 519 117 537 112 c 2,67,-1
 542 111 l 1,68,-1
 530 106 l 2,69,70
 500 91 500 91 475 73 c 2,71,-1
 463 64 l 1,72,-1
 454 68 l 2,73,74
 422 82 422 82 396 86 c 0,75,76
 368 90 368 90 345 84 c 0,77,78
 299 72 299 72 286 32 c 0,79,80
 280 15 280 15 286 -3 c 0,81,82
 291 -18 291 -18 303 -28 c 0,83,84
 315 -39 315 -39 330 -46 c 256,85,86
 345 -53 345 -53 372 -53 c 128,-1,87
 399 -53 399 -53 421 -45 c 0,88,89
 451 -35 451 -35 510 9 c 0,90,91
 552 40 552 40 572 52 c 0,92,93
 641 95 641 95 702 95 c 0,94,95
 719 95 719 95 729 93 c 0,96,97
 767 85 767 85 791 61 c 0,98,99
 809 43 809 43 816 18 c 0,100,101
 822 -5 822 -5 816 -30 c 0,102,103
 801 -83 801 -83 760 -111 c 0,104,105
 739 -125 739 -125 713 -131 c 0,106,107
 705 -133 705 -133 688 -133 c 128,-1,108
 671 -133 671 -133 663 -131 c 0,109,110
 642 -125 642 -125 629 -113 c 0,111,112
 622 -106 622 -106 620 -101 c 0,113,114
 611 -85 611 -85 613 -83 c 2,115,116
 613 -83 613 -83 620 -89 c 0,117,118
 634 -103 634 -103 655 -107 c 0,119,120
 677 -112 677 -112 698 -106 c 0,121,122
 723 -98 723 -98 742 -82 c 0,123,124
 762 -63 762 -63 767 -34 c 0,125,126
 768 -28 768 -28 768 -18 c 128,-1,127
 768 -8 768 -8 766 -4 c 0,128,129
 764 7 764 7 757 15 c 0,130,131
 744 30 744 30 717 37 c 0,132,133
 694 42 694 42 664 36 c 0,134,135
 635 31 635 31 603 15 c 0,136,137
 578 2 578 2 501 -50 c 0,138,139
 426 -101 426 -101 370 -108 c 0,140,141
 345 -111 345 -111 319 -105 c 0,142,143
 257 -88 257 -88 239 -34 c 0,144,145
 226 3 226 3 241 42 c 0,146,147
 257 84 257 84 315 128 c 0,148,149
 338 146 338 146 349 159 c 0,150,151
 361 175 361 175 366 196 c 2,152,-1
 369 204 l 1,153,-1
 369 362 l 1,154,-1
 369 519 l 1,155,-1
 366 526 l 2,156,157
 355 555 355 555 323 564 c 0,158,159
 294 572 294 572 281 583 c 0,160,161
 262 600 262 600 255 626 c 0,162,163
 249 646 249 646 255 668 c 0,164,165
 263 696 263 696 283 718 c 0,166,167
 301 738 301 738 325 746 c 0,0,1
EndSplineSet
EndChar

StartChar: G
Encoding: 71 71 19
Width: 1000
GlyphClass: 1
Flags: W
LayerCount: 2
Fore
SplineSet
375 720 m 0,0,1
 383 722 383 722 383 721.5 c 128,-1,2
 383 721 383 721 377 717 c 0,3,4
 351 700 351 700 341 672 c 0,5,6
 339 667 339 667 338.5 657.5 c 128,-1,7
 338 648 338 648 340 643 c 0,8,9
 342 637 342 637 352 630 c 128,-1,10
 362 623 362 623 374 621 c 0,11,12
 381 619 381 619 402 619 c 0,13,14
 431 619 431 619 495 634 c 0,15,16
 524 641 524 641 539 644 c 0,17,18
 627 661 627 661 672 645 c 0,19,20
 697 637 697 637 722 617 c 0,21,22
 728 612 728 612 728 612 c 257,23,24
 728 612 728 612 727 610.5 c 128,-1,25
 726 609 726 609 724 607 c 128,-1,26
 722 605 722 605 720 603 c 0,27,28
 691 574 691 574 638 486 c 0,29,30
 623 460 623 460 623 462 c 128,-1,31
 623 464 623 464 625 471 c 0,32,33
 626 480 626 480 626 496 c 128,-1,34
 626 512 626 512 625 520 c 0,35,36
 620 538 620 538 606.5 553.5 c 128,-1,37
 593 569 593 569 577 574 c 0,38,39
 535 585 535 585 489 573 c 0,40,41
 461 566 461 566 433 545 c 0,42,43
 413 530 413 530 393 506 c 0,44,45
 350 453 350 453 340 384 c 0,46,47
 330 316 330 316 346 253 c 0,48,49
 362 191 362 191 403 152 c 0,50,51
 425 130 425 130 453 117 c 0,52,53
 482 103 482 103 522 97 c 0,54,55
 532 96 532 96 541 98 c 0,56,57
 570 106 570 106 603 128 c 2,58,-1
 616 136 l 1,59,-1
 616 217 l 2,60,61
 617 298 617 298 617 298 c 2,62,63
 616 299 616 299 575 303 c 0,64,65
 533 308 533 308 509 303 c 0,66,67
 480 298 480 298 458 283 c 0,68,69
 447 275 447 275 435 258 c 0,70,71
 431 254 431 254 430 253 c 0,72,73
 429 253 429 253 431 260 c 0,74,75
 441 296 441 296 469 329 c 0,76,77
 490 355 490 355 508 370 c 0,78,79
 516 376 516 376 518 377 c 128,-1,80
 520 378 520 378 526 376 c 0,81,82
 546 368 546 368 568 365 c 0,83,84
 593 361 593 361 623 364 c 0,85,86
 648 367 648 367 682 374 c 0,87,88
 735 384 735 384 750 390 c 1,89,-1
 745 382 l 1,90,91
 719 350 719 350 712 323 c 0,92,93
 708 306 708 306 708 241 c 0,94,95
 708 159 708 159 717 129 c 0,96,97
 737 60 737 60 793 14 c 0,98,99
 800 9 800 9 800 8 c 1,100,101
 800 8 800 8 798.5 8 c 128,-1,102
 797 8 797 8 795 8 c 128,-1,103
 793 8 793 8 791 8 c 0,104,105
 780 9 780 9 761.5 9 c 128,-1,106
 743 9 743 9 735 8 c 0,107,108
 716 6 716 6 694 1 c 0,109,110
 649 -11 649 -11 572 -52 c 0,111,112
 523 -78 523 -78 501 -87 c 0,113,114
 435 -114 435 -114 366 -113 c 0,115,116
 316 -112 316 -112 278 -94 c 0,117,118
 234 -72 234 -72 215 -33 c 0,119,120
 208 -19 208 -19 207 -3 c 0,121,122
 206 28 206 28 229 53 c 0,123,124
 261 86 261 86 310 87 c 0,125,126
 314 87 314 87 316.5 87 c 128,-1,127
 319 87 319 87 320.5 87 c 128,-1,128
 322 87 322 87 322 87 c 1,129,130
 322 88 322 88 314 93 c 0,131,132
 292 110 292 110 272 135 c 0,133,134
 230 187 230 187 216 254 c 0,135,136
 205 312 205 312 216 372 c 0,137,138
 233 456 233 456 292 520 c 0,139,140
 303 531 303 531 322 549 c 0,141,142
 327 553 327 553 324 553 c 0,143,144
 316 553 316 553 299 563 c 0,145,146
 279 575 279 575 272 596 c 0,147,148
 267 613 267 613 272 632 c 0,149,150
 278 656 278 656 301 678 c 0,151,152
 331 708 331 708 375 720 c 0,0,1
663 83 m 0,153,154
 660 89 660 89 659 89 c 0,155,156
 658 90 658 90 613 71 c 0,157,158
 576 56 576 56 533 36 c 2,159,-1
 506 24 l 1,160,-1
 486 30 l 2,161,162
 413 56 413 56 362 58 c 0,163,164
 318 59 318 59 294 47 c 0,165,166
 285 43 285 43 276 34 c 0,167,168
 265 23 265 23 260 10 c 0,169,170
 250 -19 250 -19 273 -43 c 0,171,172
 293 -65 293 -65 329 -73 c 0,173,174
 341 -75 341 -75 365 -76 c 0,175,176
 400 -76 400 -76 427 -72 c 0,177,178
 486 -62 486 -62 573 -24 c 0,179,180
 667 17 667 17 673 25 c 0,181,182
 678 30 678 30 674.5 49.5 c 128,-1,183
 671 69 671 69 663 83 c 0,153,154
EndSplineSet
EndChar

StartChar: H
Encoding: 72 72 20
Width: 1000
GlyphClass: 1
Flags: W
LayerCount: 2
Fore
SplineSet
326 728 m 0,0,1
 335 732 335 732 336 732.5 c 128,-1,2
 337 733 337 733 330 725 c 0,3,4
 318 712 318 712 313 693 c 128,-1,5
 308 674 308 674 314 661 c 0,6,7
 326 637 326 637 370 631 c 0,8,9
 391 628 391 628 441 634 c 0,10,11
 468 637 468 637 468.5 636.5 c 128,-1,12
 469 636 469 636 464 633 c 0,13,14
 452 624 452 624 444 611 c 0,15,16
 432 595 432 595 430 572 c 0,17,18
 429 562 429 562 429 489.5 c 128,-1,19
 429 417 429 417 430 417 c 128,-1,20
 431 417 431 417 516 417 c 2,21,-1
 600 418 l 1,22,-1
 600 501 l 2,23,24
 601 571 601 571 600 584 c 128,-1,25
 599 597 599 597 594 607 c 0,26,27
 586 626 586 626 568 639 c 0,28,29
 566 640 566 640 564.5 641.5 c 128,-1,30
 563 643 563 643 562.5 643.5 c 128,-1,31
 562 644 562 644 562 644 c 257,32,33
 562 644 562 644 570 643.5 c 128,-1,34
 578 643 578 643 606 642 c 0,35,36
 638 642 638 642 659 644.5 c 128,-1,37
 680 647 680 647 729 657 c 0,38,39
 763 664 763 664 763.5 664 c 128,-1,40
 764 664 764 664 755 656 c 0,41,42
 729 636 729 636 716 612 c 0,43,44
 705 594 705 594 700 563 c 0,45,46
 699 551 699 551 699 398 c 0,47,48
 699 209 699 209 702 192 c 0,49,50
 707 166 707 166 731 142 c 0,51,52
 747 126 747 126 763 119 c 0,53,54
 769 116 769 116 769 115 c 256,55,56
 769 114 769 114 745 110 c 0,57,58
 737 109 737 109 716.5 109 c 128,-1,59
 696 109 696 109 668 113 c 2,60,-1
 641 117 l 1,61,-1
 604 117 l 2,62,63
 594 117 594 117 585.5 117 c 128,-1,64
 577 117 577 117 572 117 c 128,-1,65
 567 117 567 117 567 117 c 1,66,67
 581 128 581 128 586 137 c 0,68,69
 594 150 594 150 598 167 c 0,70,71
 600 175 600 175 600 267 c 2,72,-1
 601 359 l 1,73,-1
 568 358 l 2,74,75
 536 358 536 358 482 358 c 2,76,-1
 429 358 l 1,77,-1
 429 277 l 2,78,79
 429 197 429 197 431 188 c 0,80,81
 438 160 438 160 453 145 c 0,82,83
 458 141 458 141 464 138 c 2,84,-1
 470 134 l 1,85,-1
 465 134 l 1,86,87
 439 130 439 130 416 118 c 0,88,89
 396 109 396 109 383 98 c 2,90,-1
 377 92 l 1,91,-1
 372 94 l 2,92,93
 352 100 352 100 332 104 c 0,94,95
 308 109 308 109 288 108 c 0,96,97
 267 107 267 107 250 99 c 0,98,99
 229 89 229 89 220 71 c 0,100,101
 203 35 203 35 222 3 c 0,102,103
 232 -13 232 -13 250 -24 c 0,104,105
 294 -50 294 -50 355 -39 c 0,106,107
 402 -31 402 -31 490 8 c 0,108,109
 597 56 597 56 663 56 c 0,110,111
 756 56 756 56 781 -3 c 0,112,113
 788 -19 788 -19 788 -35 c 0,114,115
 788 -48 788 -48 784 -57 c 0,116,117
 774 -86 774 -86 752 -105.5 c 128,-1,118
 730 -125 730 -125 699 -130 c 0,119,120
 691 -132 691 -132 677 -132 c 128,-1,121
 663 -132 663 -132 656 -130 c 0,122,123
 632 -125 632 -125 616 -106 c 0,124,125
 609 -98 609 -98 609.5 -97.5 c 128,-1,126
 610 -97 610 -97 618 -101.5 c 128,-1,127
 626 -106 626 -106 635 -108.5 c 128,-1,128
 644 -111 644 -111 660 -111.5 c 128,-1,129
 676 -112 676 -112 683 -110 c 0,130,131
 719 -100 719 -100 729 -62 c 0,132,133
 732 -49 732 -49 728 -37 c 0,134,135
 716 -2 716 -2 667 7 c 0,136,137
 657 8 657 8 637 8 c 0,138,139
 607 7 607 7 573 -3 c 0,140,141
 535 -14 535 -14 487 -35 c 0,142,143
 410 -70 410 -70 354 -77 c 0,144,145
 340 -79 340 -79 317 -79 c 0,146,147
 286 -78 286 -78 258 -71 c 0,148,149
 211 -59 211 -59 181.5 -32 c 128,-1,150
 152 -5 152 -5 148 30 c 0,151,152
 144 75 144 75 179 107 c 0,153,154
 201 128 201 128 262 151 c 0,155,156
 292 162 292 162 303 171 c 0,157,158
 320 184 320 184 326 207 c 0,159,160
 329 214 329 214 329 282 c 2,161,-1
 329 351 l 1,162,-1
 325 350 l 2,163,164
 303 347 303 347 284 336 c 0,165,166
 257 321 257 321 240 295 c 0,167,168
 234 286 234 286 228 270 c 1,169,-1
 225 284 l 2,170,171
 225 288 225 288 225 292 c 0,172,173
 224 326 224 326 256 360 c 0,174,175
 278 383 278 383 313 401 c 2,176,-1
 329 409 l 1,177,-1
 329 486 l 1,178,-1
 329 563 l 1,179,-1
 325 564 l 2,180,181
 300 570 300 570 285 584 c 0,182,183
 257 610 257 610 259 642 c 0,184,185
 262 679 262 679 288 703 c 0,186,187
 303 718 303 718 326 728 c 0,0,1
EndSplineSet
EndChar

StartChar: I
Encoding: 73 73 21
Width: 1000
GlyphClass: 1
Flags: W
LayerCount: 2
Fore
SplineSet
255 12 m 0,0,1
 266 18 266 18 266 15 c 2,2,3
 266 15 266 15 262 10 c 0,4,5
 238 -21 238 -21 257 -60 c 0,6,7
 270 -87 270 -87 302 -97 c 0,8,9
 319 -103 319 -103 349 -102 c 0,10,11
 376 -102 376 -102 393.5 -97 c 128,-1,12
 411 -92 411 -92 445 -78 c 0,13,14
 494 -56 494 -56 540 -29 c 0,15,16
 632 25 632 25 700 12 c 0,17,18
 722 8 722 8 741 -2 c 0,19,20
 775 -19 775 -19 785 -49 c 0,21,22
 792 -69 792 -69 789 -72 c 0,23,24
 788 -73 788 -73 780 -68 c 0,25,26
 745 -45 745 -45 685 -46 c 0,27,28
 658 -47 658 -47 634 -53 c 0,29,30
 594 -63 594 -63 517 -101 c 0,31,32
 452 -134 452 -134 425 -143 c 0,33,34
 386 -157 386 -157 348 -156 c 0,35,36
 327 -156 327 -156 316 -154 c 0,37,38
 296 -150 296 -150 279 -142 c 0,39,40
 244 -126 244 -126 228 -93 c 0,41,42
 220 -75 220 -75 219 -55 c 0,43,44
 218 -34 218 -34 226 -17 c 0,45,46
 236 3 236 3 255 12 c 0,0,1
361 760 m 0,47,48
 368 764 368 764 368 762 c 2,49,50
 368 762 368 762 363 753 c 0,51,52
 348 730 348 730 350 714 c 0,53,54
 352 687 352 687 384 672 c 0,55,56
 406 662 406 662 445 658 c 0,57,58
 457 657 457 657 482 657 c 128,-1,59
 507 657 507 657 521 658 c 0,60,61
 623 666 623 666 628 669 c 1,62,-1
 628 668 l 2,63,64
 627 666 627 666 622 663 c 0,65,66
 606 656 606 656 590.5 640 c 128,-1,67
 575 624 575 624 570 611 c 0,68,69
 566 600 566 600 563 572 c 0,70,71
 561 558 561 558 560.5 362.5 c 128,-1,72
 560 167 560 167 562 159 c 0,73,74
 564 144 564 144 571 132 c 0,75,76
 588 104 588 104 627 102 c 0,77,78
 638 101 638 101 638 101 c 2,79,80
 638 99 638 99 630 94 c 0,81,82
 606 81 606 81 585 60 c 0,83,84
 565 39 565 39 549 19 c 0,85,86
 543 10 543 10 542 9.5 c 128,-1,87
 541 9 541 9 531 19 c 0,88,89
 513 36 513 36 488 48 c 0,90,91
 469 58 469 58 446 65 c 0,92,93
 408 76 408 76 369 80 c 2,94,-1
 357 82 l 1,95,96
 358 83 358 83 362 84 c 0,97,98
 376 86 376 86 393 94 c 0,99,100
 429 112 429 112 439 158 c 0,101,102
 440 167 440 167 440 346 c 128,-1,103
 440 525 440 525 440 551 c 0,104,105
 439 573 439 573 438 578.5 c 128,-1,106
 437 584 437 584 432 588.5 c 128,-1,107
 427 593 427 593 421.5 594 c 128,-1,108
 416 595 416 595 395 596 c 0,109,110
 370 596 370 596 363 599 c 0,111,112
 346 606 346 606 331 620 c 0,113,114
 315 635 315 635 309 658 c 0,115,116
 306 667 306 667 307 679 c 0,117,118
 308 710 308 710 324 732 c 0,119,120
 333 743 333 743 349 753 c 0,121,122
 357 757 357 757 361 760 c 0,47,48
EndSplineSet
EndChar

StartChar: J
Encoding: 74 74 22
Width: 1000
GlyphClass: 1
Flags: W
LayerCount: 2
Fore
SplineSet
414 746 m 0,0,1
 423 750 423 750 424 750 c 128,-1,2
 425 750 425 750 422 747 c 0,3,4
 409 732 409 732 405 715 c 0,5,6
 400 699 400 699 405 686 c 0,7,8
 410 675 410 675 423.5 665 c 128,-1,9
 437 655 437 655 453 651 c 0,10,11
 475 645 475 645 506 648 c 0,12,13
 542 650 542 650 601 663 c 0,14,15
 649 673 649 673 656 673 c 0,16,17
 658 673 658 673 645 660 c 0,18,19
 615 630 615 630 607 594 c 0,20,21
 605 586 605 586 604.5 381.5 c 128,-1,22
 604 177 604 177 605 165 c 0,23,24
 611 106 611 106 638 92 c 2,25,-1
 645 89 l 1,26,-1
 630 74 l 2,27,28
 604 48 604 48 569 -11 c 0,29,30
 537 -62 537 -62 514 -87 c 0,31,32
 489 -113 489 -113 458 -128 c 0,33,34
 419 -147 419 -147 376 -147 c 0,35,36
 325 -147 325 -147 285 -121 c 128,-1,37
 245 -95 245 -95 232 -52 c 0,38,39
 226 -34 226 -34 227 -11 c 0,40,41
 227 5 227 5 230 14 c 0,42,43
 240 50 240 50 269 71.5 c 128,-1,44
 298 93 298 93 334.5 91.5 c 128,-1,45
 371 90 371 90 397 66 c 0,46,47
 402 63 402 63 399 63 c 0,48,49
 374 71 374 71 358 69 c 0,50,51
 332 67 332 67 313 48 c 0,52,53
 294 28 294 28 291 3 c 0,54,55
 288 -23 288 -23 292 -35 c 0,56,57
 305 -75 305 -75 351 -86 c 0,58,59
 378 -92 378 -92 405 -86.5 c 128,-1,60
 432 -81 432 -81 449 -65 c 0,61,62
 477 -39 477 -39 487 16 c 0,63,64
 491 39 491 39 492 70.5 c 128,-1,65
 493 102 493 102 493 319 c 2,66,-1
 493 585 l 1,67,-1
 491 585 l 1,68,69
 474 581 474 581 451 580 c 0,70,71
 429 579 429 579 409 585 c 0,72,73
 389 592 389 592 375 607 c 0,74,75
 350 632 350 632 351 663 c 0,76,77
 352 696 352 696 377 722 c 0,78,79
 390 736 390 736 414 746 c 0,0,1
EndSplineSet
EndChar

StartChar: K
Encoding: 75 75 23
Width: 1000
GlyphClass: 1
Flags: W
LayerCount: 2
Fore
SplineSet
592 64 m 0,0,1
 599 65 599 65 622.5 64.5 c 128,-1,2
 646 64 646 64 652 63 c 0,3,4
 681 57 681 57 698 48 c 0,5,6
 743 25 743 25 755 -16 c 0,7,8
 758 -25 758 -25 758 -39 c 0,9,10
 758 -61 758 -61 750 -79 c 0,11,12
 740 -102 740 -102 725 -114 c 0,13,14
 720 -117 720 -117 719 -118.5 c 128,-1,15
 718 -120 718 -120 711 -124 c 0,16,17
 689 -139 689 -139 662 -142 c 0,18,19
 633 -146 633 -146 607 -133 c 0,20,21
 605 -132 605 -132 602 -129.5 c 128,-1,22
 599 -127 599 -127 596.5 -125 c 128,-1,23
 594 -123 594 -123 594.5 -122.5 c 128,-1,24
 595 -122 595 -122 602.5 -123.5 c 128,-1,25
 610 -125 610 -125 624.5 -125 c 128,-1,26
 639 -125 639 -125 647 -123 c 0,27,28
 663 -117 663 -117 675 -105 c 0,29,30
 698 -82 698 -82 691 -54 c 0,31,32
 687 -39 687 -39 677 -27 c 0,33,34
 642 12 642 12 575 6 c 0,35,36
 543 3 543 3 516 -7 c 128,-1,37
 489 -17 489 -17 445 -42 c 0,38,39
 390 -72 390 -72 361 -83 c 0,40,41
 304 -103 304 -103 257 -96 c 0,42,43
 228 -92 228 -92 210 -78 c 0,44,45
 184 -59 184 -59 177 -40 c 0,46,47
 168 -13 168 -13 176 10 c 0,48,49
 178 17 178 17 179 17 c 0,50,51
 180 18 180 18 181 7 c 0,52,53
 184 -14 184 -14 202 -31 c 0,54,55
 226 -54 226 -54 267 -56 c 0,56,57
 301 -58 301 -58 333 -48 c 0,58,59
 364 -37 364 -37 415 -8 c 0,60,61
 522 55 522 55 592 64 c 0,0,1
300 745 m 0,62,63
 313 752 313 752 314 751 c 0,64,65
 314 750 314 750 307 744 c 0,66,67
 292 730 292 730 287 710 c 128,-1,68
 282 690 282 690 291 674 c 0,69,70
 304 650 304 650 346 644 c 0,71,72
 392 637 392 637 456 650 c 0,73,74
 492 657 492 657 499 657 c 1,75,-1
 491 649 l 2,76,77
 481 640 481 640 477 636 c 128,-1,78
 473 632 473 632 467 627 c 0,79,80
 453 615 453 615 446 602 c 0,81,82
 437 581 437 581 434 554 c 0,83,84
 433 542 433 542 432 509.5 c 128,-1,85
 431 477 431 477 431 453 c 128,-1,86
 431 429 431 429 432 425 c 0,87,88
 433 425 433 425 463 455 c 128,-1,89
 493 485 493 485 510 503 c 0,90,91
 546 542 546 542 566 568 c 0,92,93
 578 584 578 584 585 598 c 256,94,95
 592 612 592 612 593 629 c 0,96,97
 595 646 595 646 586 658 c 0,98,99
 583 661 583 661 583 662 c 0,100,101
 585 664 585 664 626 666 c 0,102,103
 642 667 642 667 694 667.5 c 128,-1,104
 746 668 746 668 747 667 c 1,105,-1
 738 660 l 1,106,107
 706 644 706 644 675 619 c 0,108,109
 666 612 666 612 658 605 c 0,110,111
 630 579 630 579 594 541 c 0,112,113
 581 527 581 527 574 520 c 0,114,115
 564 509 564 509 542 484 c 128,-1,116
 520 459 520 459 520 458 c 2,117,118
 520 458 520 458 528 455 c 0,119,120
 551 448 551 448 575 425 c 0,121,122
 591 409 591 409 607 380 c 0,123,124
 622 353 622 353 638 318 c 0,125,126
 665 257 665 257 683 227 c 0,127,128
 709 182 709 182 727 165 c 0,129,130
 746 146 746 146 768 141 c 0,131,132
 785 137 785 137 805 142 c 0,133,134
 813 144 813 144 812.5 143 c 128,-1,135
 812 142 812 142 804 135 c 128,-1,136
 796 128 796 128 784 115 c 0,137,138
 758 90 758 90 736 79 c 0,139,140
 711 65 711 65 689 70 c 0,141,142
 674 74 674 74 655.5 87.5 c 128,-1,143
 637 101 637 101 624 118 c 0,144,145
 606 142 606 142 554 246 c 0,146,147
 521 311 521 311 514 323 c 0,148,149
 491 365 491 365 469 385 c 2,150,-1
 464 390 l 1,151,-1
 460 385 l 2,152,153
 456 381 456 381 444 368 c 2,154,-1
 432 356 l 1,155,-1
 431 343 l 2,156,157
 430 323 430 323 431 279.5 c 128,-1,158
 432 236 432 236 434 226 c 0,159,160
 434 223 434 223 435 219 c 0,161,162
 442 173 442 173 462 160 c 0,163,164
 471 154 471 154 484 150 c 0,165,166
 485 150 485 150 483 148 c 0,167,168
 482 148 482 148 480 147 c 0,169,170
 469 142 469 142 417 102 c 0,171,172
 411 97 411 97 410.5 96.5 c 128,-1,173
 410 96 410 96 400 88.5 c 128,-1,174
 390 81 390 81 382.5 74.5 c 128,-1,175
 375 68 375 68 370 63.5 c 128,-1,176
 365 59 365 59 354 48 c 128,-1,177
 343 37 343 37 341 37 c 128,-1,178
 339 37 339 37 328 52 c 0,179,180
 309 76 309 76 298 82 c 0,181,182
 285 89 285 89 256 89 c 0,183,184
 213 88 213 88 200 86 c 0,185,186
 197 85 197 85 197 86 c 0,187,188
 197 88 197 88 228 106 c 0,189,190
 288 142 288 142 304 159 c 0,191,192
 314 169 314 169 318 177 c 0,193,194
 326 193 326 193 328 218 c 0,195,196
 330 248 330 248 331 332 c 0,197,198
 332 346 332 346 330.5 347 c 128,-1,199
 329 348 329 348 316 344 c 0,200,201
 285 334 285 334 264 321 c 0,202,203
 235 302 235 302 223 278 c 0,204,205
 220 271 220 271 219 271 c 256,206,207
 218 271 218 271 218.5 276.5 c 128,-1,208
 219 282 219 282 220.5 289.5 c 128,-1,209
 222 297 222 297 223 302 c 0,210,211
 231 330 231 330 252 352 c 0,212,213
 260 361 260 361 274 371 c 0,214,215
 296 387 296 387 319 399 c 2,216,-1
 332 405 l 1,217,-1
 331 450 l 2,218,219
 330 557 330 557 329 566 c 2,220,-1
 328 569 l 1,221,-1
 315 570 l 2,222,223
 275 574 275 574 254 596 c 0,224,225
 237 615 237 615 233 640 c 0,226,227
 229 673 229 673 251 704 c 0,228,229
 263 721 263 721 281 734 c 0,230,231
 289 739 289 739 300 745 c 0,62,63
EndSplineSet
EndChar

StartChar: L
Encoding: 76 76 24
Width: 1000
GlyphClass: 1
Flags: W
LayerCount: 2
Fore
SplineSet
319 721 m 0,0,1
 324 723 324 723 326 723 c 128,-1,2
 328 723 328 723 325 718 c 0,3,4
 310 699 310 699 312 680 c 0,5,6
 314 654 314 654 344 641 c 0,7,8
 377 627 377 627 429 639 c 0,9,10
 443 642 443 642 465 648 c 0,11,12
 515 662 515 662 535 661 c 0,13,14
 549 660 549 660 549 658 c 0,15,16
 549 657 549 657 542 653 c 0,17,18
 519 638 519 638 505 610 c 0,19,20
 495 590 495 590 490 562 c 0,21,22
 488 553 488 553 488 551 c 0,23,24
 485 541 485 541 483 516 c 0,25,26
 483 504 483 504 481 429 c 0,27,28
 479 265 479 265 474 237 c 0,29,30
 463 185 463 185 427 153 c 0,31,32
 421 147 421 147 421 145.5 c 128,-1,33
 421 144 421 144 428 143 c 0,34,35
 462 140 462 140 535 117 c 0,36,37
 590 100 590 100 621 100 c 0,38,39
 648 100 648 100 669 111 c 0,40,41
 697 124 697 124 716 153 c 0,42,43
 723 163 723 163 725 163 c 256,44,45
 727 163 727 163 727 156 c 0,46,47
 726 144 726 144 718 125 c 0,48,49
 708 99 708 99 675 60 c 0,50,51
 655 37 655 37 627 11 c 0,52,53
 619 4 619 4 619.5 2.5 c 128,-1,54
 620 1 620 1 635.5 -12.5 c 128,-1,55
 651 -26 651 -26 661 -33 c 0,56,57
 687 -51 687 -51 709 -52 c 0,58,59
 732 -53 732 -53 745.5 -40.5 c 128,-1,60
 759 -28 759 -28 759 -6 c 0,61,62
 759 7 759 7 753 19 c 0,63,64
 750 26 750 26 751.5 26 c 128,-1,65
 753 26 753 26 760.5 18.5 c 128,-1,66
 768 11 768 11 772 2 c 0,67,68
 780 -14 780 -14 780 -32 c 0,69,70
 780 -44 780 -44 777 -53 c 0,71,72
 765 -93 765 -93 715 -99 c 0,73,74
 673 -105 673 -105 634 -77 c 0,75,76
 621 -67 621 -67 580 -30 c 0,77,78
 560 -10 560 -10 534 5 c 0,79,80
 460 50 460 50 384 67 c 0,81,82
 355 74 355 74 335 72 c 0,83,84
 271 67 271 67 245 18 c 0,85,86
 238 6 238 6 238 -8 c 0,87,88
 238 -29 238 -29 249 -41 c 0,89,90
 252 -44 252 -44 251.5 -44.5 c 128,-1,91
 251 -45 251 -45 248 -43 c 0,92,93
 238 -38 238 -38 231 -21 c 0,94,95
 225 -6 225 -6 226 12 c 0,96,97
 227 44 227 44 257 74 c 0,98,99
 280 98 280 98 332 128 c 0,100,101
 357 142 357 142 369 181 c 0,102,103
 380 214 380 214 383 275 c 0,104,105
 385 309 385 309 384 416 c 128,-1,106
 383 523 383 523 381 539 c 0,107,108
 378 561 378 561 367 567 c 0,109,110
 364 570 364 570 350 571 c 0,111,112
 306 573 306 573 284 596 c 0,113,114
 272 608 272 608 267 626 c 0,115,116
 265 634 265 634 265.5 647 c 128,-1,117
 266 660 266 660 269 668 c 0,118,119
 283 708 283 708 319 721 c 0,0,1
EndSplineSet
EndChar

StartChar: M
Encoding: 77 77 25
Width: 1000
GlyphClass: 1
Flags: W
LayerCount: 2
Fore
SplineSet
325 695 m 0,0,1
 333 697 333 697 334 697 c 128,-1,2
 335 697 335 697 330 692 c 0,3,4
 313 674 313 674 313 651 c 0,5,6
 313 635 313 635 324 624 c 0,7,8
 340 608 340 608 368 607 c 0,9,10
 390 607 390 607 430 618 c 0,11,12
 437 620 437 620 438 620 c 128,-1,13
 439 620 439 620 440 614 c 0,14,15
 441 607 441 607 442 599 c 0,16,17
 453 550 453 550 486 472 c 0,18,19
 499 441 499 441 507 420 c 128,-1,20
 515 399 515 399 519 388.5 c 128,-1,21
 523 378 523 378 526 367 c 2,22,-1
 530 357 l 1,23,-1
 533 365 l 2,24,25
 536 373 536 373 546 393 c 0,26,27
 561 426 561 426 564 433 c 0,28,29
 567 439 567 439 579.5 466.5 c 128,-1,30
 592 494 592 494 601 514 c 0,31,32
 621 564 621 564 630 582 c 0,33,34
 635 592 635 592 643 610 c 128,-1,35
 651 628 651 628 653 630.5 c 128,-1,36
 655 633 655 633 663.5 633.5 c 128,-1,37
 672 634 672 634 690 635 c 0,38,39
 766 641 766 641 780 642 c 0,40,41
 781 642 781 642 782 643 c 2,42,-1
 787 642 l 1,43,44
 786 641 786 641 778 634 c 0,45,46
 776 633 776 633 774 632 c 0,47,48
 757 618 757 618 749 605 c 0,49,50
 735 585 735 585 731 558 c 0,51,52
 727 527 727 527 734 381 c 0,53,54
 737 324 737 324 738 318 c 0,55,56
 738 311 738 311 739 303 c 0,57,58
 741 267 741 267 742 264 c 0,59,60
 742 261 742 261 743 256 c 0,61,62
 745 229 745 229 749 211 c 0,63,64
 756 180 756 180 770 160 c 0,65,66
 790 132 790 132 823 126 c 0,67,68
 830 125 830 125 830 124 c 128,-1,69
 830 123 830 123 825 119 c 0,70,71
 806 107 806 107 790 92 c 0,72,73
 772 75 772 75 753 42 c 0,74,75
 747 30 747 30 745 27 c 2,76,-1
 743 23 l 1,77,-1
 740 33 l 2,78,79
 730 72 730 72 705 97 c 0,80,81
 673 129 673 129 617 133 c 1,82,-1
 608 133 l 1,83,-1
 614 137 l 2,84,85
 626 144 626 144 638 157 c 0,86,87
 648 168 648 168 650.5 178 c 128,-1,88
 653 188 653 188 653 210 c 0,89,90
 652 281 652 281 649 336 c 0,91,92
 649 361 649 361 648 392.5 c 128,-1,93
 647 424 647 424 647 429 c 128,-1,94
 647 434 647 434 647 470 c 2,95,-1
 646 507 l 1,96,-1
 640 494 l 2,97,98
 633 481 633 481 631 478 c 128,-1,99
 629 475 629 475 624 465 c 128,-1,100
 619 455 619 455 613.5 443 c 128,-1,101
 608 431 608 431 601 415 c 0,102,103
 589 386 589 386 571 350 c 0,104,105
 552 313 552 313 535 266 c 0,106,107
 520 224 520 224 509 197 c 0,108,109
 495 164 495 164 494 162 c 0,110,111
 493 162 493 162 493 162.5 c 128,-1,112
 493 163 493 163 492 164.5 c 128,-1,113
 491 166 491 166 490.5 169 c 128,-1,114
 490 172 490 172 488 178 c 0,115,116
 483 197 483 197 472 234 c 0,117,118
 448 310 448 310 409 401 c 0,119,120
 398 426 398 426 388 450 c 0,121,122
 382 463 382 463 376.5 476 c 128,-1,123
 371 489 371 489 367.5 496.5 c 128,-1,124
 364 504 364 504 364 504 c 1,125,126
 363 503 363 503 361 476 c 0,127,128
 358 437 358 437 357 424 c 0,129,130
 356 419 356 419 354.5 395 c 128,-1,131
 353 371 353 371 352 366 c 0,132,133
 351 360 351 360 348 330 c 0,134,135
 346 311 346 311 344 295 c 0,136,137
 343 283 343 283 341 270 c 0,138,139
 337 237 337 237 336 228 c 0,140,141
 335 222 335 222 335 210 c 0,142,143
 335 192 335 192 343 181 c 0,144,145
 350 169 350 169 382 161 c 0,146,147
 391 158 391 158 391 157.5 c 128,-1,148
 391 157 391 157 384 153 c 0,149,150
 364 141 364 141 330 108 c 0,151,152
 318 96 318 96 317 96 c 128,-1,153
 316 96 316 96 308 100 c 0,154,155
 253 133 253 133 217 114 c 0,156,157
 195 102 195 102 189 75 c 0,158,159
 188 71 188 71 187.5 62 c 128,-1,160
 187 53 187 53 188 49 c 0,161,162
 190 41 190 41 193 35 c 0,163,164
 209 -5 209 -5 268 -19 c 0,165,166
 288 -24 288 -24 313 -20 c 0,167,168
 363 -13 363 -13 427 23 c 0,169,170
 440 30 440 30 450.5 36 c 128,-1,171
 461 42 461 42 471 47 c 0,172,173
 499 62 499 62 516 69 c 0,174,175
 538 78 538 78 548 81 c 0,176,177
 551 81 551 81 557 83 c 0,178,179
 576 87 576 87 604 88 c 0,180,181
 625 88 625 88 636 85 c 0,182,183
 667 77 667 77 685 61 c 0,184,185
 708 42 708 42 717 12 c 0,186,187
 718 5 718 5 718 -7.5 c 128,-1,188
 718 -20 718 -20 716 -27 c 0,189,190
 712 -45 712 -45 700 -59 c 0,191,192
 673 -93 673 -93 623 -93 c 0,193,194
 604 -92 604 -92 589 -85 c 0,195,196
 566 -73 566 -73 562 -55 c 2,197,-1
 561 -51 l 1,198,-1
 568 -57 l 2,199,200
 586 -73 586 -73 613 -72 c 0,201,202
 628 -72 628 -72 644 -64 c 0,203,204
 675 -49 675 -49 676 -15 c 0,205,206
 678 17 678 17 649 35 c 0,207,208
 625 51 625 51 585 44 c 0,209,210
 561 39 561 39 539 29.5 c 128,-1,211
 517 20 517 20 461 -11 c 0,212,213
 427 -30 427 -30 404 -39 c 0,214,215
 327 -70 327 -70 257 -52 c 0,216,217
 211 -40 211 -40 183 -12 c 0,218,219
 162 9 162 9 154 36 c 0,220,221
 148 57 148 57 151 76 c 0,222,223
 157 111 157 111 187 136 c 0,224,225
 202 148 202 148 212 154 c 0,226,227
 236 168 236 168 247 178 c 128,-1,228
 258 188 258 188 268 203 c 0,229,230
 290 236 290 236 299 282 c 0,231,232
 303 303 303 303 308 336 c 0,233,234
 313 373 313 373 317 412 c 0,235,236
 318 426 318 426 319 434 c 0,237,238
 321 446 321 446 322 462 c 0,239,240
 322 467 322 467 324 488 c 128,-1,241
 326 509 326 509 326.5 519.5 c 128,-1,242
 327 530 327 530 328 537 c 2,243,-1
 328 545 l 1,244,-1
 316 548 l 2,245,246
 288 555 288 555 275 572 c 0,247,248
 258 594 258 594 263 623 c 0,249,250
 268 648 268 648 284.5 667 c 128,-1,251
 301 686 301 686 325 695 c 0,0,1
EndSplineSet
EndChar

StartChar: N
Encoding: 78 78 26
Width: 1000
GlyphClass: 1
Flags: W
LayerCount: 2
Fore
SplineSet
311 733 m 0,0,1
 324 739 324 739 324.5 739 c 128,-1,2
 325 739 325 739 322 735 c 0,3,4
 301 710 301 710 303 682.5 c 128,-1,5
 305 655 305 655 328 643 c 0,6,7
 349 632 349 632 386 634 c 0,8,9
 409 635 409 635 432 642 c 0,10,11
 446 646 446 646 446.5 645.5 c 128,-1,12
 447 645 447 645 445 643 c 0,13,14
 440 635 440 635 433 614 c 2,15,-1
 431 608 l 1,16,-1
 435 602 l 2,17,18
 439 595 439 595 469 549 c 0,19,20
 524 462 524 462 609 331 c 2,21,-1
 642 279 l 1,22,-1
 643 285 l 2,23,24
 644 291 644 291 644 423 c 0,25,26
 644 527 644 527 643.5 548 c 128,-1,27
 643 569 643 569 639 580 c 0,28,29
 635 594 635 594 627 601 c 0,30,31
 617 612 617 612 603 614 c 0,32,33
 585 618 585 618 564 611 c 2,34,-1
 557 609 l 1,35,-1
 560 615 l 2,36,37
 578 648 578 648 593 664 c 2,38,-1
 600 671 l 1,39,-1
 630 671 l 2,40,41
 689 669 689 669 738 672 c 0,42,43
 767 674 767 674 773 674 c 2,44,-1
 779 674 l 1,45,-1
 771 670 l 2,46,47
 734 649 734 649 716 614 c 0,48,49
 706 597 706 597 703 580 c 0,50,51
 698 556 698 556 696 512 c 0,52,53
 694 451 694 451 693.5 319 c 128,-1,54
 693 187 693 187 694 164 c 0,55,56
 699 93 699 93 717 63 c 0,57,58
 719 59 719 59 718 59 c 0,59,60
 699 67 699 67 656 73 c 2,61,-1
 647 74 l 1,62,-1
 600 148 l 2,63,64
 491 319 491 319 421 428 c 0,65,66
 399 464 399 464 385 485 c 2,67,-1
 371 506 l 1,68,-1
 370 496 l 2,69,70
 370 487 370 487 370 363 c 0,71,72
 371 265 371 265 371.5 245.5 c 128,-1,73
 372 226 372 226 375 210 c 0,74,75
 384 174 384 174 415 164 c 0,76,77
 442 156 442 156 466 173 c 0,78,79
 469 175 469 175 469 174 c 0,80,81
 469 170 469 170 451 146 c 0,82,83
 446 138 446 138 422 109 c 128,-1,84
 398 80 398 80 390 72 c 2,85,-1
 384 65 l 1,86,-1
 377 71 l 2,87,88
 358 84 358 84 338 94 c 0,89,90
 311 107 311 107 279 110 c 0,91,92
 243 113 243 113 214.5 100 c 128,-1,93
 186 87 186 87 177 64 c 0,94,95
 174 58 174 58 174 46 c 0,96,97
 174 30 174 30 182 17 c 0,98,99
 190 3 190 3 207 -9 c 0,100,101
 236 -28 236 -28 282 -33 c 0,102,103
 314 -36 314 -36 349 -31 c 0,104,105
 406 -22 406 -22 481 7 c 0,106,107
 530 27 530 27 573 37 c 0,108,109
 673 60 673 60 738 28 c 0,110,111
 768 12 768 12 779 -10 c 0,112,113
 787 -26 787 -26 787 -45 c 0,114,115
 787 -59 787 -59 784 -67 c 0,116,117
 770 -109 770 -109 733 -129 c 0,118,119
 717 -138 717 -138 698 -141 c 0,120,121
 675 -144 675 -144 656 -139 c 256,122,123
 637 -134 637 -134 625 -122 c 128,-1,124
 613 -110 613 -110 613 -95 c 2,125,-1
 612 -87 l 1,126,-1
 614 -91 l 2,127,128
 618 -100 618 -100 631 -108 c 0,129,130
 646 -117 646 -117 666.5 -118 c 128,-1,131
 687 -119 687 -119 703 -111 c 0,132,133
 734 -96 734 -96 727 -63 c 0,134,135
 719 -22 719 -22 664 -8 c 0,136,137
 640 -1 640 -1 606 -2 c 0,138,139
 574 -3 574 -3 553 -8 c 0,140,141
 521 -16 521 -16 467 -38 c 0,142,143
 437 -50 437 -50 425 -54 c 0,144,145
 382 -68 382 -68 340 -73 c 0,146,147
 311 -77 311 -77 281 -74 c 0,148,149
 234 -69 234 -69 201 -47 c 0,150,151
 194 -43 194 -43 183.5 -32.5 c 128,-1,152
 173 -22 173 -22 169 -16 c 0,153,154
 147 17 147 17 151 52.5 c 128,-1,155
 155 88 155 88 184 117 c 0,156,157
 207 140 207 140 253 157 c 0,158,159
 283 169 283 169 291 175 c 0,160,161
 311 190 311 190 315 228 c 256,162,163
 319 266 319 266 318 491 c 2,164,-1
 318 544 l 1,165,-1
 314 551 l 2,166,167
 305 566 305 566 285 579 c 0,168,169
 257 599 257 599 249 621 c 0,170,171
 247 628 247 628 247 640 c 0,172,173
 247 668 247 668 262 691 c 0,174,175
 280 718 280 718 311 733 c 0,0,1
EndSplineSet
EndChar

StartChar: O
Encoding: 79 79 27
Width: 1000
GlyphClass: 1
Flags: W
LayerCount: 2
Fore
SplineSet
654 60 m 0,0,1
 677 66 677 66 697 61 c 0,2,3
 721 56 721 56 730 49 c 0,4,5
 732 48 732 48 735 46 c 256,6,7
 738 44 738 44 746.5 35 c 128,-1,8
 755 26 755 26 757 23 c 0,9,10
 776 -7 776 -7 771 -42 c 0,11,12
 770 -47 770 -47 770 -47.5 c 128,-1,13
 770 -48 770 -48 768 -56 c 0,14,15
 758 -88 758 -88 730 -112 c 0,16,17
 718 -122 718 -122 703 -129 c 0,18,19
 693 -133 693 -133 692.5 -133.5 c 128,-1,20
 692 -134 692 -134 684 -136 c 128,-1,21
 676 -138 676 -138 672 -138.5 c 128,-1,22
 668 -139 668 -139 663 -141 c 0,23,24
 657 -142 657 -142 642.5 -141 c 128,-1,25
 628 -140 628 -140 621 -139 c 0,26,27
 596 -132 596 -132 578 -111 c 0,28,29
 570 -100 570 -100 568 -90 c 0,30,31
 567 -87 567 -87 567 -85 c 0,32,33
 565 -82 565 -82 564.5 -75 c 128,-1,34
 564 -68 564 -68 565 -66 c 256,35,36
 566 -64 566 -64 569 -70 c 0,37,38
 570 -71 570 -71 571 -73 c 0,39,40
 596 -115 596 -115 641 -113 c 0,41,42
 688 -110 688 -110 699 -66 c 0,43,44
 706 -40 706 -40 690 -17 c 256,45,46
 674 6 674 6 644.5 10.5 c 128,-1,47
 615 15 615 15 585 0 c 0,48,49
 565 -10 565 -10 556 -20 c 0,50,51
 553 -23 553 -23 553 -22 c 0,52,53
 553 -20 553 -20 559 -11 c 0,54,55
 586 31 586 31 624 50 c 0,56,57
 637 56 637 56 654 60 c 0,0,1
336 751 m 128,-1,59
 338 753 338 753 338.5 752.5 c 128,-1,60
 339 752 339 752 336 748 c 0,61,62
 325 731 325 731 320 709 c 0,63,64
 318 702 318 702 318 689 c 128,-1,65
 318 676 318 676 319 671 c 0,66,67
 321 667 321 667 321 664 c 0,68,69
 322 657 322 657 329 649 c 128,-1,70
 336 641 336 641 343 637 c 256,71,72
 350 633 350 633 363 633 c 0,73,74
 377 633 377 633 385 635.5 c 128,-1,75
 393 638 393 638 429 652 c 0,76,77
 445 659 445 659 449 660 c 128,-1,78
 453 661 453 661 461.5 664 c 128,-1,79
 470 667 470 667 471.5 667.5 c 128,-1,80
 473 668 473 668 482 670.5 c 128,-1,81
 491 673 491 673 493 673 c 0,82,83
 526 681 526 681 556 679 c 0,84,85
 583 678 583 678 595 674 c 0,86,87
 598 673 598 673 604 672 c 0,88,89
 629 665 629 665 654 650 c 0,90,91
 665 644 665 644 666 642.5 c 128,-1,92
 667 641 667 641 670 639 c 0,93,94
 682 632 682 632 699 614 c 0,95,96
 738 573 738 573 760 510 c 0,97,98
 768 487 768 487 770 477 c 0,99,100
 772 470 772 470 775 454 c 0,101,102
 782 425 782 425 782 380 c 256,103,104
 782 335 782 335 772 290 c 0,105,106
 769 275 769 275 764 262 c 0,107,108
 758 244 758 244 754 235 c 0,109,110
 739 202 739 202 735 197 c 0,111,112
 733 196 733 196 733 195 c 0,113,114
 733 190 733 190 708 158 c 0,115,116
 684 129 684 129 651 107 c 0,117,118
 626 90 626 90 585 74 c 0,119,120
 566 67 566 67 540 56 c 0,121,122
 490 36 490 36 459 33 c 0,123,124
 432 30 432 30 399 35 c 0,125,126
 373 39 373 39 343.5 54.5 c 128,-1,127
 314 70 314 70 293 92 c 0,128,129
 257 127 257 127 234 178 c 0,130,131
 232 183 232 183 228.5 191.5 c 128,-1,132
 225 200 225 200 223 206.5 c 128,-1,133
 221 213 221 213 221.5 213 c 128,-1,134
 222 213 222 213 220 219 c 0,135,136
 213 239 213 239 209 271 c 0,137,138
 208 279 208 279 207 285.5 c 128,-1,139
 206 292 206 292 205 318 c 0,140,141
 205 354 205 354 208 372 c 0,142,143
 209 377 209 377 210 383 c 0,144,145
 211 392 211 392 215 412 c 0,146,147
 219 429 219 429 229 455 c 128,-1,148
 239 481 239 481 247 494 c 0,149,150
 250 498 250 498 253 504 c 0,151,152
 261 519 261 519 271 531 c 0,153,154
 274 534 274 534 277 538 c 0,155,156
 291 556 291 556 305 568 c 0,157,158
 310 572 310 572 309.5 572 c 128,-1,159
 309 572 309 572 305 573 c 0,160,161
 292 575 292 575 279 583 c 0,162,163
 258 597 258 597 252 620 c 0,164,165
 247 641 247 641 255.5 667.5 c 128,-1,166
 264 694 264 694 283 714 c 0,167,168
 298 729 298 729 321 742 c 0,169,58
 334 749 334 749 336 751 c 128,-1,59
492 614 m 0,170,171
 483 616 483 616 465 616 c 0,172,173
 446 616 446 616 435 614 c 0,174,175
 411 608 411 608 387.5 582.5 c 128,-1,176
 364 557 364 557 347 518 c 0,177,178
 331 481 331 481 323 426 c 0,179,180
 317 382 317 382 321 340 c 0,181,182
 325 305 325 305 326 303 c 0,183,184
 326 301 326 301 327 298 c 0,185,186
 327 294 327 294 330 282 c 0,187,188
 331 278 331 278 332 276 c 0,189,190
 332 273 332 273 335 263 c 0,191,192
 336 259 336 259 339 250 c 0,193,194
 359 191 359 191 399 150 c 0,195,196
 457 91 457 91 529 91 c 0,197,198
 543 91 543 91 551 93 c 0,199,200
 619 109 619 109 653 188 c 0,201,202
 659 202 659 202 658 203 c 2,203,204
 658 203 658 203 660 207 c 0,205,206
 668 227 668 227 670 256 c 0,207,208
 671 261 671 261 672 269 c 0,209,210
 673 278 673 278 673 301 c 128,-1,211
 673 324 673 324 671 338 c 0,212,213
 670 354 670 354 669.5 355.5 c 128,-1,214
 669 357 669 357 669 362 c 0,215,216
 668 367 668 367 664 394 c 0,217,218
 657 433 657 433 643 464 c 0,219,220
 642 468 642 468 637 478 c 0,221,222
 621 516 621 516 596 549 c 0,223,224
 581 567 581 567 560 583 c 0,225,226
 539 598 539 598 518 606 c 0,227,228
 507 610 507 610 492 614 c 0,170,171
EndSplineSet
EndChar

StartChar: P
Encoding: 80 80 28
Width: 1000
GlyphClass: 1
Flags: W
LayerCount: 2
Fore
SplineSet
306 735 m 0,0,1
 315 739 315 739 315.5 739 c 128,-1,2
 316 739 316 739 311 733 c 0,3,4
 301 722 301 722 297 709 c 0,5,6
 294 702 294 702 294 691 c 128,-1,7
 294 680 294 680 298 674 c 0,8,9
 306 656 306 656 333 649 c 0,10,11
 341 646 341 646 360 646 c 0,12,13
 392 646 392 646 456 662 c 0,14,15
 497 672 497 672 526 674 c 0,16,17
 559 678 559 678 586 675 c 0,18,19
 624 671 624 671 656 656 c 0,20,21
 733 618 733 618 751 537 c 0,22,23
 753 527 753 527 753 506.5 c 128,-1,24
 753 486 753 486 752 476 c 0,25,26
 744 433 744 433 717.5 398 c 128,-1,27
 691 363 691 363 650 342 c 256,28,29
 609 321 609 321 561 320 c 0,30,31
 525 319 525 319 481 330 c 0,32,33
 467 334 467 334 466 332 c 128,-1,34
 465 330 465 330 465.5 281 c 128,-1,35
 466 232 466 232 467 221 c 0,36,37
 469 187 469 187 486 170 c 0,38,39
 493 163 493 163 501 159 c 0,40,41
 515 153 515 153 526 153 c 0,42,43
 531 153 531 153 524 148 c 0,44,45
 507 138 507 138 485.5 119 c 128,-1,46
 464 100 464 100 454 88 c 0,47,48
 448 80 448 80 447.5 79.5 c 128,-1,49
 447 79 447 79 441 84 c 0,50,51
 414 105 414 105 366 107 c 0,52,53
 331 109 331 109 308 89.5 c 128,-1,54
 285 70 285 70 285 39 c 0,55,56
 285 14 285 14 303 -4 c 0,57,58
 333 -34 333 -34 386 -17 c 0,59,60
 430 -2 430 -2 502 66 c 0,61,62
 556 117 556 117 594 140 c 256,63,64
 632 163 632 163 668 170 c 0,65,66
 706 178 706 178 741 168 c 0,67,68
 761 162 761 162 775 151 c 0,69,70
 802 131 802 131 809 99 c 0,71,72
 813 83 813 83 808 61 c 0,73,74
 798 11 798 11 759 -18 c 0,75,76
 730 -40 730 -40 692 -40 c 0,77,78
 672 -40 672 -40 659 -34 c 0,79,80
 656 -32 656 -32 652 -29.5 c 128,-1,81
 648 -27 648 -27 645.5 -25 c 128,-1,82
 643 -23 643 -23 643.5 -22.5 c 128,-1,83
 644 -22 644 -22 648 -24 c 0,84,85
 658 -28 658 -28 678 -28 c 0,86,87
 709 -28 709 -28 734 -8.5 c 128,-1,88
 759 11 759 11 767 41 c 0,89,90
 774 70 774 70 764 92 c 0,91,92
 750 122 750 122 716 131 c 0,93,94
 698 136 698 136 680 132 c 0,95,96
 655 127 655 127 632 111 c 0,97,98
 596 87 596 87 537 20 c 0,99,100
 500 -23 500 -23 477.5 -43.5 c 128,-1,101
 455 -64 455 -64 431 -76 c 0,102,103
 391 -97 391 -97 354 -94 c 0,104,105
 319 -90 319 -90 291 -72 c 0,106,107
 283 -67 283 -67 272.5 -56 c 128,-1,108
 262 -45 262 -45 258 -37 c 0,109,110
 236 -1 236 -1 241 40 c 128,-1,111
 246 81 246 81 276 115 c 0,112,113
 287 128 287 128 312 147 c 0,114,115
 328 158 328 158 338 168.5 c 128,-1,116
 348 179 348 179 353 188 c 0,117,118
 363 209 363 209 366 254 c 0,119,120
 368 277 368 277 367 413.5 c 128,-1,121
 366 550 366 550 364 571 c 2,122,-1
 363 577 l 1,123,-1
 342 577 l 2,124,125
 314 577 314 577 298 584 c 0,126,127
 268 596 268 596 257 629 c 0,128,129
 254 638 254 638 253.5 654 c 128,-1,130
 253 670 253 670 256 677 c 0,131,132
 267 716 267 716 306 735 c 0,0,1
540 629 m 0,133,134
 530 631 530 631 512 632 c 0,135,136
 489 632 489 632 477 627 c 0,137,138
 472 624 472 624 470 619 c 0,139,140
 466 608 466 608 465 575 c 0,141,142
 464 556 464 556 465 488 c 128,-1,143
 466 420 466 420 467 392 c 2,144,-1
 467 376 l 1,145,-1
 477 372 l 2,146,147
 510 359 510 359 543 361 c 128,-1,148
 576 363 576 363 600 379 c 0,149,150
 640 405 640 405 649 458 c 0,151,152
 653 481 653 481 650 506 c 0,153,154
 643 554 643 554 612 587 c 0,155,156
 585 617 585 617 540 629 c 0,133,134
EndSplineSet
EndChar

StartChar: Q
Encoding: 81 81 29
Width: 1000
GlyphClass: 1
Flags: W
LayerCount: 2
Fore
SplineSet
409 752 m 0,0,1
 417 754 417 754 417.5 754 c 128,-1,2
 418 754 418 754 413 750 c 0,3,4
 372 715 372 715 358 682 c 0,5,6
 344 650 344 650 352 635 c 2,7,-1
 354 631 l 1,8,-1
 360 630 l 2,9,10
 366 630 366 630 382 635 c 0,11,12
 408 644 408 644 462 665 c 0,13,14
 498 679 498 679 504 681 c 0,15,16
 542 691 542 691 589 677 c 0,17,18
 654 658 654 658 694 611 c 0,19,20
 728 570 728 570 745 529 c 0,21,22
 763 485 763 485 769 432 c 0,23,24
 770 419 770 419 770 387.5 c 128,-1,25
 770 356 770 356 768 344 c 0,26,27
 761 289 761 289 738 243 c 0,28,29
 714 193 714 193 670 155 c 2,30,-1
 664 150 l 1,31,-1
 669 139 l 2,32,33
 711 51 711 51 747 18 c 0,34,35
 776 -11 776 -11 807.5 -11 c 128,-1,36
 839 -11 839 -11 866 13 c 0,37,38
 875 21 875 21 876 20 c 256,39,40
 877 19 877 19 867 1 c 0,41,42
 847 -35 847 -35 810 -65 c 0,43,44
 786 -83 786 -83 751 -104 c 0,45,46
 696 -137 696 -137 650 -146 c 0,47,48
 612 -155 612 -155 576 -145 c 128,-1,49
 540 -135 540 -135 520 -112 c 0,50,51
 504 -92 504 -92 505 -71 c 128,-1,52
 506 -50 506 -50 524 -41 c 0,53,54
 530 -37 530 -37 530 -40 c 2,55,56
 530 -40 530 -40 528 -45.5 c 128,-1,57
 526 -51 526 -51 526 -63 c 128,-1,58
 526 -75 526 -75 529 -82 c 0,59,60
 541 -103 541 -103 577 -113 c 0,61,62
 603 -120 603 -120 629 -115 c 0,63,64
 660 -109 660 -109 686 -91 c 0,65,66
 701 -80 701 -80 701 -78 c 0,67,68
 693 -73 693 -73 676 -58 c 0,69,70
 623 -11 623 -11 577 77 c 0,71,72
 568 93 568 93 567.5 94 c 128,-1,73
 567 95 567 95 550 87 c 0,74,75
 492 57 492 57 450 55 c 0,76,77
 424 54 424 54 397 60 c 0,78,79
 338 71 338 71 292 106 c 0,80,81
 259 130 259 130 239 158 c 0,82,83
 185 229 185 229 177 321 c 0,84,85
 171 378 171 378 185 432 c 0,86,87
 204 508 204 508 256 563 c 0,88,89
 267 573 267 573 268.5 576 c 128,-1,90
 270 579 270 579 271 587 c 0,91,92
 274 609 274 609 278 623 c 0,93,94
 288 654 288 654 311 682 c 0,95,96
 327 702 327 702 349 718 c 0,97,98
 381 742 381 742 409 752 c 0,0,1
476 619 m 0,99,100
 444 623 444 623 419 615 c 0,101,102
 368 599 368 599 341 559 c 0,103,104
 318 525 318 525 306 464 c 0,105,106
 289 379 289 379 310 299 c 0,107,108
 323 249 323 249 351 207.5 c 128,-1,109
 379 166 379 166 416 141 c 0,110,111
 471 105 471 105 531 116 c 0,112,113
 555 121 555 121 555 123 c 2,114,115
 555 123 555 123 549 135 c 0,116,117
 511 209 511 209 455 231 c 0,118,119
 438 238 438 238 416 238 c 0,120,121
 392 238 392 238 367 227 c 1,122,-1
 369 232 l 2,123,124
 380 254 380 254 404 271 c 128,-1,125
 428 288 428 288 458 295 c 0,126,127
 467 297 467 297 481.5 297 c 128,-1,128
 496 297 496 297 505 295 c 0,129,130
 535 288 535 288 563 271 c 0,131,132
 597 250 597 250 621 220 c 0,133,134
 629 210 629 210 630 209 c 0,135,136
 630 208 630 208 632 211.5 c 128,-1,137
 634 215 634 215 636.5 220.5 c 128,-1,138
 639 226 639 226 642 233 c 128,-1,139
 645 240 645 240 647.5 247 c 128,-1,140
 650 254 650 254 652 260 c 0,141,142
 671 329 671 329 663 395 c 0,143,144
 657 436 657 436 644 472 c 0,145,146
 631 507 631 507 616 528 c 0,147,148
 585 571 585 571 552 592.5 c 128,-1,149
 519 614 519 614 476 619 c 0,99,100
EndSplineSet
EndChar

StartChar: R
Encoding: 82 82 30
Width: 1000
GlyphClass: 1
Flags: W
LayerCount: 2
Fore
SplineSet
361 737 m 0,0,1
 369 739 369 739 369 739 c 1,2,-1
 366 736 l 2,3,4
 349 722 349 722 342 703 c 0,5,6
 336 687 336 687 342 675 c 0,7,8
 349 660 349 660 372 653 c 0,9,10
 390 648 390 648 420 649 c 0,11,12
 462 650 462 650 502 661.5 c 128,-1,13
 542 673 542 673 572 690 c 0,14,15
 584 697 584 697 585.5 697 c 128,-1,16
 587 697 587 697 591 695 c 0,17,18
 606 688 606 688 629 670 c 0,19,20
 652 651 652 651 670 621 c 128,-1,21
 688 591 688 591 693 563 c 0,22,23
 694 554 694 554 694 535.5 c 128,-1,24
 694 517 694 517 693 507 c 0,25,26
 687 468 687 468 661 441 c 0,27,28
 628 407 628 407 584 389 c 0,29,30
 576 385 576 385 576 384.5 c 128,-1,31
 576 384 576 384 584 379 c 0,32,33
 609 363 609 363 626 336 c 0,34,35
 646 305 646 305 671 236 c 0,36,37
 683 201 683 201 695 177 c 0,38,39
 714 140 714 140 737 118 c 0,40,41
 766 90 766 90 799 81 c 0,42,43
 807 79 807 79 824 79 c 0,44,45
 846 79 846 79 858 84 c 0,46,47
 860 85 860 85 858 82 c 0,48,49
 855 79 855 79 841 67 c 0,50,51
 810 39 810 39 777 7 c 2,52,-1
 757 -13 l 1,53,-1
 751 -12 l 2,54,55
 746 -12 746 -12 736 -9 c 0,56,57
 681 10 681 10 633 78 c 0,58,59
 600 124 600 124 566 225 c 0,60,61
 542 297 542 297 524 320 c 0,62,63
 518 328 518 328 507.5 335.5 c 128,-1,64
 497 343 497 343 489 344 c 0,65,66
 482 346 482 346 455 344 c 2,67,-1
 446 343 l 1,68,-1
 446 282 l 2,69,70
 445 221 445 221 446 213 c 0,71,72
 449 190 449 190 458 178.5 c 128,-1,73
 467 167 467 167 488 160 c 0,74,75
 512 152 512 152 512 151 c 256,76,77
 512 150 512 150 499 141 c 0,78,79
 460 114 460 114 435 88 c 0,80,81
 425 78 425 78 424.5 78 c 128,-1,82
 424 78 424 78 412 85 c 0,83,84
 364 113 364 113 321 112 c 0,85,86
 270 112 270 112 241 84 c 0,87,88
 222 65 222 65 223 39 c 256,89,90
 224 13 224 13 245 -7 c 0,91,92
 276 -36 276 -36 334 -36 c 0,93,94
 360 -36 360 -36 383 -30 c 128,-1,95
 406 -24 406 -24 450 -6 c 0,96,97
 526 25 526 25 569 30 c 0,98,99
 606 34 606 34 638 25 c 0,100,101
 673 15 673 15 692.5 -6.5 c 128,-1,102
 712 -28 712 -28 712 -57 c 0,103,104
 712 -102 712 -102 665 -125 c 0,105,106
 643 -136 643 -136 620 -136 c 0,107,108
 595 -135 595 -135 577 -119 c 0,109,110
 569 -111 569 -111 569.5 -110.5 c 128,-1,111
 570 -110 570 -110 575 -112 c 0,112,113
 607 -124 607 -124 636 -110 c 0,114,115
 659 -98 659 -98 662 -74.5 c 128,-1,116
 665 -51 665 -51 646 -34 c 0,117,118
 607 2 607 2 540 -13 c 0,119,120
 517 -18 517 -18 444 -48 c 0,121,122
 387 -72 387 -72 331 -72 c 0,123,124
 293 -72 293 -72 259 -60 c 0,125,126
 205 -42 205 -42 186 0 c 0,127,128
 177 17 177 17 177 38 c 0,129,130
 177 54 177 54 180 63 c 0,131,132
 188 89 188 89 211 111 c 0,133,134
 231 130 231 130 274 149 c 0,135,136
 305 162 305 162 320 178 c 0,137,138
 332 191 332 191 335.5 211.5 c 128,-1,139
 339 232 339 232 339 289 c 2,140,-1
 340 334 l 1,141,-1
 327 331 l 2,142,143
 292 321 292 321 271 300 c 0,144,145
 259 288 259 288 254 275 c 2,146,-1
 252 268 l 1,147,-1
 252 276 l 2,148,149
 250 289 250 289 254 301 c 0,150,151
 267 343 267 343 330 378 c 0,152,153
 339 382 339 382 339.5 383 c 128,-1,154
 340 384 340 384 340 417 c 0,155,156
 342 507 342 507 337 539 c 0,157,158
 336 550 336 550 336 551 c 0,159,160
 336 553 336 553 353 572 c 2,161,-1
 361 581 l 1,162,-1
 351 581 l 1,163,164
 304 585 304 585 285 616 c 0,165,166
 280 626 280 626 280 638 c 0,167,168
 279 640 279 640 280 649 c 0,169,170
 284 679 284 679 313 707 c 0,171,172
 335 728 335 728 361 737 c 0,0,1
514.5 624 m 128,-1,174
 507 627 507 627 506 627 c 0,175,176
 502 627 502 627 476 617 c 0,177,178
 464 612 464 612 459 607 c 0,179,180
 451 599 451 599 450 592.5 c 128,-1,181
 449 586 449 586 448 543 c 0,182,183
 447 508 447 508 446.5 452.5 c 128,-1,184
 446 397 446 397 446 396 c 1,185,186
 447 396 447 396 472 394 c 128,-1,187
 497 392 497 392 508 394 c 0,188,189
 545 400 545 400 569 425 c 256,190,191
 593 450 593 450 594 492 c 0,192,193
 596 540 596 540 573 576 c 0,194,195
 559 597 559 597 534 613 c 0,196,173
 522 621 522 621 514.5 624 c 128,-1,174
EndSplineSet
EndChar

StartChar: S
Encoding: 83 83 31
Width: 1000
GlyphClass: 1
Flags: W
LayerCount: 2
Fore
SplineSet
400 679 m 0,0,1
 410 683 410 683 404 678 c 0,2,3
 384 662 384 662 377 640 c 0,4,5
 370 620 370 620 379 606 c 0,6,7
 391 585 391 585 423 575 c 0,8,9
 454 564 454 564 502 564 c 0,10,11
 532 564 532 564 560 568 c 0,12,13
 566 569 566 569 572 570 c 0,14,15
 603 575 603 575 637 584 c 0,16,17
 641 585 641 585 644 586 c 0,18,19
 660 590 660 590 677 596 c 0,20,21
 698 603 698 603 709 605 c 0,22,23
 714 606 714 606 709 603 c 0,24,25
 708 602 708 602 706 600 c 0,26,27
 692 592 692 592 676 572.5 c 128,-1,28
 660 553 660 553 649 533 c 0,29,30
 637 511 637 511 631 483 c 0,31,32
 624 454 624 454 623 425 c 0,33,34
 622 389 622 389 626 377 c 1,35,-1
 625 375 l 1,36,37
 624 376 624 376 622 380 c 0,38,39
 615 395 615 395 606 430 c 0,40,41
 599 458 599 458 592 472 c 0,42,43
 576 503 576 503 541 516 c 0,44,45
 520 523 520 523 497 521 c 128,-1,46
 474 519 474 519 459 510 c 0,47,48
 443 500 443 500 437 483 c 128,-1,49
 431 466 431 466 436 446 c 0,50,51
 445 411 445 411 483 378 c 0,52,53
 509 355 509 355 544 334 c 0,54,55
 574 316 574 316 594 305 c 0,56,57
 611 295 611 295 628 283 c 0,58,59
 661 262 661 262 680 242 c 0,60,61
 721 199 721 199 725 146 c 0,62,63
 726 137 726 137 725 135 c 256,64,65
 724 133 724 133 724 134 c 256,66,67
 724 135 724 135 723 138 c 0,68,69
 718 174 718 174 696 186 c 0,70,71
 693 188 693 188 692 187 c 128,-1,72
 691 186 691 186 691 180 c 0,73,74
 695 156 695 156 688 130 c 0,75,76
 685 121 685 121 684.5 118.5 c 128,-1,77
 684 116 684 116 683.5 115.5 c 128,-1,78
 683 115 683 115 683 114 c 0,79,80
 683 107 683 107 666 83 c 0,81,82
 639 39 639 39 580 4 c 0,83,84
 541 -19 541 -19 515 -29 c 0,85,86
 511 -31 511 -31 506.5 -33 c 128,-1,87
 502 -35 502 -35 489 -40 c 0,88,89
 442 -60 442 -60 432 -78 c 0,90,91
 429 -85 429 -85 429 -76 c 0,92,93
 429 -74 429 -74 429 -72 c 0,94,95
 432 -46 432 -46 455 -29 c 0,96,97
 457 -28 457 -28 458.5 -26.5 c 128,-1,98
 460 -25 460 -25 460.5 -24 c 128,-1,99
 461 -23 461 -23 461 -23 c 1,100,101
 460 -23 460 -23 452 -21 c 0,102,103
 436 -19 436 -19 423 -16 c 0,104,105
 332 5 332 5 289 47 c 0,106,107
 268 68 268 68 262 96 c 0,108,109
 259 112 259 112 264 134 c 0,110,111
 265 137 265 137 269 144 c 0,112,113
 292 190 292 190 352 200 c 0,114,115
 360 202 360 202 374.5 201.5 c 128,-1,116
 389 201 389 201 396 200 c 0,117,118
 442 190 442 190 448 159 c 0,119,120
 448 156 448 156 448 156 c 1,121,-1
 444 160 l 1,122,123
 439 174 439 174 422 182 c 0,124,125
 409 188 409 188 386 188 c 0,126,127
 367 188 367 188 359 186 c 0,128,129
 317 171 317 171 310 132 c 0,130,131
 306 108 306 108 321 83 c 0,132,133
 331 66 331 66 344 55 c 0,134,135
 373 28 373 28 415 12 c 0,136,137
 421 10 421 10 422 10 c 1,138,-1
 413 15 l 2,139,140
 382 31 382 31 364 53 c 0,141,142
 351 70 351 70 353 70 c 2,143,144
 353 70 353 70 360 64 c 0,145,146
 393 34 393 34 440 24 c 0,147,148
 460 19 460 19 479 19 c 0,149,150
 503 19 503 19 528 27 c 0,151,152
 545 31 545 31 562 42 c 0,153,154
 591 59 591 59 607.5 85 c 128,-1,155
 624 111 624 111 624 138 c 0,156,157
 624 176 624 176 593 207 c 0,158,159
 588 212 588 212 577 221 c 128,-1,160
 566 230 566 230 565 230 c 256,161,162
 564 230 564 230 559 233 c 0,163,164
 527 253 527 253 485 260 c 0,165,166
 450 266 450 266 414 258 c 0,167,168
 386 251 386 251 372 241 c 0,169,170
 369 239 369 239 368 240 c 0,171,172
 368 241 368 241 374 246 c 0,173,174
 389 260 389 260 412 271 c 0,175,176
 432 281 432 281 450 284 c 0,177,178
 457 286 457 286 458 286 c 128,-1,179
 459 286 459 286 459 287 c 128,-1,180
 459 288 459 288 457 289 c 0,181,182
 445 294 445 294 414 319 c 0,183,184
 361 365 361 365 361 420 c 0,185,186
 361 468 361 468 398 505 c 0,187,188
 408 515 408 515 408 516 c 0,189,190
 405 518 405 518 377 505 c 0,191,192
 336 486 336 486 320 452 c 0,193,194
 318 447 318 447 318 446 c 128,-1,195
 318 445 318 445 317 443 c 1,196,-1
 315 444 l 2,197,198
 315 447 315 447 317 454 c 0,199,200
 324 489 324 489 351 510 c 0,201,202
 356 514 356 514 356 515.5 c 128,-1,203
 356 517 356 517 352 519 c 0,204,205
 335 524 335 524 323 547 c 0,206,207
 315 562 315 562 315 579 c 0,208,209
 316 607 316 607 340 638 c 0,210,211
 363 666 363 666 400 679 c 0,0,1
EndSplineSet
EndChar

StartChar: T
Encoding: 84 84 32
Width: 1000
GlyphClass: 1
Flags: W
LayerCount: 2
Fore
SplineSet
302 774 m 0,0,1
 310 776 310 776 310 777 c 1,2,3
 311 777 311 777 310 776 c 128,-1,4
 309 775 309 775 307.5 773 c 128,-1,5
 306 771 306 771 304 769 c 0,6,7
 292 757 292 757 287 743 c 0,8,9
 285 736 285 736 285 726.5 c 128,-1,10
 285 717 285 717 287 711 c 0,11,12
 301 682 301 682 363 675 c 0,13,14
 396 671 396 671 546 671 c 0,15,16
 655 671 655 671 676.5 671.5 c 128,-1,17
 698 672 698 672 720 676 c 0,18,19
 768 684 768 684 795 702 c 0,20,21
 800 705 800 705 800.5 705 c 128,-1,22
 801 705 801 705 797.5 698 c 128,-1,23
 794 691 794 691 789 681.5 c 128,-1,24
 784 672 784 672 780 666 c 0,25,26
 774 656 774 656 757 628 c 0,27,28
 733 587 733 587 720 561 c 2,29,-1
 716 553 l 1,30,-1
 714 561 l 2,31,32
 711 575 711 575 699 587.5 c 128,-1,33
 687 600 687 600 669 605 c 0,34,35
 653 610 653 610 588 610 c 2,36,-1
 535 610 l 1,37,-1
 535 422 l 2,38,39
 535 234 535 234 536 222 c 0,40,41
 538 195 538 195 550 178 c 0,42,43
 565 156 565 156 595 150 c 2,44,-1
 601 149 l 1,45,-1
 593 146 l 2,46,47
 560 134 560 134 524 106 c 0,48,49
 498 85 498 85 488 70 c 0,50,51
 480 57 480 57 480 44 c 0,52,53
 480 14 480 14 504 -18 c 0,54,55
 528 -52 528 -52 564 -71 c 128,-1,56
 600 -90 600 -90 640 -90 c 0,57,58
 679 -90 679 -90 707 -69 c 0,59,60
 721 -59 721 -59 729 -44 c 0,61,62
 746 -16 746 -16 736 14 c 0,63,64
 725 47 725 47 689 56 c 0,65,66
 646 67 646 67 607 41 c 0,67,68
 601 37 601 37 594 29 c 2,69,-1
 586 22 l 1,70,-1
 588 26 l 2,71,72
 593 42 593 42 610 59 c 0,73,74
 650 98 650 98 705 92 c 0,75,76
 764 86 764 86 786 39 c 0,77,78
 798 12 798 12 793.5 -21.5 c 128,-1,79
 789 -55 789 -55 770 -82 c 0,80,81
 750 -110 750 -110 718 -125 c 0,82,83
 681 -143 681 -143 637.5 -141 c 128,-1,84
 594 -139 594 -139 557 -119 c 0,85,86
 511 -93 511 -93 461 -12 c 0,87,88
 440 21 440 21 426 35 c 0,89,90
 405 58 405 58 374 70 c 0,91,92
 357 76 357 76 343 78 c 2,93,-1
 337 79 l 1,94,-1
 341 80 l 2,95,96
 356 85 356 85 373 96 c 0,97,98
 427 131 427 131 443 187 c 2,99,-1
 446 196 l 1,100,-1
 446 402 l 2,101,102
 446 608 446 608 448 609 c 1,103,-1
 400 609 l 2,104,105
 362 606 362 606 341 596 c 0,106,107
 332 592 332 592 322.5 582.5 c 128,-1,108
 313 573 313 573 304 559 c 2,109,-1
 294 547 l 1,110,111
 293 549 293 549 292 554 c 0,112,113
 288 571 288 571 256 606 c 0,114,115
 233 631 233 631 228 655 c 0,116,117
 224 677 224 677 229 699 c 0,118,119
 237 726 237 726 256 746 c 128,-1,120
 275 766 275 766 302 774 c 0,0,1
EndSplineSet
EndChar

StartChar: U
Encoding: 85 85 33
Width: 1000
GlyphClass: 1
Flags: W
LayerCount: 2
Fore
SplineSet
305 719 m 2,0,1
 305 719 305 719 310 721 c 1,2,-1
 309 720 l 2,3,4
 303 713 303 713 297 696 c 0,5,6
 295 690 295 690 294.5 680 c 128,-1,7
 294 670 294 670 297.5 663.5 c 128,-1,8
 301 657 301 657 305 653 c 0,9,10
 316 643 316 643 334 638 c 0,11,12
 343 636 343 636 366 635 c 0,13,14
 412 634 412 634 479 652 c 0,15,16
 482 653 482 653 469 639.5 c 128,-1,17
 456 626 456 626 452 620 c 0,18,19
 439 600 439 600 437 573 c 0,20,21
 433 540 433 540 434 297 c 2,22,-1
 434 176 l 1,23,-1
 436 169 l 2,24,25
 446 136 446 136 470 117 c 0,26,27
 485 105 485 105 505 99 c 0,28,29
 512 96 512 96 532 96 c 2,30,-1
 552 96 l 1,31,-1
 562 100 l 2,32,33
 586 109 586 109 600 122 c 0,34,35
 623 144 623 144 629 186 c 0,36,37
 633 210 633 210 633 404 c 0,38,39
 633 548 633 548 632.5 573.5 c 128,-1,40
 632 599 632 599 627 611 c 0,41,42
 623 625 623 625 614 634 c 0,43,44
 611 638 611 638 601.5 645 c 128,-1,45
 592 652 592 652 590 652 c 0,46,47
 589 652 589 652 588.5 652.5 c 128,-1,48
 588 653 588 653 599 653 c 0,49,50
 643 651 643 651 738 667 c 0,51,52
 753 669 753 669 760 670 c 2,53,-1
 767 670 l 1,54,-1
 757 661 l 2,55,56
 729 633 729 633 721 599 c 0,57,58
 719 590 719 590 718.5 397.5 c 128,-1,59
 718 205 718 205 716 196 c 0,60,61
 704 124 704 124 643 83 c 0,62,63
 628 73 628 73 595 56 c 0,64,65
 572 44 572 44 565 40 c 0,66,67
 545 28 545 28 545 26 c 128,-1,68
 545 24 545 24 576 5 c 0,69,70
 633 -29 633 -29 695 -25 c 0,71,72
 742 -22 742 -22 784 11 c 0,73,74
 791 17 791 17 791 17 c 2,75,76
 794 15 794 15 782 -4 c 0,77,78
 769 -22 769 -22 748 -38 c 0,79,80
 724 -56 724 -56 690 -62 c 0,81,82
 643 -71 643 -71 587 -49 c 0,83,84
 568 -41 568 -41 534 -22 c 0,85,86
 446 29 446 29 365 51 c 0,87,88
 337 59 337 59 301 63 c 0,89,90
 269 67 269 67 246 63 c 0,91,92
 209 57 209 57 192 38 c 0,93,94
 179 22 179 22 178 -9 c 0,95,96
 178 -30 178 -30 190 -46 c 0,97,98
 218 -86 218 -86 274 -86 c 0,99,100
 295 -86 295 -86 316 -79 c 0,101,102
 327 -76 327 -76 327 -76.5 c 128,-1,103
 327 -77 327 -77 324 -79.5 c 128,-1,104
 321 -82 321 -82 316 -85 c 128,-1,105
 311 -88 311 -88 308 -89 c 0,106,107
 284 -101 284 -101 255 -102 c 0,108,109
 222 -103 222 -103 195 -92 c 0,110,111
 174 -83 174 -83 160 -69 c 0,112,113
 139 -49 139 -49 133 -22 c 128,-1,114
 127 5 127 5 133 29 c 0,115,116
 148 88 148 88 223 104 c 0,117,118
 267 113 267 113 328 105 c 0,119,120
 340 103 340 103 340.5 103 c 128,-1,121
 341 103 341 103 333.5 110 c 128,-1,122
 326 117 326 117 317.5 124.5 c 128,-1,123
 309 132 309 132 305 135 c 2,124,-1
 302 138 l 1,125,-1
 309 146 l 2,126,127
 324 164 324 164 330 181 c 128,-1,128
 336 198 336 198 338 228 c 0,129,130
 339 241 339 241 339 352 c 128,-1,131
 339 463 339 463 338 499 c 0,132,133
 337 538 337 538 331 553 c 0,134,135
 325 564 325 564 315 571 c 0,136,137
 311 574 311 574 295 583 c 0,138,139
 274 594 274 594 266 603 c 0,140,141
 253 617 253 617 254 640 c 0,142,143
 255 658 255 658 264 675 c 0,144,145
 278 704 278 704 305 719 c 2,0,1
EndSplineSet
EndChar

StartChar: V
Encoding: 86 86 34
Width: 1000
GlyphClass: 1
Flags: W
LayerCount: 2
Fore
SplineSet
217 163 m 0,0,1
 222 163 222 163 239 163 c 128,-1,2
 256 163 256 163 262 162 c 0,3,4
 308 156 308 156 353 134 c 0,5,6
 404 108 404 108 475 51 c 0,7,8
 533 3 533 3 560 -15 c 0,9,10
 656 -77 656 -77 731 -75 c 0,11,12
 782 -73 782 -73 813 -43 c 0,13,14
 826 -29 826 -29 837 -8 c 2,15,-1
 841 0 l 1,16,17
 841 -1 841 -1 839 -13 c 0,18,19
 837 -26 837 -26 830 -41 c 0,20,21
 821 -57 821 -57 809 -70 c 0,22,23
 783 -97 783 -97 738 -105 c 0,24,25
 711 -109 711 -109 683 -105 c 0,26,27
 630 -98 630 -98 569 -68 c 0,28,29
 501 -34 501 -34 395 43 c 0,30,31
 346 79 346 79 316.5 95.5 c 128,-1,32
 287 112 287 112 259 118 c 0,33,34
 248 120 248 120 231 120 c 128,-1,35
 214 120 214 120 206 118 c 0,36,37
 186 112 186 112 173 99 c 0,38,39
 155 81 155 81 155 55 c 0,40,41
 155 13 155 13 200 -8 c 0,42,43
 234 -23 234 -23 281 -8 c 1,44,-1
 282 -8 l 1,45,46
 276 -15 276 -15 260 -23 c 0,47,48
 239 -34 239 -34 213 -34 c 0,49,50
 185 -34 185 -34 163 -23 c 0,51,52
 118 -1 118 -1 112 48 c 0,53,54
 109 73 109 73 121 98 c 0,55,56
 133 124 133 124 158.5 141 c 128,-1,57
 184 158 184 158 217 163 c 0,0,1
274 735 m 0,58,59
 280 737 280 737 280.5 737 c 128,-1,60
 281 737 281 737 277 733 c 0,61,62
 261 716 261 716 259.5 697 c 128,-1,63
 258 678 258 678 273 665 c 0,64,65
 292 646 292 646 342 645 c 0,66,67
 379 644 379 644 452 652 c 0,68,69
 472 654 472 654 477 653 c 2,70,-1
 482 653 l 1,71,-1
 476 650 l 2,72,73
 464 645 464 645 445 629 c 0,74,75
 427 616 427 616 422 605 c 0,76,77
 417 595 417 595 420 581 c 0,78,79
 425 556 425 556 451 489 c 0,80,81
 495 380 495 380 546 237 c 0,82,83
 554 216 554 216 556.5 207 c 128,-1,84
 559 198 559 198 559 197 c 1,85,86
 559 197 559 197 560.5 200 c 128,-1,87
 562 203 562 203 563.5 208 c 128,-1,88
 565 213 565 213 567 219 c 0,89,90
 575 242 575 242 589 280.5 c 128,-1,91
 603 319 603 319 608 334 c 128,-1,92
 613 349 613 349 624.5 380.5 c 128,-1,93
 636 412 636 412 651 453 c 0,94,95
 665 495 665 495 671 511 c 0,96,97
 697 585 697 585 690 615 c 0,98,99
 684 640 684 640 653 653 c 1,100,-1
 676 654 l 2,101,102
 752 655 752 655 816 661 c 0,103,104
 831 662 831 662 837 663 c 2,105,-1
 844 663 l 1,106,-1
 839 661 l 2,107,108
 806 645 806 645 789 628 c 0,109,110
 765 603 765 603 732 521 c 0,111,112
 725 503 725 503 707 459.5 c 128,-1,113
 689 416 689 416 677 385 c 0,114,115
 638 285 638 285 606 200 c 0,116,117
 582 136 582 136 543 37 c 2,118,-1
 534 14 l 1,119,-1
 530 25 l 2,120,121
 516 64 516 64 486 95.5 c 128,-1,122
 456 127 456 127 429 131 c 1,123,-1
 425 131 l 1,124,-1
 437 143 l 2,125,126
 453 159 453 159 454 170 c 0,127,128
 455 180 455 180 428 254 c 0,129,130
 386 368 386 368 364 422 c 0,131,132
 351 456 351 456 341 480 c 0,133,134
 316 545 316 545 292 564 c 0,135,136
 286 570 286 570 271.5 577 c 128,-1,137
 257 584 257 584 250 589 c 0,138,139
 233 600 233 600 225 614 c 0,140,141
 214 632 214 632 216.5 656.5 c 128,-1,142
 219 681 219 681 234.5 702 c 128,-1,143
 250 723 250 723 274 735 c 0,58,59
EndSplineSet
EndChar

StartChar: W
Encoding: 87 87 35
Width: 1000
GlyphClass: 1
Flags: W
LayerCount: 2
Fore
SplineSet
594 35 m 0,0,1
 626 39 626 39 652.5 31 c 128,-1,2
 679 23 679 23 690 7 c 0,3,4
 695 -1 695 -1 696 -12 c 0,5,6
 698 -33 698 -33 683 -48 c 0,7,8
 679 -51 679 -51 672 -55.5 c 128,-1,9
 665 -60 665 -60 665 -59 c 1,10,11
 664 -59 664 -59 665 -54 c 0,12,13
 669 -35 669 -35 650 -20.5 c 128,-1,14
 631 -6 631 -6 597 -1 c 0,15,16
 562 3 562 3 520 -11 c 0,17,18
 492 -20 492 -20 456 -42 c 0,19,20
 426 -60 426 -60 407 -66 c 0,21,22
 387 -73 387 -73 370 -72 c 256,23,24
 353 -71 353 -71 345 -66 c 0,25,26
 340 -62 340 -62 343 -62 c 2,27,28
 343 -62 343 -62 345 -62 c 0,29,30
 357 -65 357 -65 377 -59 c 0,31,32
 404 -51 404 -51 448 -24 c 0,33,34
 517 17 517 17 552 27 c 0,35,36
 572 33 572 33 594 35 c 0,0,1
242 697 m 0,37,38
 251 702 251 702 250 699 c 0,39,40
 250 698 250 698 246 692.5 c 128,-1,41
 242 687 242 687 239 680.5 c 128,-1,42
 236 674 236 674 236 664.5 c 128,-1,43
 236 655 236 655 239 649 c 0,44,45
 245 638 245 638 258 632 c 0,46,47
 281 622 281 622 324 619 c 0,48,49
 358 618 358 618 400 622 c 0,50,51
 407 623 407 623 411.5 623.5 c 128,-1,52
 416 624 416 624 418.5 624 c 128,-1,53
 421 624 421 624 421.5 624 c 128,-1,54
 422 624 422 624 421 623 c 2,55,56
 421 623 421 623 411 617 c 0,57,58
 381 602 381 602 368 584 c 0,59,60
 359 570 359 570 358.5 554.5 c 128,-1,61
 358 539 358 539 365 508 c 0,62,63
 373 474 373 474 396 381 c 0,64,65
 406 342 406 342 410 326 c 0,66,67
 418 294 418 294 426 267 c 0,68,69
 427 265 427 265 428 261 c 2,70,-1
 434 242 l 1,71,-1
 434 243 l 1,72,-1
 435 243 l 1,73,74
 441 263 441 263 449 290 c 0,75,76
 451 296 451 296 455.5 312 c 128,-1,77
 460 328 460 328 463 336.5 c 128,-1,78
 466 345 466 345 469 356 c 0,79,80
 474 374 474 374 481 397 c 0,81,82
 505 473 505 473 514 518 c 2,83,-1
 517 529 l 1,84,-1
 514 542 l 2,85,86
 511 554 511 554 509 562 c 0,87,88
 504 588 504 588 497 608 c 0,89,90
 492 623 492 623 492 623.5 c 128,-1,91
 492 624 492 624 537.5 624 c 128,-1,92
 583 624 583 624 612 626 c 0,93,94
 625 626 625 626 632 626.5 c 128,-1,95
 639 627 639 627 643 627 c 128,-1,96
 647 627 647 627 648 627 c 128,-1,97
 649 627 649 627 649 626 c 2,98,99
 649 626 649 626 639 621 c 0,100,101
 614 608 614 608 602 584 c 0,102,103
 594 569 594 569 595 553 c 0,104,105
 596 543 596 543 607 496 c 0,106,107
 625 426 625 426 638 383 c 0,108,109
 645 361 645 361 646 357.5 c 128,-1,110
 647 354 647 354 653 333.5 c 128,-1,111
 659 313 659 313 665 296 c 0,112,113
 681 243 681 243 684 234 c 1,114,-1
 699 279 l 2,115,116
 722 355 722 355 743 437 c 0,117,118
 764 522 764 522 768 553 c 0,119,120
 770 567 770 567 768 577 c 0,121,122
 766 593 766 593 757 604 c 0,123,124
 750 614 750 614 735 623 c 0,125,126
 729 626 729 626 729 626 c 2,127,128
 729 628 729 628 756 628 c 0,129,130
 795 628 795 628 822 635 c 0,131,132
 860 645 860 645 893 667 c 0,133,134
 906 675 906 675 906 672 c 2,135,136
 906 672 906 672 896 662 c 0,137,138
 871 636 871 636 853 607 c 0,139,140
 840 586 840 586 829 557 c 0,141,142
 815 522 815 522 752 321 c 0,143,144
 728 243 728 243 721 213.5 c 128,-1,145
 714 184 714 184 716 166 c 256,146,147
 718 148 718 148 725 139 c 128,-1,148
 732 130 732 130 749 125 c 0,149,150
 789 112 789 112 807 93 c 0,151,152
 838 62 838 62 833 9 c 0,153,154
 830 -14 830 -14 820 -33 c 0,155,156
 807 -60 807 -60 780.5 -82 c 128,-1,157
 754 -104 754 -104 724 -114 c 0,158,159
 666 -132 666 -132 621 -113 c 0,160,161
 604 -105 604 -105 592 -91 c 128,-1,162
 580 -77 580 -77 579 -62 c 0,163,164
 580 -57 580 -57 581 -56 c 1,165,166
 591 -71 591 -71 598 -78 c 0,167,168
 613 -94 613 -94 640 -98 c 0,169,170
 662 -102 662 -102 685 -97 c 0,171,172
 723 -88 723 -88 753 -57 c 0,173,174
 769 -41 769 -41 777 -22 c 0,175,176
 785 -4 785 -4 785 15 c 0,177,178
 785 36 785 36 776 53 c 0,179,180
 764 78 764 78 739 90 c 0,181,182
 725 97 725 97 706 98 c 0,183,184
 665 99 665 99 617 78 c 0,185,186
 604 72 604 72 603.5 72.5 c 128,-1,187
 603 73 603 73 607 84 c 0,188,189
 613 102 613 102 614 119 c 0,190,191
 617 149 617 149 606 195 c 0,192,193
 590 270 590 270 570 339 c 0,194,195
 566 350 566 350 564 358 c 128,-1,196
 562 366 562 366 551 398.5 c 128,-1,197
 540 431 540 431 538 439 c 2,198,-1
 535 446 l 1,199,200
 535 445 535 445 531.5 434.5 c 128,-1,201
 528 424 528 424 522.5 405.5 c 128,-1,202
 517 387 517 387 513 373 c 0,203,204
 501 332 501 332 479 265 c 0,205,206
 460 204 460 204 461 189 c 0,207,208
 463 156 463 156 485 150 c 0,209,210
 492 149 492 149 488 147 c 0,211,212
 487 146 487 146 476 140 c 0,213,214
 453 127 453 127 427 109 c 0,215,216
 403 92 403 92 370 62 c 0,217,218
 355 49 355 49 339 38 c 0,219,220
 325 28 325 28 324 30 c 2,221,222
 324 30 324 30 326 33.5 c 128,-1,223
 328 37 328 37 330 39 c 0,224,225
 342 56 342 56 349 79 c 0,226,227
 357 103 357 103 358 134 c 0,228,229
 359 155 359 155 357 167 c 0,230,231
 352 200 352 200 339 251 c 0,232,233
 331 284 331 284 328 296 c 0,234,235
 324 314 324 314 313 353 c 0,236,237
 310 364 310 364 308 371 c 0,238,239
 302 397 302 397 294 424 c 0,240,241
 290 439 290 439 286 452 c 0,242,243
 260 547 260 547 245 563 c 0,244,245
 227 583 227 583 197 575 c 0,246,247
 161 566 161 566 150 532 c 0,248,249
 144 514 144 514 150 497 c 0,250,251
 153 488 153 488 153 487 c 0,252,253
 153 484 153 484 146 492 c 0,254,255
 137 503 137 503 132 514 c 0,256,257
 127 526 127 526 126 543 c 0,258,259
 123 579 123 579 157 618 c 0,260,261
 170 633 170 633 193.5 656 c 128,-1,262
 217 679 217 679 229 688 c 0,263,264
 236 693 236 693 242 697 c 0,37,38
EndSplineSet
EndChar

StartChar: X
Encoding: 88 88 36
Width: 1000
GlyphClass: 1
Flags: W
LayerCount: 2
Fore
SplineSet
301 697 m 0,0,1
 307 699 307 699 311 699 c 2,2,-1
 314 699 l 1,3,-1
 310 696 l 2,4,5
 291 680 291 680 285 663 c 0,6,7
 283 656 283 656 283 649 c 0,8,9
 283 634 283 634 292 626 c 128,-1,10
 301 618 301 618 321 613 c 0,11,12
 348 608 348 608 420 612 c 0,13,14
 446 614 446 614 447 613 c 1,15,-1
 443 610 l 2,16,17
 435 605 435 605 429.5 593.5 c 128,-1,18
 424 582 424 582 424 571 c 0,19,20
 424 553 424 553 447 515 c 0,21,22
 455 501 455 501 498 432 c 2,23,-1
 514 405 l 1,24,-1
 538 442 l 2,25,26
 589 517 589 517 597 537 c 0,27,28
 604 555 604 555 604 569 c 0,29,30
 604 578 604 578 602 584 c 0,31,32
 596 596 596 596 581 606 c 0,33,34
 574 611 574 611 573 611 c 1,35,-1
 575 613 l 2,36,37
 577 614 577 614 630 614 c 128,-1,38
 683 614 683 614 717 615.5 c 128,-1,39
 751 617 751 617 758 616 c 2,40,-1
 765 616 l 1,41,-1
 761 614 l 2,42,43
 729 600 729 600 698 577 c 0,44,45
 656 546 656 546 596 462 c 0,46,47
 563 416 563 416 544 385 c 0,48,49
 541 379 541 379 538 375 c 128,-1,50
 535 371 535 371 536 369 c 0,51,52
 538 361 538 361 614 239 c 0,53,54
 655 173 655 173 689 136 c 0,55,56
 724 97 724 97 761 93 c 0,57,58
 769 92 769 92 769.5 91.5 c 128,-1,59
 770 91 770 91 766.5 88 c 128,-1,60
 763 85 763 85 729 58 c 128,-1,61
 695 31 695 31 662 2 c 0,62,63
 601 -51 601 -51 576 -69 c 128,-1,64
 551 -87 551 -87 523 -98 c 0,65,66
 492 -110 492 -110 458 -108 c 0,67,68
 433 -107 433 -107 415 -98 c 0,69,70
 384 -83 384 -83 376 -53 c 0,71,72
 372 -38 372 -38 378 -22 c 0,73,74
 391 13 391 13 430 25 c 0,75,76
 437 27 437 27 455 27 c 128,-1,77
 473 27 473 27 483 25 c 0,78,79
 512 18 512 18 555 -6 c 0,80,81
 568 -13 568 -13 576 -17 c 2,82,-1
 585 -21 l 1,83,-1
 590 -17 l 2,84,85
 594 -13 594 -13 607 0 c 0,86,87
 650 43 650 43 634 62 c 0,88,89
 626 71 626 71 598 77 c 0,90,91
 577 82 577 82 535 81 c 0,92,93
 525 81 525 81 525 81 c 1,94,95
 525 82 525 82 527 83 c 128,-1,96
 529 84 529 84 532 85.5 c 128,-1,97
 535 87 535 87 539 89 c 0,98,99
 562 101 562 101 567.5 110 c 128,-1,100
 573 119 573 119 567 135 c 0,101,102
 561 155 561 155 530 205 c 0,103,104
 523 216 523 216 515 230 c 0,105,106
 477 292 477 292 476 292 c 0,107,108
 473 292 473 292 419 202 c 0,109,110
 400 169 400 169 396 156 c 0,111,112
 395 151 395 151 395 140 c 128,-1,113
 395 129 395 129 397 123 c 0,114,115
 408 97 408 97 432 84 c 0,116,117
 437 81 437 81 432 80 c 0,118,119
 430 80 430 80 425 79 c 0,120,121
 416 78 416 78 322 78 c 128,-1,122
 228 78 228 78 226 79 c 0,123,124
 225 80 225 80 227 81 c 0,125,126
 228 81 228 81 232 83 c 0,127,128
 263 95 263 95 291 116 c 0,129,130
 324 140 324 140 354 180 c 0,131,132
 370 202 370 202 394 238 c 0,133,134
 408 258 408 258 416.5 270 c 128,-1,135
 425 282 425 282 440 305 c 2,136,-1
 456 328 l 1,137,-1
 446 346 l 1,138,139
 386 444 386 444 361 482 c 0,140,141
 327 533 327 533 310 542 c 0,142,143
 298 549 298 549 278 552 c 0,144,145
 241 558 241 558 230 578 c 0,146,147
 212 612 212 612 238 650 c 0,148,149
 249 666 249 666 264.5 678 c 128,-1,150
 280 690 280 690 301 697 c 0,0,1
451 -14 m 0,151,152
 436 -12 436 -12 426 -17 c 0,153,154
 415 -23 415 -23 410 -31 c 0,155,156
 408 -35 408 -35 408 -43 c 128,-1,157
 408 -51 408 -51 411 -58 c 0,158,159
 421 -78 421 -78 447 -82 c 128,-1,160
 473 -86 473 -86 505 -72 c 0,161,162
 520 -66 520 -66 529 -61 c 0,163,164
 533 -58 533 -58 532 -56 c 0,165,166
 526 -50 526 -50 502 -36 c 0,167,168
 471 -17 471 -17 451 -14 c 0,151,152
EndSplineSet
EndChar

StartChar: Y
Encoding: 89 89 37
Width: 1000
GlyphClass: 1
Flags: W
LayerCount: 2
Fore
SplineSet
294 747 m 0,0,1
 300 749 300 749 301 749 c 128,-1,2
 302 749 302 749 296 744 c 0,3,4
 284 733 284 733 277 718 c 0,5,6
 271 707 271 707 273 695 c 0,7,8
 278 671 278 671 307 664 c 0,9,10
 328 659 328 659 365 660.5 c 128,-1,11
 402 662 402 662 432 669 c 0,12,13
 443 671 443 671 444 671 c 1,14,-1
 440 668 l 2,15,16
 435 664 435 664 425 654 c 128,-1,17
 415 644 415 644 412 640 c 0,18,19
 399 620 399 620 399 598 c 0,20,21
 399 589 399 589 404.5 576 c 128,-1,22
 410 563 410 563 430 523 c 0,23,24
 482 419 482 419 500 387 c 0,25,26
 529 333 529 333 530 333 c 256,27,28
 531 333 531 333 532.5 337.5 c 128,-1,29
 534 342 534 342 543 361 c 0,30,31
 574 431 574 431 601 520 c 0,32,33
 621 585 621 585 622 593 c 0,34,35
 623 605 623 605 614 619.5 c 128,-1,36
 605 634 605 634 593 641 c 128,-1,37
 581 648 581 648 562 654 c 0,38,39
 554 657 554 657 554 657 c 2,40,41
 553 657 553 657 557.5 657.5 c 128,-1,42
 562 658 562 658 569 658 c 128,-1,43
 576 658 576 658 585 658 c 0,44,45
 618 658 618 658 630 660 c 0,46,47
 662 666 662 666 684 682 c 0,48,49
 700 693 700 693 705 701 c 0,50,51
 707 704 707 704 709 704 c 128,-1,52
 711 704 711 704 720 700 c 0,53,54
 761 684 761 684 812 682 c 0,55,56
 830 682 830 682 834 681 c 2,57,-1
 838 681 l 1,58,-1
 832 679 l 1,59,60
 800 673 800 673 766 650 c 0,61,62
 747 638 747 638 735 623 c 0,63,64
 721 607 721 607 711 587.5 c 128,-1,65
 701 568 701 568 683 522 c 0,66,67
 606 328 606 328 550 199 c 0,68,69
 510 106 510 106 476.5 52 c 128,-1,70
 443 -2 443 -2 403 -37 c 0,71,72
 371 -67 371 -67 341 -80 c 0,73,74
 289 -105 289 -105 240 -93 c 0,75,76
 185 -79 185 -79 170 -32 c 0,77,78
 160 0 160 0 167 29 c 0,79,80
 172 47 172 47 182 62 c 0,81,82
 196 84 196 84 218 94 c 0,83,84
 234 101 234 101 255 101 c 0,85,86
 270 101 270 101 280 99 c 0,87,88
 317 88 317 88 329 57 c 0,89,90
 331 50 331 50 331 49 c 1,91,92
 330 49 330 49 327 52 c 0,93,94
 316 63 316 63 292 64 c 0,95,96
 245 67 245 67 229 33 c 0,97,98
 218 10 218 10 230 -11 c 0,99,100
 244 -38 244 -38 280 -36 c 0,101,102
 330 -32 330 -32 386 32 c 0,103,104
 415 64 415 64 439 106.5 c 128,-1,105
 463 149 463 149 472 181 c 0,106,107
 475 192 475 192 475 207 c 0,108,109
 475 227 475 227 467 252 c 0,110,111
 460 273 460 273 347 486 c 0,112,113
 309 558 309 558 303 567 c 0,114,115
 289 586 289 586 257 594 c 0,116,117
 247 597 247 597 242 599 c 0,118,119
 225 609 225 609 218 630 c 0,120,121
 216 636 216 636 216 650 c 128,-1,122
 216 664 216 664 219 672 c 0,123,124
 227 701 227 701 251 720.5 c 128,-1,125
 275 740 275 740 294 747 c 0,0,1
EndSplineSet
EndChar

StartChar: Z
Encoding: 90 90 38
Width: 1000
GlyphClass: 1
Flags: W
LayerCount: 2
Fore
SplineSet
323 735 m 0,0,1
 331 740 331 740 331 740 c 129,-1,2
 331 740 331 740 329 737 c 128,-1,3
 327 734 327 734 324 728 c 0,4,5
 307 690 307 690 334 665 c 0,6,7
 349 651 349 651 374.5 645.5 c 128,-1,8
 400 640 400 640 451 639 c 0,9,10
 558 638 558 638 707 662 c 0,11,12
 753 669 753 669 754.5 669 c 128,-1,13
 756 669 756 669 738 652 c 0,14,15
 713 626 713 626 693 598.5 c 128,-1,16
 673 571 673 571 605 467 c 0,17,18
 565 405 565 405 560 398 c 2,19,-1
 555 390 l 1,20,-1
 563 390 l 2,21,22
 572 389 572 389 595.5 389.5 c 128,-1,23
 619 390 619 390 626.5 391.5 c 128,-1,24
 634 393 634 393 634 393 c 1,25,26
 634 390 634 390 618 374 c 128,-1,27
 602 358 602 358 591 351 c 0,28,29
 574 338 574 338 557 333 c 0,30,31
 549 331 549 331 528 330 c 2,32,-1
 506 330 l 1,33,-1
 478 289 l 2,34,35
 432 224 432 224 403 183 c 0,36,37
 393 170 393 170 393 169 c 128,-1,38
 393 168 393 168 399 168 c 0,39,40
 424 168 424 168 495 158 c 0,41,42
 545 151 545 151 574 151 c 0,43,44
 613 150 613 150 637 155 c 0,45,46
 672 162 672 162 692 178 c 0,47,48
 720 199 720 199 731 227 c 1,49,-1
 732 232 l 1,50,-1
 732 227 l 2,51,52
 733 179 733 179 703 119 c 2,53,-1
 697 107 l 1,54,-1
 722 107 l 2,55,56
 747 107 747 107 756 105 c 0,57,58
 792 97 792 97 816 77.5 c 128,-1,59
 840 58 840 58 847 30 c 0,60,61
 856 -5 856 -5 839 -40 c 0,62,63
 828 -64 828 -64 807.5 -82 c 128,-1,64
 787 -100 787 -100 763 -108 c 0,65,66
 731 -119 731 -119 699 -111 c 0,67,68
 669 -103 669 -103 650 -82 c 2,69,-1
 643 -72 l 1,70,71
 644 -73 644 -73 650 -77 c 0,72,73
 673 -92 673 -92 705 -93 c 0,74,75
 727 -94 727 -94 744 -88 c 0,76,77
 781 -74 781 -74 792 -41 c 0,78,79
 798 -23 798 -23 794 -3 c 0,80,81
 787 30 787 30 754 46 c 0,82,83
 714 66 714 66 647 48 c 0,84,85
 589 34 589 34 509 -12 c 0,86,87
 382 -83 382 -83 302 -81 c 0,88,89
 269 -79 269 -79 243 -68 c 0,90,91
 204 -51 204 -51 191 -19 c 0,92,93
 186 -5 186 -5 185 17 c 0,94,95
 183 43 183 43 175 57 c 0,96,97
 172 62 172 62 165 69 c 128,-1,98
 158 76 158 76 155 77 c 0,99,100
 153 77 153 77 153 78 c 128,-1,101
 153 79 153 79 161 82 c 0,102,103
 183 89 183 89 211 107 c 0,104,105
 259 138 259 138 296 178 c 0,106,107
 327 212 327 212 393 308 c 2,108,-1
 411 335 l 1,109,-1
 405 335 l 2,110,111
 396 336 396 336 376 336 c 128,-1,112
 356 336 356 336 350 335 c 0,113,114
 314 330 314 330 297 304 c 2,115,-1
 293 299 l 1,116,-1
 293 302 l 2,117,118
 293 313 293 313 301 331 c 0,119,120
 306 344 306 344 319 358 c 0,121,122
 345 385 345 385 379 393 c 0,123,124
 384 394 384 394 419 394.5 c 128,-1,125
 454 395 454 395 454.5 395.5 c 128,-1,126
 455 396 455 396 498 460 c 128,-1,127
 541 524 541 524 556 545.5 c 128,-1,128
 571 567 571 567 572 568 c 0,129,130
 572 569 572 569 568.5 569 c 128,-1,131
 565 569 565 569 552.5 569 c 128,-1,132
 540 569 540 569 520.5 569 c 128,-1,133
 501 569 501 569 466 569 c 0,134,135
 381 569 381 569 366 568.5 c 128,-1,136
 351 568 351 568 339 564 c 0,137,138
 309 555 309 555 304 528 c 0,139,140
 300 509 300 509 309 491 c 0,141,142
 312 486 312 486 311.5 486 c 128,-1,143
 311 486 311 486 306.5 490.5 c 128,-1,144
 302 495 302 495 296.5 501 c 128,-1,145
 291 507 291 507 288 511 c 0,146,147
 263 545 263 545 256 586 c 0,148,149
 254 597 254 597 254.5 617.5 c 128,-1,150
 255 638 255 638 258 650 c 0,151,152
 262 668 262 668 271 682 c 0,153,154
 288 711 288 711 323 735 c 0,0,1
372 88 m 0,155,156
 336 93 336 93 311 90 c 0,157,158
 307 90 307 90 296 89 c 0,159,160
 244 84 244 84 220 62 c 128,-1,161
 196 40 196 40 211 11 c 0,162,163
 226 -20 226 -20 283 -30 c 0,164,165
 313 -35 313 -35 350 -29 c 0,166,167
 411 -19 411 -19 499 18 c 0,168,169
 523 29 523 29 529 31 c 2,170,-1
 536 34 l 1,171,-1
 532 36 l 2,172,173
 529 37 529 37 508 46 c 0,174,175
 431 80 431 80 372 88 c 0,155,156
EndSplineSet
EndChar

StartChar: a
Encoding: 97 97 39
Width: 876
GlyphClass: 1
Flags: W
LayerCount: 2
Fore
SplineSet
303.9375 189.625 m 0,0,1
 309.9375 190.375 309.9375 190.375 327.1875 190.375 c 128,-1,2
 344.4375 190.375 344.4375 190.375 348.9375 189.625 c 0,3,4
 351.9375 189.625 351.9375 189.625 357.1875 188.875 c 128,-1,5
 362.4375 188.125 362.4375 188.125 365.4375 187.375 c 0,6,7
 377.4375 185.875 377.4375 185.875 400.6875 178.375 c 0,8,9
 421.6875 171.625 421.6875 171.625 442.6875 161.125 c 0,10,11
 465.1875 150.625 465.1875 150.625 516.9375 116.125 c 0,12,13
 564.9375 84.625 564.9375 84.625 597.9375 68.875 c 0,14,15
 627.1875 53.875 627.1875 53.875 657.9375 48.625 c 0,16,17
 668.4375 46.375 668.4375 46.375 686.0625 46.375 c 128,-1,18
 703.6875 46.375 703.6875 46.375 710.4375 47.875 c 0,19,20
 753.1875 58.375 753.1875 58.375 762.1875 96.625 c 0,21,22
 768.1875 121.375 768.1875 121.375 755.4375 140.125 c 0,23,24
 741.9375 159.625 741.9375 159.625 715.6875 164.125 c 0,25,26
 700.6875 166.375 700.6875 166.375 686.4375 160.375 c 128,-1,27
 672.1875 154.375 672.1875 154.375 665.4375 142.375 c 0,28,29
 660.1875 131.875 660.1875 131.875 660.9375 122.875 c 0,30,31
 661.6875 118.375 661.6875 118.375 662.4375 117.625 c 1,32,-1
 660.1875 118.375 l 2,33,34
 658.6875 119.875 658.6875 119.875 656.4375 124.375 c 0,35,36
 648.9375 140.875 648.9375 140.875 657.1875 158.125 c 0,37,38
 663.9375 171.625 663.9375 171.625 679.6875 180.625 c 0,39,40
 695.4375 190.375 695.4375 190.375 718.6875 190.375 c 0,41,42
 729.9375 190.375 729.9375 190.375 738.1875 188.125 c 0,43,44
 760.6875 182.875 760.6875 182.875 775.6875 167.875 c 0,45,46
 789.1875 154.375 789.1875 154.375 795.1875 135.625 c 0,47,48
 798.9375 123.625 798.9375 123.625 798.9375 107.875 c 0,49,50
 798.9375 94.375 798.9375 94.375 796.6875 86.125 c 0,51,52
 790.6875 59.875 790.6875 59.875 771.1875 39.625 c 0,53,54
 746.4375 13.375 746.4375 13.375 704.4375 8.125 c 0,55,56
 668.4375 3.625 668.4375 3.625 632.4375 11.875 c 0,57,58
 585.9375 21.625 585.9375 21.625 530.4375 53.125 c 0,59,60
 500.4375 69.625 500.4375 69.625 474.1875 86.125 c 0,61,62
 405.1875 130.375 405.1875 130.375 372.9375 143.875 c 0,63,64
 327.9375 162.625 327.9375 162.625 293.4375 153.625 c 0,65,66
 264.1875 146.125 264.1875 146.125 250.6875 123.625 c 0,67,68
 234.1875 97.375 234.1875 97.375 251.4375 64.375 c 0,69,70
 256.6875 53.875 256.6875 53.875 267.1875 44.875 c 0,71,72
 288.1875 28.375 288.1875 28.375 320.4375 28.375 c 0,73,74
 347.4375 28.375 347.4375 28.375 371.4375 42.625 c 0,75,76
 375.9375 44.125 375.9375 44.125 375.1875 43.375 c 0,77,78
 373.6875 36.625 373.6875 36.625 364.6875 28.375 c 0,79,80
 348.1875 12.625 348.1875 12.625 322.6875 8.5 c 128,-1,81
 297.1875 4.375 297.1875 4.375 271.6875 12.625 c 0,82,83
 228.9375 26.875 228.9375 26.875 214.6875 69.625 c 0,84,85
 209.4375 84.625 209.4375 84.625 210.5625 103 c 128,-1,86
 211.6875 121.375 211.6875 121.375 218.4375 134.875 c 0,87,88
 229.6875 156.625 229.6875 156.625 252.1875 171.25 c 128,-1,89
 274.6875 185.875 274.6875 185.875 303.9375 189.625 c 0,0,1
385.6875 624.625 m 0,90,91
 390.9375 626.875 390.9375 626.875 392.0625 626.875 c 128,-1,92
 393.1875 626.875 393.1875 626.875 388.6875 622.375 c 0,93,94
 380.4375 612.625 380.4375 612.625 375.9375 597.625 c 0,95,96
 372.9375 585.625 372.9375 585.625 375.1875 576.625 c 0,97,98
 375.9375 573.625 375.9375 573.625 378.1875 569.125 c 0,99,100
 390.9375 542.875 390.9375 542.875 433.6875 542.875 c 0,101,102
 446.4375 542.875 446.4375 542.875 467.4375 547.375 c 0,103,104
 500.4375 553.375 500.4375 553.375 526.6875 548.875 c 0,105,106
 561.1875 542.125 561.1875 542.125 581.4375 522.625 c 0,107,108
 597.9375 506.125 597.9375 506.125 602.4375 480.625 c 0,109,110
 603.1875 476.875 603.1875 476.875 603.5625 382.75 c 128,-1,111
 603.9375 288.625 603.9375 288.625 605.4375 285.625 c 0,112,113
 612.9375 263.875 612.9375 263.875 636.9375 263.875 c 0,114,115
 648.1875 263.875 648.1875 263.875 661.6875 269.875 c 0,116,117
 668.4375 272.125 668.4375 272.125 668.4375 272.125 c 2,118,119
 669.1875 271.375 669.1875 271.375 668.4375 270.625 c 128,-1,120
 667.6875 269.875 667.6875 269.875 665.8125 268.375 c 128,-1,121
 663.9375 266.875 663.9375 266.875 660.9375 264.25 c 128,-1,122
 657.9375 261.625 657.9375 261.625 653.4375 257.125 c 0,123,124
 642.9375 248.125 642.9375 248.125 642.1875 248.125 c 0,125,126
 639.9375 245.125 639.9375 245.125 606.9375 217.375 c 0,127,128
 602.4375 213.625 602.4375 213.625 599.4375 211.375 c 0,129,130
 595.6875 207.625 595.6875 207.625 588.9375 207.625 c 0,131,132
 567.9375 209.125 567.9375 209.125 549.9375 225.625 c 0,133,134
 538.6875 235.375 538.6875 235.375 534.1875 251.125 c 0,135,136
 533.4375 255.625 533.4375 255.625 532.3125 264.25 c 128,-1,137
 531.1875 272.875 531.1875 272.875 530.4375 275.875 c 2,138,-1
 530.4375 278.125 l 1,139,-1
 524.4375 272.875 l 2,140,141
 518.4375 267.625 518.4375 267.625 513.9375 263.5 c 128,-1,142
 509.4375 259.375 509.4375 259.375 507.1875 257.125 c 0,143,144
 485.4375 237.625 485.4375 237.625 462.1875 224.125 c 0,145,146
 445.6875 213.625 445.6875 213.625 423.1875 209.125 c 0,147,148
 397.6875 203.875 397.6875 203.875 369.9375 213.625 c 0,149,150
 351.9375 219.625 351.9375 219.625 338.0625 235.375 c 128,-1,151
 324.1875 251.125 324.1875 251.125 319.6875 270.625 c 0,152,153
 318.1875 277.375 318.1875 277.375 318.1875 291.25 c 128,-1,154
 318.1875 305.125 318.1875 305.125 320.4375 311.875 c 0,155,156
 330.9375 354.625 330.9375 354.625 378.9375 382.375 c 0,157,158
 403.6875 397.375 403.6875 397.375 510.9375 427.375 c 0,159,160
 528.9375 431.875 528.9375 431.875 529.6875 432.625 c 0,161,162
 531.1875 434.125 531.1875 434.125 527.4375 459.625 c 0,163,164
 523.6875 480.625 523.6875 480.625 511.6875 493.375 c 0,165,166
 505.6875 498.625 505.6875 498.625 498.9375 502.375 c 0,167,168
 486.1875 508.375 486.1875 508.375 468.1875 508.375 c 0,169,170
 454.6875 508.375 454.6875 508.375 447.1875 506.125 c 0,171,172
 435.9375 503.125 435.9375 503.125 425.4375 497.875 c 0,173,174
 413.4375 491.125 413.4375 491.125 406.6875 479.125 c 0,175,176
 404.4375 474.625 404.4375 474.625 403.6875 474.625 c 128,-1,177
 402.9375 474.625 402.9375 474.625 395.4375 476.125 c 0,178,179
 361.6875 484.375 361.6875 484.375 342.9375 503.5 c 128,-1,180
 324.1875 522.625 324.1875 522.625 324.1875 549.25 c 128,-1,181
 324.1875 575.875 324.1875 575.875 346.6875 598.375 c 0,182,183
 364.6875 616.375 364.6875 616.375 385.6875 624.625 c 0,90,91
528.9375 368.875 m 0,184,185
 529.6875 402.625 529.6875 402.625 529.6875 404.125 c 2,186,187
 529.6875 404.125 529.6875 404.125 529.6875 404.875 c 0,188,189
 529.6875 406.375 529.6875 406.375 507.9375 398.875 c 1,190,-1
 507.1875 398.875 l 1,191,-1
 506.4375 398.875 l 1,192,-1
 506.4375 398.125 l 1,193,-1
 504.9375 398.125 l 1,194,195
 455.4375 381.625 455.4375 381.625 431.8125 365.875 c 128,-1,196
 408.1875 350.125 408.1875 350.125 400.6875 327.625 c 0,197,198
 393.1875 305.875 393.1875 305.875 403.6875 286.375 c 0,199,200
 410.4375 274.375 410.4375 274.375 423.1875 267.625 c 0,201,202
 435.1875 261.625 435.1875 261.625 450.1875 261.625 c 0,203,204
 460.6875 261.625 460.6875 261.625 466.6875 263.875 c 0,205,206
 486.1875 269.125 486.1875 269.125 501.5625 284.875 c 128,-1,207
 516.9375 300.625 516.9375 300.625 524.4375 320.125 c 0,208,209
 528.1875 331.375 528.1875 331.375 528.9375 368.875 c 0,184,185
EndSplineSet
EndChar

StartChar: b
Encoding: 98 98 40
Width: 879
GlyphClass: 1
Flags: W
LayerCount: 2
Fore
SplineSet
636.1875 101.125 m 0,0,1
 641.4375 101.875 641.4375 101.875 654.1875 101.875 c 128,-1,2
 666.9375 101.875 666.9375 101.875 672.9375 100.375 c 0,3,4
 708.1875 90.625 708.1875 90.625 716.4375 58.375 c 0,5,6
 717.9375 52.375 717.9375 52.375 717.5625 42.25 c 128,-1,7
 717.1875 32.125 717.1875 32.125 715.6875 26.125 c 0,8,9
 710.4375 7.375 710.4375 7.375 696.1875 -7.625 c 128,-1,10
 681.9375 -22.625 681.9375 -22.625 662.4375 -27.875 c 0,11,12
 645.9375 -32.375 645.9375 -32.375 631.6875 -29.375 c 0,13,14
 612.1875 -24.875 612.1875 -24.875 608.4375 -13.625 c 0,15,16
 606.9375 -8.375 606.9375 -8.375 609.9375 -12.125 c 0,17,18
 618.9375 -19.625 618.9375 -19.625 633.9375 -18.875 c 0,19,20
 648.1875 -18.125 648.1875 -18.125 659.4375 -11.375 c 0,21,22
 677.4375 0.625 677.4375 0.625 678.9375 19.375 c 128,-1,23
 680.4375 38.125 680.4375 38.125 664.6875 47.875 c 0,24,25
 654.9375 53.875 654.9375 53.875 639.1875 53.875 c 0,26,27
 615.9375 53.875 615.9375 53.875 588.1875 41.125 c 0,28,29
 576.1875 35.875 576.1875 35.875 537.9375 14.125 c 0,30,31
 494.4375 -10.625 494.4375 -10.625 471.1875 -18.875 c 0,32,33
 432.9375 -30.875 432.9375 -30.875 403.6875 -21.125 c 0,34,35
 384.9375 -15.125 384.9375 -15.125 374.4375 -3.875 c 0,36,37
 367.6875 3.625 367.6875 3.625 367.6875 6.625 c 0,38,39
 367.6875 7.375 367.6875 7.375 372.1875 3.625 c 0,40,41
 386.4375 -9.875 386.4375 -9.875 414.9375 -9.875 c 0,42,43
 446.4375 -9.875 446.4375 -9.875 479.4375 9.625 c 0,44,45
 492.1875 17.125 492.1875 17.125 514.6875 34.375 c 0,46,47
 593.4375 95.875 593.4375 95.875 636.1875 101.125 c 0,0,1
404.4375 656.875 m 128,-1,49
 409.6875 657.625 409.6875 657.625 411.9375 658.375 c 0,50,51
 414.1875 658.375 414.1875 658.375 412.6875 656.875 c 0,52,53
 411.9375 656.875 411.9375 656.875 409.6875 655.375 c 0,54,55
 392.4375 647.875 392.4375 647.875 383.4375 620.875 c 0,56,57
 381.9375 614.125 381.9375 614.125 382.3125 604.375 c 128,-1,58
 382.6875 594.625 382.6875 594.625 384.1875 590.125 c 0,59,60
 387.9375 579.625 387.9375 579.625 396.1875 571.375 c 0,61,62
 414.9375 552.625 414.9375 552.625 441.9375 552.625 c 0,63,64
 460.6875 552.625 460.6875 552.625 485.4375 561.625 c 0,65,66
 493.6875 565.375 493.6875 565.375 494.8125 565.375 c 128,-1,67
 495.9375 565.375 495.9375 565.375 495.5625 468.625 c 128,-1,68
 495.1875 371.875 495.1875 371.875 495.5625 370 c 128,-1,69
 495.9375 368.125 495.9375 368.125 497.0625 368.125 c 128,-1,70
 498.1875 368.125 498.1875 368.125 509.4375 378.625 c 0,71,72
 561.9375 430.375 561.9375 430.375 585.1875 437.875 c 0,73,74
 597.9375 441.625 597.9375 441.625 612.1875 437.875 c 0,75,76
 632.4375 432.625 632.4375 432.625 654.9375 416.125 c 0,77,78
 670.6875 404.125 670.6875 404.125 681.1875 389.875 c 0,79,80
 705.1875 358.375 705.1875 358.375 710.4375 318.625 c 0,81,82
 711.1875 314.875 711.1875 314.875 711.1875 313.375 c 128,-1,83
 711.1875 311.875 711.1875 311.875 711.9375 296.875 c 0,84,85
 712.6875 266.125 712.6875 266.125 703.6875 239.875 c 0,86,87
 694.6875 214.375 694.6875 214.375 673.6875 189.625 c 0,88,89
 655.6875 167.875 655.6875 167.875 627.9375 149.125 c 0,90,91
 608.4375 136.375 608.4375 136.375 567.9375 113.875 c 0,92,93
 519.9375 86.875 519.9375 86.875 515.4375 80.875 c 0,94,95
 513.1875 78.625 513.1875 78.625 507.1875 83.875 c 0,96,97
 481.6875 106.375 481.6875 106.375 446.8125 122.5 c 128,-1,98
 411.9375 138.625 411.9375 138.625 381.1875 143.125 c 0,99,100
 351.1875 146.875 351.1875 146.875 327.9375 138.625 c 0,101,102
 321.9375 137.125 321.9375 137.125 321.9375 137.875 c 0,103,104
 322.6875 139.375 322.6875 139.375 333.9375 146.875 c 0,105,106
 370.6875 170.875 370.6875 170.875 384.9375 190.375 c 0,107,108
 394.6875 204.625 394.6875 204.625 399.1875 224.125 c 0,109,110
 401.4375 237.625 401.4375 237.625 401.4375 351.625 c 0,111,112
 401.4375 456.625 401.4375 456.625 399.9375 463.375 c 0,113,114
 396.9375 474.625 396.9375 474.625 393.1875 482.875 c 0,115,116
 385.6875 497.125 385.6875 497.125 368.4375 506.125 c 0,117,118
 343.6875 518.125 343.6875 518.125 334.6875 536.125 c 0,119,120
 323.4375 559.375 323.4375 559.375 330.1875 587.875 c 0,121,122
 335.4375 608.875 335.4375 608.875 352.3125 626.5 c 128,-1,123
 369.1875 644.125 369.1875 644.125 393.9375 653.875 c 0,124,48
 399.1875 656.125 399.1875 656.125 404.4375 656.875 c 128,-1,49
560.4375 365.125 m 256,125,126
 548.4375 368.125 548.4375 368.125 539.4375 366.625 c 0,127,128
 529.6875 365.125 529.6875 365.125 516.9375 357.625 c 128,-1,129
 504.1875 350.125 504.1875 350.125 498.1875 343.375 c 2,130,-1
 495.9375 340.375 l 1,131,-1
 495.9375 277.375 l 2,132,133
 495.1875 215.125 495.1875 215.125 495.9375 209.125 c 0,134,135
 497.4375 200.125 497.4375 200.125 505.6875 188.875 c 0,136,137
 516.9375 172.375 516.9375 172.375 535.3125 162.25 c 128,-1,138
 553.6875 152.125 553.6875 152.125 567.1875 155.125 c 0,139,140
 579.1875 157.375 579.1875 157.375 593.4375 171.625 c 0,141,142
 628.6875 205.375 628.6875 205.375 626.4375 263.875 c 0,143,144
 625.6875 284.875 625.6875 284.875 619.6875 302.125 c 0,145,146
 609.1875 334.375 609.1875 334.375 583.6875 353.125 c 0,147,148
 572.4375 362.125 572.4375 362.125 560.4375 365.125 c 256,125,126
EndSplineSet
EndChar

StartChar: c
Encoding: 99 99 41
Width: 869
GlyphClass: 1
Flags: W
LayerCount: 2
Fore
SplineSet
565.375 74.4375 m 0,0,1
 583.375 76.6875 583.375 76.6875 599.875 73.6875 c 0,2,3
 640.375 66.1875 640.375 66.1875 652.375 31.6875 c 0,4,5
 653.875 26.4375 653.875 26.4375 653.875 16.6875 c 0,6,7
 653.875 3.1875 653.875 3.1875 648.25 -7.6875 c 128,-1,8
 642.625 -18.5625 642.625 -18.5625 632.875 -26.8125 c 0,9,10
 619.375 -37.3125 619.375 -37.3125 603.625 -39.5625 c 128,-1,11
 587.875 -41.8125 587.875 -41.8125 575.125 -35.8125 c 0,12,13
 564.625 -30.5625 564.625 -30.5625 560.125 -21.5625 c 0,14,15
 558.625 -17.8125 558.625 -17.8125 558.625 -17.0625 c 256,16,17
 558.625 -16.3125 558.625 -16.3125 561.625 -19.3125 c 0,18,19
 578.125 -32.8125 578.125 -32.8125 597.625 -23.0625 c 0,20,21
 608.125 -17.8125 608.125 -17.8125 611.5 -9.5625 c 128,-1,22
 614.875 -1.3125 614.875 -1.3125 611.125 9.1875 c 0,23,24
 603.625 28.6875 603.625 28.6875 575.875 36.1875 c 0,25,26
 547.375 43.6875 547.375 43.6875 513.625 31.6875 c 0,27,28
 496.375 25.6875 496.375 25.6875 461.875 6.1875 c 0,29,30
 435.625 -7.3125 435.625 -7.3125 416.875 -12.5625 c 0,31,32
 380.125 -21.5625 380.125 -21.5625 353.875 -2.8125 c 0,33,34
 342.625 4.6875 342.625 4.6875 342.625 7.6875 c 1,35,36
 342.625 7.6875 342.625 7.6875 347.125 5.4375 c 0,37,38
 362.875 -2.0625 362.875 -2.0625 383.125 -2.0625 c 0,39,40
 393.625 -2.0625 393.625 -2.0625 397.375 -1.3125 c 0,41,42
 415.375 1.6875 415.375 1.6875 431.125 9.1875 c 128,-1,43
 446.875 16.6875 446.875 16.6875 476.125 35.4375 c 0,44,45
 497.875 49.6875 497.875 49.6875 512.125 57.1875 c 0,46,47
 539.875 70.6875 539.875 70.6875 565.375 74.4375 c 0,0,1
429.625 639.9375 m 0,48,49
 434.875 641.4375 434.875 641.4375 435.25 641.0625 c 128,-1,50
 435.625 640.6875 435.625 640.6875 431.875 637.6875 c 0,51,52
 419.875 626.4375 419.875 626.4375 414.625 608.4375 c 0,53,54
 410.125 593.4375 410.125 593.4375 413.125 579.1875 c 0,55,56
 416.125 567.9375 416.125 567.9375 423.625 556.6875 c 0,57,58
 434.125 542.4375 434.125 542.4375 447.625 535.6875 c 2,59,-1
 451.375 533.4375 l 1,60,-1
 473.125 543.9375 l 2,61,62
 494.875 555.1875 494.875 555.1875 501.25 557.8125 c 128,-1,63
 507.625 560.4375 507.625 560.4375 509.875 561.1875 c 0,64,65
 523.375 567.9375 523.375 567.9375 548.125 575.4375 c 2,66,-1
 561.625 579.9375 l 1,67,-1
 569.125 578.4375 l 2,68,69
 632.125 567.9375 632.125 567.9375 680.875 527.4375 c 0,70,71
 682.375 526.6875 682.375 526.6875 678.625 523.6875 c 0,72,73
 650.875 498.1875 650.875 498.1875 629.875 474.1875 c 0,74,75
 615.625 457.6875 615.625 457.6875 597.625 434.4375 c 0,76,77
 581.125 411.9375 581.125 411.9375 577.75 408.1875 c 128,-1,78
 574.375 404.4375 574.375 404.4375 567.625 401.4375 c 0,79,80
 559.375 397.6875 559.375 397.6875 559.375 398.0625 c 128,-1,81
 559.375 398.4375 559.375 398.4375 562.375 405.1875 c 0,82,83
 569.875 420.1875 569.875 420.1875 574.375 435.9375 c 0,84,85
 579.625 452.4375 579.625 452.4375 580.375 468.9375 c 2,86,-1
 580.375 480.1875 l 1,87,-1
 575.125 483.9375 l 2,88,89
 531.625 513.1875 531.625 513.1875 491.125 513.1875 c 0,90,91
 472.375 513.1875 472.375 513.1875 458.875 504.1875 c 0,92,93
 443.875 493.6875 443.875 493.6875 429.625 471.9375 c 0,94,95
 400.375 426.9375 400.375 426.9375 395.875 364.6875 c 0,96,97
 388.375 276.9375 388.375 276.9375 428.125 224.4375 c 0,98,99
 471.625 165.9375 471.625 165.9375 546.625 161.4375 c 0,100,101
 560.875 160.6875 560.875 160.6875 580.375 162.9375 c 0,102,103
 607.375 167.4375 607.375 167.4375 633.625 181.6875 c 0,104,105
 650.125 190.6875 650.125 190.6875 666.625 206.4375 c 2,106,-1
 675.625 213.9375 l 1,107,-1
 677.125 212.4375 l 1,108,-1
 679.375 210.9375 l 1,109,-1
 674.125 202.6875 l 2,110,111
 629.125 132.9375 629.125 132.9375 564.625 102.9375 c 0,112,113
 534.625 88.6875 534.625 88.6875 500.125 86.4375 c 0,114,115
 459.625 84.1875 459.625 84.1875 428.875 91.6875 c 0,116,117
 396.625 99.1875 396.625 99.1875 367.375 117.9375 c 0,118,119
 291.625 168.1875 291.625 168.1875 278.125 261.1875 c 0,120,121
 271.375 313.6875 271.375 313.6875 285.625 363.9375 c 0,122,123
 299.125 409.6875 299.125 409.6875 330.625 449.4375 c 0,124,125
 346.375 468.9375 346.375 468.9375 366.625 486.1875 c 2,126,-1
 373.375 491.4375 l 1,127,-1
 370.375 495.1875 l 2,128,129
 362.125 509.4375 362.125 509.4375 358.375 526.6875 c 0,130,131
 353.875 547.6875 353.875 547.6875 358.375 567.1875 c 0,132,133
 363.625 588.9375 363.625 588.9375 377.875 606.1875 c 0,134,135
 399.625 631.6875 399.625 631.6875 429.625 639.9375 c 0,48,49
EndSplineSet
EndChar

StartChar: d
Encoding: 100 100 42
Width: 877
GlyphClass: 1
Flags: W
LayerCount: 2
Fore
SplineSet
548.625 116.75 m 0,0,1
 556.125 117.5 556.125 117.5 556.875 117.5 c 0,2,3
 565.875 118.25 565.875 118.25 583.125 114.5 c 0,4,5
 603.375 109.25 603.375 109.25 617.25 96.125 c 128,-1,6
 631.125 83 631.125 83 634.125 64.25 c 0,7,8
 636.375 54.5 636.375 54.5 634.875 45.5 c 0,9,10
 631.875 28.25 631.875 28.25 619.5 13.25 c 128,-1,11
 607.125 -1.75 607.125 -1.75 590.625 -7 c 0,12,13
 559.875 -18.25 559.875 -18.25 536.625 -2.5 c 0,14,15
 525.375 4.25 525.375 4.25 520.875 15.125 c 128,-1,16
 516.375 26 516.375 26 520.125 37.25 c 0,17,18
 521.625 40.25 521.625 40.25 522 40.25 c 128,-1,19
 522.375 40.25 522.375 40.25 523.125 36.5 c 0,20,21
 523.875 29.75 523.875 29.75 529.875 21.5 c 128,-1,22
 535.875 13.25 535.875 13.25 543.375 10.25 c 0,23,24
 553.125 5 553.125 5 565.125 5.75 c 0,25,26
 589.125 6.5 589.125 6.5 599.625 27.5 c 0,27,28
 607.875 42.5 607.875 42.5 602.625 56.75 c 0,29,30
 592.125 86.75 592.125 86.75 548.625 86.75 c 0,31,32
 533.625 86.75 533.625 86.75 518.625 82.25 c 128,-1,33
 503.625 77.75 503.625 77.75 469.125 64.25 c 0,34,35
 436.125 50.75 436.125 50.75 421.125 47 c 0,36,37
 402.375 43.25 402.375 43.25 385.125 45.5 c 0,38,39
 361.125 49.25 361.125 49.25 361.125 65 c 0,40,41
 361.125 73.25 361.125 73.25 366.375 77 c 0,42,43
 367.875 78.5 367.875 78.5 367.875 78.5 c 129,-1,44
 367.875 78.5 367.875 78.5 367.875 76.25 c 0,45,46
 367.125 71 367.125 71 373.125 66.5 c 0,47,48
 378.375 62.75 378.375 62.75 388.125 63.5 c 0,49,50
 400.125 64.25 400.125 64.25 435.375 79.25 c 0,51,52
 469.125 95 469.125 95 487.125 101 c 0,53,54
 524.625 115.25 524.625 115.25 548.625 116.75 c 0,0,1
493.875 622.25 m 0,55,56
 500.625 623.75 500.625 623.75 500.625 623 c 256,57,58
 500.625 622.25 500.625 622.25 498.375 620.75 c 0,59,60
 491.625 617 491.625 617 486 608.75 c 128,-1,61
 480.375 600.5 480.375 600.5 478.875 593 c 0,62,63
 478.125 588.5 478.125 588.5 478.125 583.25 c 0,64,65
 478.875 571.25 478.875 571.25 489.75 560.375 c 128,-1,66
 500.625 549.5 500.625 549.5 516.375 544.625 c 128,-1,67
 532.125 539.75 532.125 539.75 547.125 542.75 c 256,68,69
 562.125 545.75 562.125 545.75 590.625 566.75 c 0,70,71
 613.875 584 613.875 584 623.625 587 c 0,72,73
 624.375 587.75 624.375 587.75 624.75 587.375 c 128,-1,74
 625.125 587 625.125 587 622.875 583.25 c 0,75,76
 616.875 571.25 616.875 571.25 613.125 552.5 c 2,77,-1
 611.625 543.5 l 1,78,-1
 611.625 395 l 2,79,80
 610.875 230.75 610.875 230.75 613.875 221 c 0,81,82
 618.375 205.25 618.375 205.25 631.875 200 c 0,83,84
 635.625 198.5 635.625 198.5 643.875 199.25 c 0,85,86
 655.875 199.25 655.875 199.25 664.875 205.25 c 0,87,88
 669.375 207.5 669.375 207.5 669.375 207.125 c 128,-1,89
 669.375 206.75 669.375 206.75 665.625 201.5 c 0,90,91
 658.125 189.5 658.125 189.5 631.125 163.25 c 0,92,93
 613.875 146 613.875 146 604.125 135.875 c 128,-1,94
 594.375 125.75 594.375 125.75 592.875 125.75 c 0,95,96
 588.375 125.75 588.375 125.75 577.125 133.25 c 256,97,98
 565.875 140.75 565.875 140.75 558.375 152 c 0,99,100
 547.125 169.25 547.125 169.25 545.625 188.75 c 2,101,-1
 544.875 194 l 1,102,-1
 538.875 188 l 1,103,104
 497.625 152.75 497.625 152.75 462.375 131.75 c 2,105,-1
 455.625 128 l 1,106,-1
 448.875 129.5 l 2,107,108
 418.125 136.25 418.125 136.25 393.375 154.25 c 128,-1,109
 368.625 172.25 368.625 172.25 356.625 197 c 0,110,111
 346.875 218 346.875 218 347.625 245 c 256,112,113
 348.375 272 348.375 272 362.625 302.75 c 0,114,115
 379.875 339.5 379.875 339.5 412.125 374.75 c 0,116,117
 446.625 413.75 446.625 413.75 481.875 421.25 c 0,118,119
 486.375 422 486.375 422 495 422 c 128,-1,120
 503.625 422 503.625 422 508.875 421.25 c 0,121,122
 526.125 417.5 526.125 417.5 538.125 407.75 c 2,123,-1
 541.875 405.5 l 1,124,-1
 541.875 410.75 l 2,125,126
 542.625 416.75 542.625 416.75 541.875 437.75 c 0,127,128
 541.875 458.75 541.875 458.75 540 466.25 c 128,-1,129
 538.125 473.75 538.125 473.75 532.875 479 c 0,130,131
 524.625 488 524.625 488 495.375 497 c 0,132,133
 458.625 507.5 458.625 507.5 443.625 523.25 c 0,134,135
 431.625 536 431.625 536 431.25 553.625 c 128,-1,136
 430.875 571.25 430.875 571.25 442.875 588.5 c 0,137,138
 460.875 615.5 460.875 615.5 493.875 622.25 c 0,55,56
495.375 377.75 m 0,139,140
 475.875 381.5 475.875 381.5 460.875 371.75 c 0,141,142
 452.625 366.5 452.625 366.5 444.375 356 c 0,143,144
 426.375 333.5 426.375 333.5 421.125 302 c 0,145,146
 419.625 295.25 419.625 295.25 419.625 279.125 c 128,-1,147
 419.625 263 419.625 263 421.125 255.5 c 0,148,149
 427.875 225.5 427.875 225.5 446.625 206 c 0,150,151
 461.625 191 461.625 191 476.625 188 c 0,152,153
 497.625 183.5 497.625 183.5 517.875 203.75 c 0,154,155
 532.875 218.75 532.875 218.75 539.625 239.75 c 2,156,-1
 541.125 245.75 l 1,157,-1
 541.125 291.5 l 1,158,-1
 541.125 336.5 l 1,159,-1
 538.125 343.25 l 2,160,161
 532.125 355.25 532.125 355.25 519.75 365.375 c 128,-1,162
 507.375 375.5 507.375 375.5 495.375 377.75 c 0,139,140
EndSplineSet
EndChar

StartChar: e
Encoding: 101 101 43
Width: 874
GlyphClass: 1
Flags: W
LayerCount: 2
Fore
SplineSet
652.125 89.8125 m 128,-1,1
 652.125 90.1875 652.125 90.1875 654.375 89.0625 c 128,-1,2
 656.625 87.9375 656.625 87.9375 660 86.0625 c 128,-1,3
 663.375 84.1875 663.375 84.1875 664.875 82.6875 c 0,4,5
 682.875 69.1875 682.875 69.1875 686.625 45.9375 c 0,6,7
 687.375 36.1875 687.375 36.1875 684.375 26.4375 c 0,8,9
 680.625 12.1875 680.625 12.1875 670.125 0.9375 c 0,10,11
 658.125 -11.8125 658.125 -11.8125 638.625 -18.5625 c 0,12,13
 590.625 -33.5625 590.625 -33.5625 535.125 -5.8125 c 0,14,15
 503.625 10.6875 503.625 10.6875 487.875 30.9375 c 0,16,17
 483.375 36.1875 483.375 36.1875 483.375 38.8125 c 128,-1,18
 483.375 41.4375 483.375 41.4375 483.75 41.4375 c 128,-1,19
 484.125 41.4375 484.125 41.4375 492.375 36.1875 c 0,20,21
 517.125 21.1875 517.125 21.1875 541.875 14.4375 c 0,22,23
 547.875 12.9375 547.875 12.9375 553.125 11.4375 c 0,24,25
 568.875 6.9375 568.875 6.9375 587.625 6.9375 c 0,26,27
 616.125 6.9375 616.125 6.9375 636.375 20.4375 c 0,28,29
 652.125 30.1875 652.125 30.1875 658.125 44.4375 c 0,30,31
 667.875 66.1875 667.875 66.1875 654.375 85.6875 c 0,32,0
 652.125 89.4375 652.125 89.4375 652.125 89.8125 c 128,-1,1
475.875 625.6875 m 0,33,34
 477.375 625.6875 477.375 625.6875 478.125 626.0625 c 128,-1,35
 478.875 626.4375 478.875 626.4375 472.875 619.6875 c 0,36,37
 454.875 600.1875 454.875 600.1875 451.125 577.6875 c 0,38,39
 449.625 564.1875 449.625 564.1875 456.375 550.6875 c 0,40,41
 463.875 535.6875 463.875 535.6875 476.625 529.6875 c 0,42,43
 487.125 524.4375 487.125 524.4375 496.125 525.1875 c 0,44,45
 501.375 525.9375 501.375 525.9375 511.5 530.8125 c 128,-1,46
 521.625 535.6875 521.625 535.6875 532.875 542.4375 c 0,47,48
 547.125 550.6875 547.125 550.6875 550.125 547.6875 c 0,49,50
 552.375 546.1875 552.375 546.1875 571.875 522.1875 c 0,51,52
 578.625 514.6875 578.625 514.6875 586.125 505.6875 c 0,53,54
 595.875 494.4375 595.875 494.4375 616.875 468.9375 c 0,55,56
 627.375 456.9375 627.375 456.9375 636.375 445.6875 c 0,57,58
 652.125 427.6875 652.125 427.6875 652.125 426.1875 c 0,59,60
 652.875 423.1875 652.875 423.1875 649.5 420.1875 c 128,-1,61
 646.125 417.1875 646.125 417.1875 631.125 408.9375 c 0,62,63
 612.375 397.6875 612.375 397.6875 590.625 384.1875 c 0,64,65
 554.625 361.6875 554.625 361.6875 466.875 309.1875 c 0,66,67
 414.375 277.6875 414.375 277.6875 413.625 277.6875 c 0,68,69
 412.875 276.9375 412.875 276.9375 417 265.3125 c 128,-1,70
 421.125 253.6875 421.125 253.6875 425.625 246.1875 c 0,71,72
 445.125 207.9375 445.125 207.9375 481.875 188.4375 c 0,73,74
 498.375 179.4375 498.375 179.4375 506.625 178.6875 c 0,75,76
 508.875 177.9375 508.875 177.9375 515.625 176.4375 c 0,77,78
 535.875 172.6875 535.875 172.6875 553.875 175.6875 c 0,79,80
 576.375 179.4375 576.375 179.4375 594.375 189.1875 c 0,81,82
 629.625 206.4375 629.625 206.4375 652.875 243.9375 c 0,83,84
 657.375 251.4375 657.375 251.4375 658.125 251.4375 c 128,-1,85
 658.875 251.4375 658.875 251.4375 658.875 248.4375 c 128,-1,86
 658.875 245.4375 658.875 245.4375 658.5 242.0625 c 128,-1,87
 658.125 238.6875 658.125 238.6875 658.125 235.6875 c 0,88,89
 655.125 217.6875 655.125 217.6875 642.375 197.4375 c 0,90,91
 631.875 180.9375 631.875 180.9375 613.875 165.1875 c 0,92,93
 596.625 150.1875 596.625 150.1875 580.125 139.6875 c 0,94,95
 568.125 132.9375 568.125 132.9375 540.375 118.3125 c 128,-1,96
 512.625 103.6875 512.625 103.6875 506.625 101.4375 c 0,97,98
 483.375 92.4375 483.375 92.4375 451.875 99.1875 c 0,99,100
 427.125 104.4375 427.125 104.4375 394.875 125.4375 c 0,101,102
 354.375 152.4375 354.375 152.4375 328.125 200.4375 c 0,103,104
 323.625 209.4375 323.625 209.4375 322.125 213.1875 c 0,105,106
 312.375 237.1875 312.375 237.1875 307.875 264.1875 c 0,107,108
 306.375 273.1875 306.375 273.1875 306.375 299.4375 c 0,109,110
 306.375 328.6875 306.375 328.6875 311.625 351.9375 c 0,111,112
 316.125 372.1875 316.125 372.1875 325.875 394.6875 c 0,113,114
 328.125 399.1875 328.125 399.1875 328.5 399.9375 c 128,-1,115
 328.875 400.6875 328.875 400.6875 333.375 408.9375 c 0,116,117
 345.375 428.4375 345.375 428.4375 359.625 443.4375 c 0,118,119
 379.875 463.6875 379.875 463.6875 399.375 477.1875 c 2,120,-1
 408.375 482.4375 l 1,121,-1
 404.625 485.4375 l 2,122,123
 391.875 494.4375 391.875 494.4375 391.875 497.4375 c 0,124,125
 391.875 498.1875 391.875 498.1875 391.875 498.9375 c 0,126,127
 388.875 499.6875 388.875 499.6875 385.125 512.4375 c 0,128,129
 376.875 538.6875 376.875 538.6875 397.875 568.6875 c 0,130,131
 405.375 579.9375 405.375 579.9375 415.125 589.6875 c 0,132,133
 429.375 603.9375 429.375 603.9375 446.625 612.9375 c 0,134,135
 462.375 621.1875 462.375 621.1875 475.875 625.6875 c 0,33,34
492.75 469.6875 m 128,-1,137
 475.875 487.6875 475.875 487.6875 475.5 487.6875 c 128,-1,138
 475.125 487.6875 475.125 487.6875 474 486.5625 c 128,-1,139
 472.875 485.4375 472.875 485.4375 466.125 481.6875 c 0,140,141
 442.875 468.1875 442.875 468.1875 427.125 444.9375 c 0,142,143
 415.875 426.9375 415.875 426.9375 409.125 407.4375 c 0,144,145
 399.375 378.9375 399.375 378.9375 400.125 344.4375 c 0,146,147
 401.625 312.9375 401.625 312.9375 403.875 309.9375 c 0,148,149
 404.625 309.9375 404.625 309.9375 409.125 312.1875 c 0,150,151
 413.625 315.1875 413.625 315.1875 427.125 323.4375 c 0,152,153
 537.375 387.9375 537.375 387.9375 553.875 398.4375 c 2,154,-1
 557.625 400.6875 l 1,155,-1
 550.875 408.1875 l 2,156,157
 544.125 415.6875 544.125 415.6875 526.875 433.6875 c 128,-1,136
 509.625 451.6875 509.625 451.6875 492.75 469.6875 c 128,-1,137
EndSplineSet
EndChar

StartChar: f
Encoding: 102 102 44
Width: 879
VWidth: 825
GlyphClass: 1
Flags: W
LayerCount: 2
Fore
SplineSet
570.173828125 632.625 m 0,0,1
 577.673828125 635.625 577.673828125 635.625 578.423828125 635.625 c 0,2,3
 579.923828125 635.625 579.923828125 635.625 593.423828125 626.625 c 0,4,5
 627.923828125 603.375 627.923828125 603.375 659.423828125 596.625 c 0,6,7
 666.923828125 595.125 666.923828125 595.125 682.298828125 595.125 c 128,-1,8
 697.673828125 595.125 697.673828125 595.125 704.423828125 596.625 c 0,9,10
 717.923828125 600.375 717.923828125 600.375 726.173828125 607.125 c 0,11,12
 729.923828125 610.125 729.923828125 610.125 730.673828125 610.125 c 0,13,14
 732.173828125 610.125 732.173828125 610.125 730.298828125 606 c 128,-1,15
 728.423828125 601.875 728.423828125 601.875 725.423828125 596.25 c 128,-1,16
 722.423828125 590.625 722.423828125 590.625 718.673828125 586.125 c 0,17,18
 698.423828125 558.375 698.423828125 558.375 678.923828125 543.375 c 0,19,20
 648.173828125 519.375 648.173828125 519.375 622.673828125 522.375 c 0,21,22
 616.673828125 523.125 616.673828125 523.125 610.673828125 524.625 c 0,23,24
 591.173828125 530.625 591.173828125 530.625 555.173828125 552.375 c 0,25,26
 528.923828125 568.125 528.923828125 568.125 524.423828125 572.625 c 0,27,28
 520.673828125 575.625 520.673828125 575.625 520.298828125 575.625 c 128,-1,29
 519.923828125 575.625 519.923828125 575.625 519.548828125 547.125 c 128,-1,30
 519.173828125 518.625 519.173828125 518.625 519.548828125 487.5 c 128,-1,31
 519.923828125 456.375 519.923828125 456.375 520.673828125 451.125 c 0,32,33
 521.423828125 436.875 521.423828125 436.875 523.673828125 431.625 c 2,34,-1
 525.173828125 429.375 l 1,35,-1
 572.423828125 429.375 l 2,36,37
 620.423828125 430.125 620.423828125 430.125 627.923828125 430.875 c 0,38,39
 644.423828125 433.875 644.423828125 433.875 652.673828125 436.875 c 0,40,41
 657.173828125 439.125 657.173828125 439.125 657.923828125 438.375 c 2,42,43
 657.923828125 438.375 657.923828125 438.375 655.298828125 431.25 c 128,-1,44
 652.673828125 424.125 652.673828125 424.125 649.673828125 419.625 c 0,45,46
 640.673828125 404.625 640.673828125 404.625 625.673828125 389.25 c 128,-1,47
 610.673828125 373.875 610.673828125 373.875 600.923828125 369.375 c 0,48,49
 597.173828125 367.875 597.173828125 367.875 587.423828125 367.875 c 0,50,51
 528.923828125 370.125 528.923828125 370.125 526.673828125 369.375 c 0,52,53
 522.923828125 367.875 522.923828125 367.875 521.798828125 361.5 c 128,-1,54
 520.673828125 355.125 520.673828125 355.125 519.923828125 331.875 c 0,55,56
 519.173828125 310.875 519.173828125 310.875 519.548828125 260.625 c 128,-1,57
 519.923828125 210.375 519.923828125 210.375 520.673828125 196.125 c 0,58,59
 522.923828125 165.375 522.923828125 165.375 529.673828125 151.875 c 0,60,61
 532.673828125 144.375 532.673828125 144.375 536.798828125 141.375 c 128,-1,62
 540.923828125 138.375 540.923828125 138.375 549.173828125 136.875 c 0,63,64
 555.923828125 135.375 555.923828125 135.375 555.923828125 135.375 c 2,65,66
 556.673828125 134.625 556.673828125 134.625 549.173828125 129.375 c 0,67,68
 547.673828125 127.875 547.673828125 127.875 546.173828125 127.125 c 0,69,70
 518.423828125 109.125 518.423828125 109.125 474.173828125 55.875 c 0,71,72
 452.423828125 29.625 452.423828125 29.625 432.173828125 7.125 c 2,73,-1
 429.173828125 3.375 l 1,74,-1
 425.423828125 9.375 l 2,75,76
 414.923828125 25.125 414.923828125 25.125 395.423828125 39.375 c 0,77,78
 373.673828125 55.875 373.673828125 55.875 356.423828125 55.875 c 0,79,80
 351.173828125 55.875 351.173828125 55.875 347.423828125 53.625 c 0,81,82
 337.673828125 47.625 337.673828125 47.625 335.798828125 32.625 c 128,-1,83
 333.923828125 17.625 333.923828125 17.625 341.423828125 3.375 c 0,84,85
 350.423828125 -13.875 350.423828125 -13.875 371.423828125 -24.375 c 0,86,87
 377.423828125 -27.375 377.423828125 -27.375 384.923828125 -28.125 c 0,88,89
 396.173828125 -30.375 396.173828125 -30.375 395.423828125 -31.125 c 0,90,91
 394.673828125 -32.625 394.673828125 -32.625 382.673828125 -32.625 c 0,92,93
 366.173828125 -32.625 366.173828125 -32.625 351.923828125 -27.375 c 0,94,95
 338.423828125 -22.875 338.423828125 -22.875 328.673828125 -13.125 c 0,96,97
 308.423828125 6.375 308.423828125 6.375 303.923828125 26.625 c 0,98,99
 300.173828125 45.375 300.173828125 45.375 303.923828125 61.125 c 0,100,101
 312.923828125 91.875 312.923828125 91.875 339.173828125 103.875 c 0,102,103
 349.673828125 109.125 349.673828125 109.125 366.173828125 110.625 c 0,104,105
 381.173828125 112.125 381.173828125 112.125 394.673828125 107.625 c 0,106,107
 414.923828125 100.875 414.923828125 100.875 434.423828125 85.875 c 0,108,109
 438.923828125 82.875 438.923828125 82.875 438.923828125 82.875 c 2,110,111
 441.923828125 82.875 441.923828125 82.875 444.923828125 108.375 c 0,112,113
 447.923828125 130.875 447.923828125 130.875 447.923828125 241.125 c 0,114,115
 447.923828125 364.875 447.923828125 364.875 445.673828125 367.125 c 0,116,117
 443.423828125 370.125 443.423828125 370.125 419.423828125 370.125 c 0,118,119
 399.923828125 370.125 399.923828125 370.125 393.923828125 368.625 c 0,120,121
 373.673828125 362.625 373.673828125 362.625 363.173828125 350.625 c 0,122,123
 359.423828125 345.375 359.423828125 345.375 358.298828125 345.75 c 128,-1,124
 357.173828125 346.125 357.173828125 346.125 357.923828125 353.625 c 0,125,126
 358.673828125 372.375 358.673828125 372.375 370.673828125 389.625 c 0,127,128
 378.173828125 401.625 378.173828125 401.625 391.673828125 411.375 c 128,-1,129
 405.173828125 421.125 405.173828125 421.125 418.673828125 425.625 c 0,130,131
 432.923828125 429.375 432.923828125 429.375 441.923828125 429.375 c 0,132,133
 444.923828125 429.375 444.923828125 429.375 446.048828125 430.125 c 128,-1,134
 447.173828125 430.875 447.173828125 430.875 447.923828125 447.75 c 128,-1,135
 448.673828125 464.625 448.673828125 464.625 447.923828125 474.375 c 0,136,137
 446.423828125 499.875 446.423828125 499.875 435.173828125 514.875 c 2,138,-1
 432.923828125 517.125 l 1,139,-1
 434.423828125 520.125 l 2,140,141
 439.673828125 531.375 439.673828125 531.375 460.673828125 553.875 c 128,-1,142
 481.673828125 576.375 481.673828125 576.375 501.173828125 591.375 c 0,143,144
 537.173828125 619.125 537.173828125 619.125 570.173828125 632.625 c 0,0,1
EndSplineSet
EndChar

StartChar: g
Encoding: 103 103 45
Width: 865
VWidth: 829
GlyphClass: 1
Flags: W
LayerCount: 2
Fore
SplineSet
409.172851562 639.263671875 m 0,0,1
 417.422851562 645.263671875 417.422851562 645.263671875 417.422851562 644.513671875 c 256,2,3
 417.422851562 643.763671875 417.422851562 643.763671875 415.172851562 640.763671875 c 0,4,5
 408.422851562 631.763671875 408.422851562 631.763671875 403.922851562 617.513671875 c 128,-1,6
 399.422851562 603.263671875 399.422851562 603.263671875 400.172851562 592.013671875 c 0,7,8
 401.672851562 574.013671875 401.672851562 574.013671875 412.172851562 563.138671875 c 128,-1,9
 422.672851562 552.263671875 422.672851562 552.263671875 448.172851562 543.263671875 c 0,10,11
 468.422851562 535.763671875 468.422851562 535.763671875 501.422851562 532.013671875 c 0,12,13
 519.422851562 529.013671875 519.422851562 529.013671875 546.422851562 529.013671875 c 0,14,15
 595.172851562 528.263671875 595.172851562 528.263671875 627.422851562 535.013671875 c 0,16,17
 652.172851562 539.513671875 652.172851562 539.513671875 669.422851562 547.763671875 c 0,18,19
 674.672851562 550.763671875 674.672851562 550.763671875 674.672851562 550.388671875 c 128,-1,20
 674.672851562 550.013671875 674.672851562 550.013671875 671.672851562 546.263671875 c 0,21,22
 639.422851562 515.513671875 639.422851562 515.513671875 634.922851562 464.513671875 c 0,23,24
 634.172851562 456.263671875 634.172851562 456.263671875 634.172851562 431.138671875 c 128,-1,25
 634.172851562 406.013671875 634.172851562 406.013671875 634.922851562 390.263671875 c 0,26,27
 637.922851562 337.763671875 637.922851562 337.763671875 647.672851562 277.013671875 c 0,28,29
 654.422851562 237.263671875 654.422851562 237.263671875 654.422851562 220.763671875 c 0,30,31
 655.922851562 193.013671875 655.922851562 193.013671875 647.672851562 169.013671875 c 0,32,33
 635.672851562 133.763671875 635.672851562 133.763671875 603.422851562 101.513671875 c 0,34,35
 583.922851562 82.013671875 583.922851562 82.013671875 554.672851562 63.263671875 c 0,36,37
 537.422851562 52.013671875 537.422851562 52.013671875 535.922851562 50.513671875 c 2,38,-1
 534.422851562 49.013671875 l 1,39,-1
 528.422851562 52.763671875 l 2,40,41
 523.172851562 55.763671875 523.172851562 55.763671875 505.172851562 69.263671875 c 0,42,43
 466.172851562 98.513671875 466.172851562 98.513671875 447.422851562 110.513671875 c 0,44,45
 410.672851562 135.263671875 410.672851562 135.263671875 390.422851562 142.013671875 c 0,46,47
 366.422851562 150.263671875 366.422851562 150.263671875 343.172851562 146.513671875 c 128,-1,48
 319.922851562 142.763671875 319.922851562 142.763671875 304.922851562 128.513671875 c 0,49,50
 280.172851562 104.513671875 280.172851562 104.513671875 292.172851562 70.013671875 c 0,51,52
 306.422851562 31.763671875 306.422851562 31.763671875 356.672851562 19.013671875 c 0,53,54
 378.422851562 14.513671875 378.422851562 14.513671875 400.172851562 18.263671875 c 0,55,56
 433.922851562 23.513671875 433.922851562 23.513671875 444.422851562 46.013671875 c 0,57,58
 447.422851562 51.263671875 447.422851562 51.263671875 447.422851562 58.763671875 c 0,59,60
 448.172851562 70.763671875 448.172851562 70.763671875 442.922851562 79.763671875 c 0,61,62
 440.672851562 82.763671875 440.672851562 82.763671875 441.422851562 82.763671875 c 128,-1,63
 442.172851562 82.763671875 442.172851562 82.763671875 447.422851562 79.763671875 c 0,64,65
 464.672851562 70.013671875 464.672851562 70.013671875 469.922851562 54.263671875 c 0,66,67
 474.422851562 40.763671875 474.422851562 40.763671875 469.172851562 28.763671875 c 0,68,69
 462.422851562 9.263671875 462.422851562 9.263671875 440.672851562 -1.611328125 c 128,-1,70
 418.922851562 -12.486328125 418.922851562 -12.486328125 388.172851562 -12.486328125 c 0,71,72
 352.172851562 -12.486328125 352.172851562 -12.486328125 317.672851562 5.513671875 c 0,73,74
 271.172851562 29.513671875 271.172851562 29.513671875 257.672851562 70.013671875 c 0,75,76
 246.422851562 103.013671875 246.422851562 103.013671875 260.672851562 134.513671875 c 0,77,78
 264.422851562 142.763671875 264.422851562 142.763671875 273.797851562 154.013671875 c 128,-1,79
 283.172851562 165.263671875 283.172851562 165.263671875 292.172851562 171.263671875 c 0,80,81
 308.672851562 184.013671875 308.672851562 184.013671875 338.297851562 191.138671875 c 128,-1,82
 367.922851562 198.263671875 367.922851562 198.263671875 394.172851562 196.013671875 c 0,83,84
 424.172851562 194.513671875 424.172851562 194.513671875 453.422851562 184.763671875 c 0,85,86
 469.922851562 179.513671875 469.922851562 179.513671875 504.422851562 164.513671875 c 0,87,88
 537.422851562 149.513671875 537.422851562 149.513671875 564.422851562 142.013671875 c 0,89,90
 571.922851562 139.763671875 571.922851562 139.763671875 572.297851562 141.263671875 c 128,-1,91
 572.672851562 142.763671875 572.672851562 142.763671875 572.672851562 159.638671875 c 128,-1,92
 572.672851562 176.513671875 572.672851562 176.513671875 570.422851562 191.513671875 c 0,93,94
 565.922851562 223.763671875 565.922851562 223.763671875 551.672851562 294.263671875 c 0,95,96
 549.422851562 304.763671875 549.422851562 304.763671875 548.672851562 305.513671875 c 1,97,98
 548.672851562 305.513671875 548.672851562 305.513671875 547.547851562 304.388671875 c 128,-1,99
 546.422851562 303.263671875 546.422851562 303.263671875 544.922851562 301.388671875 c 128,-1,100
 543.422851562 299.513671875 543.422851562 299.513671875 541.922851562 297.263671875 c 0,101,102
 507.422851562 250.763671875 507.422851562 250.763671875 468.422851562 228.263671875 c 0,103,104
 458.672851562 222.263671875 458.672851562 222.263671875 453.422851562 217.763671875 c 2,105,-1
 448.172851562 214.013671875 l 1,106,-1
 437.672851562 219.263671875 l 2,107,108
 401.672851562 237.263671875 401.672851562 237.263671875 376.922851562 259.013671875 c 0,109,110
 361.172851562 273.263671875 361.172851562 273.263671875 349.922851562 289.013671875 c 0,111,112
 321.422851562 331.763671875 321.422851562 331.763671875 326.672851562 387.263671875 c 0,113,114
 328.922851562 410.513671875 328.922851562 410.513671875 340.172851562 433.013671875 c 0,115,116
 353.672851562 460.013671875 353.672851562 460.013671875 382.172851562 488.513671875 c 0,117,118
 395.672851562 501.263671875 395.672851562 501.263671875 395.672851562 502.013671875 c 128,-1,119
 395.672851562 502.763671875 395.672851562 502.763671875 389.672851562 505.763671875 c 128,-1,120
 383.672851562 508.763671875 383.672851562 508.763671875 377.672851562 514.763671875 c 0,121,122
 367.922851562 524.513671875 367.922851562 524.513671875 362.672851562 539.513671875 c 0,123,124
 361.172851562 546.263671875 361.172851562 546.263671875 361.172851562 560.513671875 c 0,125,126
 361.172851562 580.763671875 361.172851562 580.763671875 367.922851562 595.013671875 c 0,127,128
 380.672851562 620.513671875 380.672851562 620.513671875 409.172851562 639.263671875 c 0,0,1
477.422851562 487.763671875 m 128,-1,130
 466.172851562 490.763671875 466.172851562 490.763671875 465.047851562 490.763671875 c 128,-1,131
 463.922851562 490.763671875 463.922851562 490.763671875 457.547851562 485.513671875 c 128,-1,132
 451.172851562 480.263671875 451.172851562 480.263671875 447.422851562 475.013671875 c 0,133,134
 428.672851562 454.013671875 428.672851562 454.013671875 422.672851562 427.013671875 c 0,135,136
 421.922851562 420.263671875 421.922851562 420.263671875 421.922851562 404.138671875 c 128,-1,137
 421.922851562 388.013671875 421.922851562 388.013671875 423.422851562 379.763671875 c 0,138,139
 427.922851562 352.763671875 427.922851562 352.763671875 444.797851562 331.388671875 c 128,-1,140
 461.672851562 310.013671875 461.672851562 310.013671875 482.672851562 304.013671875 c 0,141,142
 488.672851562 302.513671875 488.672851562 302.513671875 496.922851562 302.513671875 c 0,143,144
 516.422851562 302.513671875 516.422851562 302.513671875 529.172851562 314.513671875 c 0,145,146
 544.172851562 328.013671875 544.172851562 328.013671875 546.422851562 343.013671875 c 0,147,148
 547.172851562 348.263671875 547.172851562 348.263671875 547.172851562 407.888671875 c 128,-1,149
 547.172851562 467.513671875 547.172851562 467.513671875 546.422851562 467.888671875 c 128,-1,150
 545.672851562 468.263671875 545.672851562 468.263671875 532.547851562 472.013671875 c 128,-1,151
 519.422851562 475.763671875 519.422851562 475.763671875 504.047851562 480.263671875 c 128,-1,129
 488.672851562 484.763671875 488.672851562 484.763671875 477.422851562 487.763671875 c 128,-1,130
EndSplineSet
EndChar

StartChar: h
Encoding: 104 104 46
Width: 870
VWidth: 826
GlyphClass: 1
Flags: W
LayerCount: 2
Fore
SplineSet
418.96875 650.09375 m 0,0,1
 420.46875 650.09375 420.46875 650.09375 421.96875 650.46875 c 128,-1,2
 423.46875 650.84375 423.46875 650.84375 424.21875 650.84375 c 128,-1,3
 424.96875 650.84375 424.96875 650.84375 424.96875 650.46875 c 128,-1,4
 424.96875 650.09375 424.96875 650.09375 420.46875 647.09375 c 0,5,6
 409.21875 641.84375 409.21875 641.84375 400.96875 632.84375 c 0,7,8
 393.46875 624.59375 393.46875 624.59375 389.71875 616.34375 c 0,9,10
 377.71875 586.34375 377.71875 586.34375 395.71875 558.59375 c 0,11,12
 415.21875 529.34375 415.21875 529.34375 460.96875 533.09375 c 0,13,14
 481.21875 535.34375 481.21875 535.34375 500.71875 542.84375 c 0,15,16
 512.71875 547.34375 512.71875 547.34375 513.09375 546.96875 c 128,-1,17
 513.46875 546.59375 513.46875 546.59375 513.09375 546.59375 c 128,-1,18
 512.71875 546.59375 512.71875 546.59375 507.46875 542.09375 c 0,19,20
 479.71875 522.59375 479.71875 522.59375 471.46875 502.34375 c 0,21,22
 467.71875 492.59375 467.71875 492.59375 467.34375 484.34375 c 128,-1,23
 466.96875 476.09375 466.96875 476.09375 466.96875 431.84375 c 0,24,25
 466.96875 378.59375 466.96875 378.59375 467.71875 377.84375 c 0,26,27
 469.21875 376.34375 469.21875 376.34375 511.96875 404.09375 c 0,28,29
 538.21875 421.34375 538.21875 421.34375 543.46875 423.59375 c 128,-1,30
 548.71875 425.84375 548.71875 425.84375 555.46875 425.09375 c 0,31,32
 577.96875 420.59375 577.96875 420.59375 596.71875 406.34375 c 0,33,34
 622.96875 386.09375 622.96875 386.09375 632.71875 351.59375 c 0,35,36
 634.96875 345.59375 634.96875 345.59375 635.34375 312.96875 c 128,-1,37
 635.71875 280.34375 635.71875 280.34375 635.34375 227.46875 c 128,-1,38
 634.96875 174.59375 634.96875 174.59375 633.46875 166.34375 c 0,39,40
 631.21875 150.59375 631.21875 150.59375 622.96875 134.84375 c 0,41,42
 610.96875 110.84375 610.96875 110.84375 589.21875 92.09375 c 0,43,44
 574.96875 80.09375 574.96875 80.09375 549.46875 65.84375 c 0,45,46
 520.96875 50.09375 520.96875 50.09375 508.96875 38.84375 c 128,-1,47
 496.96875 27.59375 496.96875 27.59375 493.96875 14.09375 c 0,48,49
 492.46875 4.34375 492.46875 4.34375 496.21875 -4.65625 c 0,50,51
 500.71875 -14.40625 500.71875 -14.40625 512.34375 -17.78125 c 128,-1,52
 523.96875 -21.15625 523.96875 -21.15625 536.71875 -16.65625 c 0,53,54
 555.46875 -10.65625 555.46875 -10.65625 565.96875 8.09375 c 0,55,56
 567.46875 11.09375 567.46875 11.09375 568.21875 11.09375 c 128,-1,57
 568.96875 11.09375 568.96875 11.09375 568.96875 9.21875 c 128,-1,58
 568.96875 7.34375 568.96875 7.34375 568.59375 4.34375 c 128,-1,59
 568.21875 1.34375 568.21875 1.34375 567.46875 -0.15625 c 0,60,61
 558.46875 -30.90625 558.46875 -30.90625 526.96875 -38.40625 c 0,62,63
 507.46875 -42.90625 507.46875 -42.90625 490.59375 -35.40625 c 128,-1,64
 473.71875 -27.90625 473.71875 -27.90625 466.96875 -11.40625 c 0,65,66
 462.46875 1.34375 462.46875 1.34375 466.21875 16.34375 c 0,67,68
 471.46875 35.09375 471.46875 35.09375 492.46875 53.09375 c 0,69,70
 496.96875 56.84375 496.96875 56.84375 509.71875 67.34375 c 0,71,72
 533.71875 86.09375 533.71875 86.09375 543.46875 104.09375 c 0,73,74
 556.96875 130.34375 556.96875 130.34375 559.96875 159.59375 c 0,75,76
 561.46875 171.59375 561.46875 171.59375 562.96875 232.34375 c 0,77,78
 564.46875 294.59375 564.46875 294.59375 561.46875 315.59375 c 0,79,80
 559.21875 329.84375 559.21875 329.84375 553.96875 341.09375 c 0,81,82
 546.46875 353.84375 546.46875 353.84375 532.96875 360.59375 c 0,83,84
 523.21875 365.09375 523.21875 365.09375 511.21875 365.09375 c 0,85,86
 502.96875 364.34375 502.96875 364.34375 496.96875 362.09375 c 0,87,88
 488.71875 359.09375 488.71875 359.09375 478.96875 351.96875 c 128,-1,89
 469.21875 344.84375 469.21875 344.84375 467.71875 341.84375 c 0,90,91
 466.96875 339.59375 466.96875 339.59375 467.34375 273.59375 c 128,-1,92
 467.71875 207.59375 467.71875 207.59375 469.21875 200.09375 c 128,-1,93
 470.71875 192.59375 470.71875 192.59375 473.34375 186.96875 c 128,-1,94
 475.96875 181.34375 475.96875 181.34375 480.09375 179.46875 c 128,-1,95
 484.21875 177.59375 484.21875 177.59375 494.71875 176.84375 c 2,96,-1
 504.46875 174.59375 l 1,97,98
 503.71875 173.84375 503.71875 173.84375 494.71875 169.34375 c 0,99,100
 478.21875 161.84375 478.21875 161.84375 463.21875 146.09375 c 0,101,102
 451.21875 134.09375 451.21875 134.09375 441.46875 118.34375 c 0,103,104
 436.96875 110.09375 436.96875 110.09375 435.84375 110.09375 c 128,-1,105
 434.71875 110.09375 434.71875 110.09375 433.21875 112.34375 c 0,106,107
 430.21875 118.34375 430.21875 118.34375 421.96875 126.59375 c 0,108,109
 405.46875 141.59375 405.46875 141.59375 380.71875 146.84375 c 0,110,111
 373.21875 148.34375 373.21875 148.34375 358.21875 148.34375 c 0,112,113
 352.96875 148.34375 352.96875 148.34375 349.59375 148.71875 c 128,-1,114
 346.21875 149.09375 346.21875 149.09375 344.34375 149.09375 c 128,-1,115
 342.46875 149.09375 342.46875 149.09375 342.46875 149.09375 c 1,116,117
 342.46875 149.84375 342.46875 149.84375 349.96875 155.09375 c 0,118,119
 365.71875 166.34375 365.71875 166.34375 373.96875 177.59375 c 0,120,121
 379.96875 185.84375 379.96875 185.84375 384.46875 197.09375 c 0,122,123
 387.46875 206.84375 387.46875 206.84375 387.84375 218.84375 c 128,-1,124
 388.21875 230.84375 388.21875 230.84375 388.21875 294.59375 c 0,125,126
 388.21875 371.84375 388.21875 371.84375 388.21875 416.09375 c 2,127,-1
 387.46875 460.34375 l 1,128,-1
 385.21875 465.59375 l 2,129,130
 382.21875 470.84375 382.21875 470.84375 366.46875 485.84375 c 0,131,132
 336.46875 512.84375 336.46875 512.84375 330.46875 543.59375 c 0,133,134
 325.96875 563.09375 325.96875 563.09375 330.46875 580.34375 c 0,135,136
 334.21875 594.59375 334.21875 594.59375 340.96875 605.09375 c 0,137,138
 357.46875 629.84375 357.46875 629.84375 390.46875 642.59375 c 0,139,140
 396.46875 644.09375 396.46875 644.09375 418.96875 650.09375 c 0,0,1
EndSplineSet
EndChar

StartChar: i
Encoding: 105 105 47
Width: 868
VWidth: 831
GlyphClass: 1
Flags: W
LayerCount: 2
Fore
SplineSet
367.15625 149.450195312 m 0,0,1
 369.40625 150.200195312 369.40625 150.200195312 382.53125 149.825195312 c 128,-1,2
 395.65625 149.450195312 395.65625 149.450195312 403.90625 147.200195312 c 0,3,4
 436.90625 138.950195312 436.90625 138.950195312 484.90625 104.450195312 c 0,5,6
 494.65625 97.7001953125 494.65625 97.7001953125 501.03125 93.2001953125 c 128,-1,7
 507.40625 88.7001953125 507.40625 88.7001953125 516.40625 82.7001953125 c 0,8,9
 558.40625 54.2001953125 558.40625 54.2001953125 583.15625 54.2001953125 c 0,10,11
 591.40625 54.2001953125 591.40625 54.2001953125 597.40625 55.7001953125 c 0,12,13
 615.40625 61.7001953125 615.40625 61.7001953125 619.90625 78.2001953125 c 0,14,15
 625.15625 94.7001953125 625.15625 94.7001953125 613.15625 108.200195312 c 0,16,17
 607.90625 114.200195312 607.90625 114.200195312 601.15625 115.700195312 c 0,18,19
 595.15625 116.450195312 595.15625 116.450195312 598.53125 118.700195312 c 128,-1,20
 601.90625 120.950195312 601.90625 120.950195312 613.15625 117.950195312 c 0,21,22
 622.15625 116.450195312 622.15625 116.450195312 629.65625 108.950195312 c 256,23,24
 637.15625 101.450195312 637.15625 101.450195312 640.15625 89.4501953125 c 0,25,26
 643.15625 78.9501953125 643.15625 78.9501953125 639.78125 64.7001953125 c 128,-1,27
 636.40625 50.4501953125 636.40625 50.4501953125 628.90625 39.9501953125 c 0,28,29
 613.90625 19.7001953125 613.90625 19.7001953125 587.65625 12.2001953125 c 0,30,31
 581.65625 10.7001953125 581.65625 10.7001953125 568.53125 10.7001953125 c 128,-1,32
 555.40625 10.7001953125 555.40625 10.7001953125 549.40625 12.2001953125 c 0,33,34
 526.90625 16.7001953125 526.90625 16.7001953125 505.15625 30.9501953125 c 0,35,36
 495.40625 37.7001953125 495.40625 37.7001953125 462.40625 63.9501953125 c 0,37,38
 421.15625 96.2001953125 421.15625 96.2001953125 402.40625 105.950195312 c 0,39,40
 389.65625 112.700195312 389.65625 112.700195312 374.65625 114.950195312 c 0,41,42
 363.40625 116.450195312 363.40625 116.450195312 353.65625 113.450195312 c 0,43,44
 339.40625 108.200195312 339.40625 108.200195312 331.90625 96.9501953125 c 0,45,46
 326.65625 88.7001953125 326.65625 88.7001953125 326.65625 75.9501953125 c 0,47,48
 326.65625 59.4501953125 326.65625 59.4501953125 336.40625 45.2001953125 c 128,-1,49
 346.15625 30.9501953125 346.15625 30.9501953125 361.15625 24.9501953125 c 0,50,51
 371.65625 20.4501953125 371.65625 20.4501953125 383.65625 20.4501953125 c 0,52,53
 392.65625 20.4501953125 392.65625 20.4501953125 399.40625 23.4501953125 c 0,54,55
 410.65625 26.4501953125 410.65625 26.4501953125 410.65625 24.5751953125 c 128,-1,56
 410.65625 22.7001953125 410.65625 22.7001953125 403.15625 18.5751953125 c 128,-1,57
 395.65625 14.4501953125 395.65625 14.4501953125 388.15625 12.2001953125 c 0,58,59
 370.15625 7.7001953125 370.15625 7.7001953125 352.90625 14.4501953125 c 0,60,61
 324.40625 25.7001953125 324.40625 25.7001953125 310.90625 53.4501953125 c 0,62,63
 298.15625 79.7001953125 298.15625 79.7001953125 307.90625 105.200195312 c 0,64,65
 314.65625 123.950195312 314.65625 123.950195312 333.40625 135.950195312 c 0,66,67
 349.15625 147.200195312 349.15625 147.200195312 367.15625 149.450195312 c 0,0,1
484.90625 489.950195312 m 0,68,69
 495.40625 498.200195312 495.40625 498.200195312 496.90625 498.200195312 c 0,70,71
 500.65625 498.200195312 500.65625 498.200195312 517.90625 480.950195312 c 0,72,73
 530.65625 468.950195312 530.65625 468.950195312 532.90625 460.700195312 c 0,74,75
 533.65625 456.950195312 533.65625 456.950195312 533.65625 341.450195312 c 2,76,-1
 533.65625 226.700195312 l 1,77,-1
 535.15625 220.700195312 l 2,78,79
 538.15625 211.700195312 538.15625 211.700195312 544.15625 205.700195312 c 0,80,81
 556.15625 194.450195312 556.15625 194.450195312 574.15625 198.200195312 c 2,82,-1
 580.90625 198.950195312 l 1,83,84
 580.90625 198.200195312 580.90625 198.200195312 580.15625 197.450195312 c 0,85,86
 574.15625 185.450195312 574.15625 185.450195312 546.40625 168.950195312 c 0,87,88
 526.90625 156.950195312 526.90625 156.950195312 511.90625 145.700195312 c 0,89,90
 500.65625 136.700195312 500.65625 136.700195312 499.15625 136.700195312 c 256,91,92
 497.65625 136.700195312 497.65625 136.700195312 481.90625 149.450195312 c 0,93,94
 474.40625 155.450195312 474.40625 155.450195312 468.40625 159.200195312 c 0,95,96
 452.65625 168.950195312 452.65625 168.950195312 426.40625 173.450195312 c 0,97,98
 418.15625 174.950195312 418.15625 174.950195312 418.15625 175.700195312 c 1,99,100
 417.40625 175.700195312 417.40625 175.700195312 418.90625 176.825195312 c 128,-1,101
 420.40625 177.950195312 420.40625 177.950195312 422.28125 180.200195312 c 128,-1,102
 424.15625 182.450195312 424.15625 182.450195312 426.40625 184.700195312 c 0,103,104
 449.65625 207.200195312 449.65625 207.200195312 452.65625 238.700195312 c 0,105,106
 454.15625 247.700195312 454.15625 247.700195312 454.15625 330.200195312 c 128,-1,107
 454.15625 412.700195312 454.15625 412.700195312 453.40625 415.700195312 c 0,108,109
 450.40625 423.950195312 450.40625 423.950195312 442.15625 429.200195312 c 128,-1,110
 433.90625 434.450195312 433.90625 434.450195312 424.15625 434.450195312 c 0,111,112
 400.90625 434.450195312 400.90625 434.450195312 391.15625 420.200195312 c 0,113,114
 386.65625 414.950195312 386.65625 414.950195312 387.40625 417.950195312 c 0,115,116
 387.40625 419.450195312 387.40625 419.450195312 389.65625 425.450195312 c 0,117,118
 394.90625 435.950195312 394.90625 435.950195312 408.40625 444.950195312 c 0,119,120
 414.40625 448.700195312 414.40625 448.700195312 431.65625 457.700195312 c 0,121,122
 466.15625 474.950195312 466.15625 474.950195312 484.90625 489.950195312 c 0,68,69
490.15625 638.450195312 m 1,123,124
 490.15625 638.450195312 490.15625 638.450195312 496.90625 639.200195312 c 1,125,126
 496.15625 639.200195312 496.15625 639.200195312 494.65625 636.200195312 c 0,127,128
 491.65625 632.450195312 491.65625 632.450195312 487.15625 623.450195312 c 128,-1,129
 482.65625 614.450195312 482.65625 614.450195312 482.65625 609.200195312 c 0,130,131
 480.40625 583.700195312 480.40625 583.700195312 505.15625 572.450195312 c 0,132,133
 520.90625 564.950195312 520.90625 564.950195312 524.65625 561.950195312 c 0,134,135
 535.15625 554.450195312 535.15625 554.450195312 535.53125 542.450195312 c 128,-1,136
 535.90625 530.450195312 535.90625 530.450195312 526.90625 521.450195312 c 0,137,138
 519.40625 514.700195312 519.40625 514.700195312 509.65625 512.450195312 c 0,139,140
 486.40625 508.700195312 486.40625 508.700195312 466.90625 524.450195312 c 0,141,142
 455.65625 533.450195312 455.65625 533.450195312 448.90625 547.700195312 c 0,143,144
 443.65625 558.950195312 443.65625 558.950195312 442.90625 573.950195312 c 0,145,146
 442.15625 594.200195312 442.15625 594.200195312 451.15625 608.450195312 c 0,147,148
 467.65625 632.450195312 467.65625 632.450195312 490.15625 638.450195312 c 1,123,124
EndSplineSet
EndChar

StartChar: j
Encoding: 106 106 48
Width: 860
VWidth: 828
GlyphClass: 1
Flags: W
LayerCount: 2
Fore
SplineSet
575.977539062 492.875 m 0,0,1
 581.977539062 495.875 581.977539062 495.875 582.727539062 495.125 c 256,2,3
 583.477539062 494.375 583.477539062 494.375 581.977539062 489.125 c 0,4,5
 578.977539062 478.625 578.977539062 478.625 577.477539062 457.625 c 0,6,7
 576.727539062 444.875 576.727539062 444.875 575.977539062 314.375 c 0,8,9
 575.227539062 173.375 575.227539062 173.375 572.227539062 154.625 c 0,10,11
 565.477539062 111.125 565.477539062 111.125 535.477539062 70.625 c 0,12,13
 519.727539062 50.375 519.727539062 50.375 497.977539062 33.125 c 0,14,15
 459.727539062 3.125 459.727539062 3.125 425.227539062 -3.625 c 0,16,17
 417.727539062 -5.125 417.727539062 -5.125 402.352539062 -5.125 c 128,-1,18
 386.977539062 -5.125 386.977539062 -5.125 379.477539062 -3.625 c 0,19,20
 346.477539062 2.375 346.477539062 2.375 321.727539062 27.125 c 0,21,22
 290.977539062 57.875 290.977539062 57.875 289.477539062 103.625 c 0,23,24
 287.227539062 150.875 287.227539062 150.875 322.477539062 186.125 c 0,25,26
 349.477539062 213.875 349.477539062 213.875 389.227539062 213.875 c 0,27,28
 412.477539062 213.875 412.477539062 213.875 430.477539062 204.875 c 0,29,30
 450.727539062 194.375 450.727539062 194.375 450.727539062 173.375 c 0,31,32
 450.727539062 161.375 450.727539062 161.375 442.102539062 149 c 128,-1,33
 433.477539062 136.625 433.477539062 136.625 418.477539062 129.125 c 0,34,35
 404.977539062 122.375 404.977539062 122.375 396.727539062 122.375 c 2,36,-1
 394.477539062 122.375 l 1,37,-1
 396.727539062 123.875 l 2,38,39
 405.727539062 132.125 405.727539062 132.125 405.727539062 148.625 c 0,40,41
 405.727539062 155.375 405.727539062 155.375 403.477539062 159.875 c 0,42,43
 398.227539062 171.125 398.227539062 171.125 382.477539062 174.875 c 0,44,45
 368.227539062 178.625 368.227539062 178.625 353.977539062 171.875 c 0,46,47
 315.727539062 154.625 315.727539062 154.625 319.477539062 104.375 c 0,48,49
 322.477539062 72.875 322.477539062 72.875 344.977539062 49.625 c 0,50,51
 366.727539062 28.625 366.727539062 28.625 398.227539062 25.625 c 0,52,53
 434.977539062 21.875 434.977539062 21.875 466.477539062 45.875 c 0,54,55
 494.977539062 67.625 494.977539062 67.625 505.477539062 103.625 c 0,56,57
 508.477539062 112.625 508.477539062 112.625 510.727539062 133.625 c 0,58,59
 512.227539062 146.375 512.227539062 146.375 511.477539062 230.375 c 0,60,61
 511.477539062 390.875 511.477539062 390.875 509.227539062 401.375 c 0,62,63
 506.227539062 420.875 506.227539062 420.875 490.477539062 425.375 c 0,64,65
 485.977539062 426.875 485.977539062 426.875 475.477539062 429.125 c 0,66,67
 461.977539062 431.375 461.977539062 431.375 461.977539062 432.875 c 0,68,69
 461.977539062 435.125 461.977539062 435.125 475.477539062 439.625 c 0,70,71
 499.477539062 447.125 499.477539062 447.125 515.227539062 455 c 128,-1,72
 530.977539062 462.875 530.977539062 462.875 555.727539062 480.125 c 0,73,74
 571.477539062 490.625 571.477539062 490.625 575.977539062 492.875 c 0,0,1
557.977539062 625.625 m 0,75,76
 566.227539062 630.125 566.227539062 630.125 566.977539062 630.125 c 128,-1,77
 567.727539062 630.125 567.727539062 630.125 562.477539062 624.125 c 0,78,79
 545.977539062 606.875 545.977539062 606.875 550.477539062 588.125 c 0,80,81
 555.727539062 565.625 555.727539062 565.625 585.727539062 557.375 c 0,82,83
 592.477539062 555.875 592.477539062 555.875 592.477539062 555.125 c 128,-1,84
 592.477539062 554.375 592.477539062 554.375 587.977539062 551.375 c 128,-1,85
 583.477539062 548.375 583.477539062 548.375 575.977539062 541.625 c 0,86,87
 558.727539062 525.125 558.727539062 525.125 541.477539062 510.875 c 0,88,89
 536.977539062 507.125 536.977539062 507.125 530.602539062 501.5 c 128,-1,90
 524.227539062 495.875 524.227539062 495.875 523.102539062 495.875 c 128,-1,91
 521.977539062 495.875 521.977539062 495.875 521.227539062 498.875 c 0,92,93
 519.727539062 503.375 519.727539062 503.375 513.727539062 510.5 c 128,-1,94
 507.727539062 517.625 507.727539062 517.625 502.477539062 521.375 c 0,95,96
 497.227539062 524.375 497.227539062 524.375 493.102539062 525.125 c 128,-1,97
 488.977539062 525.875 488.977539062 525.875 470.977539062 525.875 c 0,98,99
 449.227539062 525.875 449.227539062 525.875 443.602539062 527.75 c 128,-1,100
 437.977539062 529.625 437.977539062 529.625 434.602539062 531.5 c 128,-1,101
 431.227539062 533.375 431.227539062 533.375 433.477539062 533.375 c 0,102,103
 442.477539062 533.375 442.477539062 533.375 457.477539062 540.875 c 0,104,105
 472.477539062 547.625 472.477539062 547.625 484.477539062 558.125 c 128,-1,106
 496.477539062 568.625 496.477539062 568.625 524.227539062 597.875 c 0,107,108
 544.477539062 618.875 544.477539062 618.875 557.977539062 625.625 c 0,75,76
EndSplineSet
EndChar

StartChar: k
Encoding: 107 107 49
Width: 881
VWidth: 825
GlyphClass: 1
Flags: W
LayerCount: 2
Fore
SplineSet
403.987304688 611.25 m 0,0,1
 410.737304688 615.75 410.737304688 615.75 412.237304688 615.75 c 256,2,3
 413.737304688 615.75 413.737304688 615.75 411.112304688 610.5 c 128,-1,4
 408.487304688 605.25 408.487304688 605.25 406.237304688 594 c 0,5,6
 403.987304688 579.75 403.987304688 579.75 403.612304688 560.25 c 128,-1,7
 403.237304688 540.75 403.237304688 540.75 403.237304688 437.25 c 0,8,9
 403.237304688 305.25 403.237304688 305.25 404.737304688 305.25 c 0,10,11
 405.487304688 306 405.487304688 306 410.362304688 310.5 c 128,-1,12
 415.237304688 315 415.237304688 315 433.987304688 331.5 c 0,13,14
 479.737304688 372.75 479.737304688 372.75 496.987304688 393.75 c 0,15,16
 515.737304688 417 515.737304688 417 508.987304688 430.5 c 0,17,18
 504.487304688 440.25 504.487304688 440.25 493.237304688 446.25 c 0,19,20
 486.487304688 450.75 486.487304688 450.75 488.737304688 453 c 0,21,22
 490.237304688 454.5 490.237304688 454.5 505.987304688 454.5 c 128,-1,23
 521.737304688 454.5 521.737304688 454.5 545.362304688 453.75 c 128,-1,24
 568.987304688 453 568.987304688 453 587.737304688 453.75 c 0,25,26
 634.237304688 456 634.237304688 456 637.987304688 453.75 c 0,27,28
 639.487304688 453 639.487304688 453 639.487304688 452.25 c 0,29,30
 639.487304688 450 639.487304688 450 628.237304688 445.5 c 0,31,32
 601.237304688 436.5 601.237304688 436.5 571.987304688 416.25 c 0,33,34
 550.987304688 401.25 550.987304688 401.25 521.737304688 375 c 0,35,36
 509.737304688 363.75 509.737304688 363.75 494.362304688 350.625 c 128,-1,37
 478.987304688 337.5 478.987304688 337.5 477.487304688 335.25 c 0,38,39
 475.987304688 333.75 475.987304688 333.75 476.737304688 332.625 c 128,-1,40
 477.487304688 331.5 477.487304688 331.5 482.737304688 325.5 c 0,41,42
 494.737304688 311.25 494.737304688 311.25 519.487304688 275.25 c 0,43,44
 563.737304688 209.25 563.737304688 209.25 590.737304688 174.75 c 0,45,46
 617.737304688 138.75 617.737304688 138.75 640.612304688 123.75 c 128,-1,47
 663.487304688 108.75 663.487304688 108.75 688.987304688 108.75 c 0,48,49
 724.237304688 108.75 724.237304688 108.75 751.987304688 132.75 c 0,50,51
 757.237304688 137.25 757.237304688 137.25 757.987304688 137.25 c 0,52,53
 760.987304688 137.25 760.987304688 137.25 754.237304688 124.5 c 0,54,55
 742.987304688 102 742.987304688 102 721.987304688 81.75 c 0,56,57
 649.987304688 14.25 649.987304688 14.25 565.987304688 36 c 0,58,59
 547.237304688 40.5 547.237304688 40.5 518.737304688 51.75 c 0,60,61
 482.737304688 66.75 482.737304688 66.75 462.487304688 66.75 c 0,62,63
 451.987304688 66.75 451.987304688 66.75 445.987304688 65.25 c 0,64,65
 412.987304688 56.25 412.987304688 56.25 416.737304688 28.5 c 0,66,67
 418.237304688 19.5 418.237304688 19.5 425.362304688 11.625 c 128,-1,68
 432.487304688 3.75 432.487304688 3.75 442.987304688 0 c 0,69,70
 448.987304688 -2.25 448.987304688 -2.25 459.862304688 -2.625 c 128,-1,71
 470.737304688 -3 470.737304688 -3 470.362304688 -3.75 c 128,-1,72
 469.987304688 -4.5 469.987304688 -4.5 466.987304688 -6 c 0,73,74
 458.737304688 -9.75 458.737304688 -9.75 445.612304688 -9.75 c 128,-1,75
 432.487304688 -9.75 432.487304688 -9.75 422.737304688 -6 c 0,76,77
 403.237304688 2.25 403.237304688 2.25 394.987304688 18.75 c 0,78,79
 390.487304688 29.25 390.487304688 29.25 390.487304688 40.5 c 0,80,81
 390.487304688 72 390.487304688 72 418.987304688 85.5 c 0,82,83
 430.987304688 90.75 430.987304688 90.75 448.987304688 90.75 c 0,84,85
 462.487304688 90.75 462.487304688 90.75 470.737304688 88.5 c 0,86,87
 484.237304688 85.5 484.237304688 85.5 518.737304688 71.25 c 0,88,89
 554.737304688 55.5 554.737304688 55.5 574.237304688 51.75 c 0,90,91
 581.737304688 50.25 581.737304688 50.25 595.612304688 50.25 c 128,-1,92
 609.487304688 50.25 609.487304688 50.25 616.237304688 51.75 c 2,93,-1
 623.737304688 53.25 l 1,94,-1
 615.487304688 57.75 l 2,95,96
 597.487304688 66.75 597.487304688 66.75 577.237304688 86.25 c 0,97,98
 553.237304688 109.5 553.237304688 109.5 524.737304688 147.75 c 0,99,100
 504.487304688 174.75 504.487304688 174.75 469.237304688 227.25 c 0,101,102
 433.987304688 278.25 433.987304688 278.25 427.987304688 283.5 c 0,103,104
 423.487304688 287.25 423.487304688 287.25 420.112304688 286.5 c 128,-1,105
 416.737304688 285.75 416.737304688 285.75 410.737304688 279.75 c 128,-1,106
 404.737304688 273.75 404.737304688 273.75 403.612304688 271.125 c 128,-1,107
 402.487304688 268.5 402.487304688 268.5 402.487304688 241.5 c 128,-1,108
 402.487304688 214.5 402.487304688 214.5 403.237304688 204.75 c 0,109,110
 405.487304688 179.25 405.487304688 179.25 413.362304688 167.25 c 128,-1,111
 421.237304688 155.25 421.237304688 155.25 438.487304688 152.25 c 0,112,113
 445.987304688 151.5 445.987304688 151.5 445.987304688 147 c 0,114,115
 445.987304688 145.5 445.987304688 145.5 444.487304688 144 c 128,-1,116
 442.987304688 142.5 442.987304688 142.5 431.362304688 142.5 c 128,-1,117
 419.737304688 142.5 419.737304688 142.5 394.987304688 143.25 c 0,118,119
 343.987304688 144.75 343.987304688 144.75 303.487304688 141.75 c 1,120,-1
 295.987304688 141.75 l 1,121,-1
 295.237304688 144 l 2,122,123
 294.487304688 146.25 294.487304688 146.25 295.987304688 147.75 c 128,-1,124
 297.487304688 149.25 297.487304688 149.25 303.487304688 150.75 c 0,125,126
 316.987304688 155.25 316.987304688 155.25 324.487304688 163.5 c 0,127,128
 335.737304688 175.5 335.737304688 175.5 338.737304688 198.75 c 0,129,130
 340.237304688 207 340.237304688 207 340.987304688 324.75 c 0,131,132
 341.737304688 506.25 341.737304688 506.25 338.737304688 518.25 c 0,133,134
 334.237304688 534.75 334.237304688 534.75 318.487304688 543 c 0,135,136
 312.487304688 546.75 312.487304688 546.75 312.487304688 547.5 c 128,-1,137
 312.487304688 548.25 312.487304688 548.25 324.487304688 556.5 c 128,-1,138
 336.487304688 564.75 336.487304688 564.75 359.737304688 581.25 c 0,139,140
 391.237304688 603.75 391.237304688 603.75 403.987304688 611.25 c 0,0,1
EndSplineSet
EndChar

